STARTFONT 2.1
COMMENT
COMMENT Converted from OpenType font "CONSOLAZ.TTF" by "otf2bdf 3.0".
COMMENT
FONT -FreeType-Consolas-Bold-O-Normal--100-120-600-600-P-504-ISO10646-1
SIZE 12 600 600
FONTBOUNDINGBOX 81 119 -9 -24
STARTPROPERTIES 19
FOUNDRY "FreeType"
FAMILY_NAME "Consolas"
WEIGHT_NAME "Bold"
SLANT "O"
SETWIDTH_NAME "Normal"
ADD_STYLE_NAME ""
PIXEL_SIZE 100
POINT_SIZE 120
RESOLUTION_X 600
RESOLUTION_Y 600
SPACING "P"
AVERAGE_WIDTH 504
CHARSET_REGISTRY "ISO10646"
CHARSET_ENCODING "1"
FONT_ASCENT 74
FONT_DESCENT 25
COPYRIGHT "© 2005 Microsoft Corporation. All Rights Reserved."
_OTF_FONTFILE "CONSOLAZ.TTF"
_OTF_PSNAME "Consolas-BoldItalic"
ENDPROPERTIES
CHARS 598
STARTCHAR 0020
ENCODING 32
SWIDTH 550 0
DWIDTH 55 0
BBX 0 0 0 0
BITMAP
ENDCHAR
STARTCHAR 0021
ENCODING 33
SWIDTH 550 0
DWIDTH 55 0
BBX 27 70 16 -1
BITMAP
0007FFE0
0007FFE0
0007FFE0
0007FFC0
0007FFC0
000FFFC0
000FFFC0
000FFF80
000FFF80
000FFF80
000FFF80
001FFF00
001FFF00
001FFF00
001FFF00
001FFF00
001FFE00
003FFE00
003FFE00
003FFE00
003FFC00
003FFC00
003FFC00
003FFC00
007FF800
007FF800
007FF800
007FF800
007FF000
007FF000
00FFF000
00FFF000
00FFE000
00FFE000
00FFE000
00FFE000
01FFE000
01FFC000
01FFC000
01FFC000
01FFC000
01FF8000
03FF8000
03FF8000
03FF8000
03FF0000
03FF0000
03FF0000
07FF0000
00000000
00000000
00000000
00000000
00000000
00000000
0FF00000
1FFC0000
3FFC0000
7FFE0000
7FFE0000
FFFF0000
FFFF0000
FFFF0000
FFFF0000
FFFE0000
FFFE0000
7FFC0000
3FFC0000
1FF00000
0FE00000
ENDCHAR
STARTCHAR 0022
ENCODING 34
SWIDTH 550 0
DWIDTH 55 0
BBX 36 24 17 45
BITMAP
1FFF01FFF0
1FFE01FFE0
1FFE01FFE0
3FFE03FFE0
3FFE03FFC0
3FFC03FFC0
3FFC03FFC0
3FFC03FFC0
3FF803FF80
3FF803FF80
7FF807FF80
7FF807FF80
7FF007FF00
7FF007FF00
7FF007FF00
7FF007FF00
7FE007FE00
7FE007FE00
FFE00FFE00
FFE00FFC00
FFC00FFC00
FFC00FFC00
FFC00FFC00
FF800FF800
ENDCHAR
STARTCHAR 0023
ENCODING 35
SWIDTH 550 0
DWIDTH 55 0
BBX 56 64 1 0
BITMAP
000003FF001FF0
000003FE001FF0
000007FE003FF0
000007FE003FF0
000007FC003FE0
00000FFC007FE0
00000FFC007FE0
00000FF8007FC0
00000FF800FFC0
00001FF800FFC0
00001FF800FF80
00001FF000FF80
00003FF001FF80
00003FF001FF80
00003FE001FF00
00007FE003FF00
00FFFFFFFFFFFF
00FFFFFFFFFFFF
00FFFFFFFFFFFF
01FFFFFFFFFFFF
01FFFFFFFFFFFF
01FFFFFFFFFFFE
01FFFFFFFFFFFE
01FFFFFFFFFFFE
0001FF000FF800
0003FF001FF800
0003FF001FF800
0003FE001FF000
0003FE003FF000
0007FE003FF000
0007FE003FE000
0007FC003FE000
000FFC007FE000
000FFC007FE000
000FF8007FC000
001FF800FFC000
001FF800FFC000
001FF000FF8000
7FFFFFFFFFFF80
7FFFFFFFFFFF80
7FFFFFFFFFFF80
FFFFFFFFFFFF80
FFFFFFFFFFFF80
FFFFFFFFFFFF00
FFFFFFFFFFFF00
FFFFFFFFFFFF00
FFFFFFFFFFFF00
00FF8007FC0000
00FF800FFC0000
01FF800FFC0000
01FF800FF80000
01FF000FF80000
03FF001FF80000
03FF001FF00000
03FE001FF00000
07FE003FF00000
07FE003FF00000
07FC003FE00000
07FC007FE00000
0FFC007FE00000
0FFC007FC00000
0FF8007FC00000
1FF800FFC00000
1FF800FF800000
ENDCHAR
STARTCHAR 0024
ENCODING 36
SWIDTH 550 0
DWIDTH 55 0
BBX 53 86 0 -12
BITMAP
0000000003FE00
0000000003FE00
0000000007FC00
0000000007FC00
0000000007FC00
000000000FF800
000000000FF800
000000000FF800
000000001FF000
000000001FF000
00000001FFE000
0000007FFFFF80
000003FFFFFFF8
00000FFFFFFFF8
00003FFFFFFFF0
0000FFFFFFFFF0
0001FFFFFFFFF0
0003FFFFFFFFF0
0007FFFFFFFFF0
000FFFFFFFFFE0
001FFFFDFF7FE0
003FFFC1FF00E0
003FFF01FE0000
003FFE03FE0000
007FFC03FE0000
007FFC03FC0000
007FFC07FC0000
007FF807F80000
007FFC07F80000
007FFC0FF80000
007FFC0FF00000
007FFE0FF00000
007FFF1FF00000
007FFFDFE00000
003FFFFFE00000
003FFFFFE00000
001FFFFFC00000
001FFFFFE00000
000FFFFFFC0000
0007FFFFFF0000
0003FFFFFF8000
0001FFFFFFE000
00007FFFFFF000
00001FFFFFF800
000007FFFFFC00
000003FFFFFE00
000003FFFFFF00
000003FFFFFF00
000007FDFFFF80
000007FC7FFF80
000007F83FFF80
00000FF81FFF80
00000FF80FFF80
00000FF00FFF80
00001FF00FFF80
00001FF00FFF80
00001FE00FFF80
00003FE00FFF80
00003FE01FFF80
00003FC03FFF00
00007FC03FFF00
38007FC0FFFE00
3F807F83FFFE00
7FFEFFBFFFFC00
7FFFFFFFFFF800
7FFFFFFFFFF000
7FFFFFFFFFE000
7FFFFFFFFFC000
FFFFFFFFFF8000
FFFFFFFFFE0000
FFFFFFFFF80000
FFFFFFFFE00000
0FFFFFFF000000
003FFFE0000000
000FF800000000
000FF800000000
000FF000000000
001FF000000000
001FF000000000
001FE000000000
003FE000000000
003FE000000000
003FC000000000
007FC000000000
007FC000000000
007F8000000000
ENDCHAR
STARTCHAR 0025
ENCODING 37
SWIDTH 550 0
DWIDTH 55 0
BBX 69 71 -5 -1
BITMAP
000000FF0000000000
000003FFC000003FF8
00000FFFF000003FF0
00001FFFF800007FE0
00003FFFFC0000FFC0
00007FFFFC0001FF80
0000FFFFFE0003FF00
0001FFFFFE0007FF00
0001FF03FE000FFE00
0003FE03FE000FFC00
0003FE01FE001FF800
0007FC01FE003FF000
0007FC01FE007FE000
0007FC01FE00FFC000
0007F803FE01FFC000
000FF803FE03FF8000
000FF803FE03FF0000
000FF803FC07FE0000
000FF807FC0FFC0000
000FF807FC1FF80000
000FF80FF83FF00000
000FFC1FF87FF00000
0007FFFFF0FFE00000
0007FFFFF0FFC00000
0007FFFFE1FF800000
0003FFFFC3FF000000
0001FFFF87FE000000
0000FFFF0FFC000000
00007FFC1FFC000000
00000FE03FF8000000
000000003FF0000000
000000007FE0000000
00000000FFC0000000
00000001FF80000000
00000003FF00000000
00000007FF00000000
0000000FFE00000000
0000000FFC00000000
0000001FF800000000
0000003FF000000000
0000007FE000000000
000000FFC03F800000
000001FFC1FFF00000
000003FF87FFF80000
000003FF0FFFFC0000
000007FE1FFFFE0000
00000FFC3FFFFE0000
00001FF87FFFFF0000
00003FF07FFFFF0000
00007FF0FFC1FF0000
0000FFE1FF80FF8000
0000FFC1FF00FF8000
0001FF81FF00FF8000
0003FF03FE00FF8000
0007FE03FE00FF0000
000FFC03FE00FF0000
001FFC03FC01FF0000
003FF803FC01FF0000
003FF007FC01FF0000
007FE007FC03FE0000
00FFC007FC03FE0000
01FF8007FC07FE0000
03FF0003FE0FFC0000
07FF0003FFFFF80000
0FFE0003FFFFF80000
0FFC0003FFFFF00000
1FF80001FFFFE00000
3FF00000FFFFC00000
7FE000007FFF800000
FFC000003FFE000000
0000000007F0000000
ENDCHAR
STARTCHAR 0026
ENCODING 38
SWIDTH 550 0
DWIDTH 55 0
BBX 52 70 0 -1
BITMAP
00000001C00000
0000007FFF0000
000001FFFFC000
000007FFFFE000
00001FFFFFF800
00003FFFFFFC00
00007FFFFFFC00
0000FFFFFFFE00
0001FFFFFFFE00
0001FFFFFFFF00
0003FFF01FFF00
0003FFC00FFF00
0007FF8007FF00
0007FF0007FF00
000FFF0007FF00
000FFE0007FF00
000FFE0007FF00
000FFE0007FF00
000FFE000FFF00
000FFE000FFE00
000FFE001FFE00
000FFE003FFE00
000FFE007FFC00
000FFF01FFF800
000FFF03FFF000
000FFF8FFFF000
0007FF9FFFE000
0007FFFFFF8000
0007FFFFFF0000
0003FFFFFE0000
0003FFFFF80000
0001FFFFF00000
0001FFFFC00000
0003FFFF000000
000FFFFC000000
001FFFFE000000
003FFFFE007FF0
00FFFFFF007FF0
01FFFFFF007FF0
03FFFFFF807FF0
07FFFFFFC0FFE0
0FFFC7FFC0FFE0
1FFF83FFE0FFE0
1FFF03FFF1FFC0
3FFE01FFF1FFC0
3FFC00FFF9FFC0
7FFC00FFFBFF80
7FF8007FFFFF80
FFF8007FFFFF00
FFF0003FFFFF00
FFF0001FFFFE00
FFF0001FFFFE00
FFF0000FFFFC00
FFF0000FFFFC00
FFF00007FFF800
FFF00003FFF800
FFF00003FFF000
FFF80003FFF000
FFFC000FFFF800
FFFE003FFFF800
7FFFFFFFFFFC00
7FFFFFFFFFFE00
7FFFFFFFFFFE00
3FFFFFFFFFFF00
1FFFFFFFFFFF80
0FFFFFFFEFFF80
07FFFFFF8FFFC0
01FFFFFE07FFC0
007FFFF003FFE0
000FFF80000000
ENDCHAR
STARTCHAR 0027
ENCODING 39
SWIDTH 550 0
DWIDTH 55 0
BBX 17 24 26 45
BITMAP
0FFF80
1FFF80
1FFF00
1FFF00
1FFF00
1FFF00
1FFE00
1FFE00
3FFE00
3FFC00
3FFC00
3FFC00
3FFC00
3FF800
3FF800
7FF800
7FF800
7FF000
7FF000
7FF000
7FF000
7FE000
7FE000
FFE000
ENDCHAR
STARTCHAR 0028
ENCODING 40
SWIDTH 550 0
DWIDTH 55 0
BBX 40 93 12 -21
BITMAP
0000000020
0000000060
00000001F0
00000003F8
00000007FC
0000001FFE
0000003FFE
0000007FFF
000000FFFE
000001FFFC
000003FFF8
000007FFE0
00000FFFC0
00001FFF80
00003FFF00
00007FFE00
0000FFFC00
0000FFF800
0001FFF000
0003FFE000
0007FFC000
0007FFC000
000FFF8000
001FFF0000
003FFE0000
003FFE0000
007FFC0000
007FF80000
00FFF80000
00FFF00000
01FFE00000
01FFE00000
03FFC00000
03FFC00000
07FF800000
07FF800000
0FFF000000
0FFF000000
0FFF000000
1FFE000000
1FFE000000
1FFE000000
3FFC000000
3FFC000000
3FFC000000
3FF8000000
7FF8000000
7FF8000000
7FF8000000
7FF8000000
7FF8000000
7FF0000000
7FF0000000
FFF0000000
FFF0000000
FFF0000000
FFF0000000
FFF0000000
FFF0000000
FFF0000000
7FF0000000
7FF8000000
7FF8000000
7FF8000000
7FF8000000
7FF8000000
7FF8000000
3FFC000000
3FFC000000
3FFC000000
3FFE000000
1FFE000000
1FFE000000
1FFF000000
0FFF000000
0FFF800000
07FF800000
07FFC00000
07FFC00000
03FFE00000
01FFF00000
01FFF00000
00FFF80000
00FFFC0000
007FFC0000
003FFE0000
003FFF0000
001FFF0000
000FFC0000
0007F80000
0003F00000
0003E00000
0001C00000
ENDCHAR
STARTCHAR 0029
ENCODING 41
SWIDTH 550 0
DWIDTH 55 0
BBX 39 93 4 -21
BITMAP
0000010000
0000030000
00000F8000
00001FC000
00003FE000
00007FF000
0000FFF800
0000FFF800
00007FFC00
00007FFE00
00003FFE00
00001FFF00
00001FFF80
00000FFF80
000007FFC0
000007FFC0
000003FFE0
000003FFE0
000001FFF0
000001FFF0
000000FFF0
000000FFF8
0000007FF8
0000007FF8
0000007FFC
0000003FFC
0000003FFC
0000003FFC
0000003FFC
0000001FFE
0000001FFE
0000001FFE
0000001FFE
0000001FFE
0000001FFE
0000001FFE
0000001FFE
0000001FFE
0000001FFE
0000001FFE
0000001FFE
0000001FFE
0000001FFE
0000001FFE
0000001FFE
0000001FFC
0000003FFC
0000003FFC
0000003FFC
0000003FFC
0000003FF8
0000007FF8
0000007FF8
0000007FF8
000000FFF0
000000FFF0
000001FFF0
000001FFE0
000001FFE0
000003FFC0
000003FFC0
000007FF80
000007FF80
00000FFF00
00001FFF00
00001FFE00
00003FFE00
00007FFC00
00007FFC00
0000FFF800
0001FFF000
0003FFF000
0003FFE000
0007FFC000
000FFF8000
001FFF8000
003FFF0000
007FFE0000
00FFFC0000
01FFF80000
03FFF00000
07FFE00000
0FFFC00000
1FFF800000
7FFF000000
FFFE000000
FFFC000000
FFF8000000
7FF0000000
3FE0000000
1F80000000
0F00000000
0E00000000
ENDCHAR
STARTCHAR 002A
ENCODING 42
SWIDTH 550 0
DWIDTH 55 0
BBX 42 42 11 27
BITMAP
0000FFC00000
0000FFC00000
0000FFC00000
0000FFC00000
0000FFC00000
00007FC00000
00007FC00000
0E007FC01C00
0F007F803C00
1FC07F807E00
1FE07F81FE00
3FF07F83FF00
7FFC7F8FFF80
7FFE7F9FFF80
FFFFFFBFFFC0
3FFFFFFFFF00
0FFFFFFFFC00
03FFFFFFF000
00FFFFFFC000
001FFFFF0000
0007FFFC0000
0007FFF80000
001FFFFF0000
007FFFFFC000
01FFFFFFF000
0FFFFFFFFC00
3FFFFFFFFF00
FFFFFFFFFFC0
7FFE7F9FFF80
7FFC7F8FFF80
3FF87F83FF00
1FE07F81FF00
1FC07F80FE00
0F007F803C00
0E007F801C00
04007FC00800
0000FFC00000
0000FFC00000
0000FFC00000
0000FFC00000
0000FFC00000
0000FFC00000
ENDCHAR
STARTCHAR 002B
ENCODING 43
SWIDTH 550 0
DWIDTH 55 0
BBX 50 47 3 3
BITMAP
000000FFE00000
000000FFE00000
000000FFE00000
000001FFC00000
000001FFC00000
000001FFC00000
000001FFC00000
000001FFC00000
000003FF800000
000003FF800000
000003FF800000
000003FF800000
000003FF800000
000007FF000000
000007FF000000
000007FF000000
000007FF000000
000007FF000000
00000FFFFFFFC0
3FFFFFFFFFFF80
3FFFFFFFFFFF80
3FFFFFFFFFFF80
7FFFFFFFFFFF80
7FFFFFFFFFFF80
7FFFFFFFFFFF00
7FFFFFFFFFFF00
FFFFFFFFFFFF00
FFFFFFFFFFFF00
00003FF8000000
00003FF8000000
00003FF8000000
00003FF8000000
00007FF8000000
00007FF0000000
00007FF0000000
00007FF0000000
00007FF0000000
00007FF0000000
0000FFE0000000
0000FFE0000000
0000FFE0000000
0000FFE0000000
0000FFE0000000
0001FFC0000000
0001FFC0000000
0001FFC0000000
0001FFC0000000
ENDCHAR
STARTCHAR 002C
ENCODING 44
SWIDTH 550 0
DWIDTH 55 0
BBX 30 35 3 -17
BITMAP
00003F80
0000FFE0
0001FFF0
0003FFF0
0003FFF8
0007FFF8
0007FFFC
0007FFFC
0007FFFC
0007FFFC
0007FFFC
0007FFFC
0007FFFC
0003FFFC
0003FFFC
0001FFFC
0000FFF8
0000FFF8
0000FFF8
0000FFF0
0000FFF0
0001FFE0
0003FFC0
0007FFC0
000FFF80
003FFF00
01FFFE00
FFFFFC00
FFFFF800
FFFFF000
FFFFC000
FFFF0000
FFFC0000
FFE00000
FE000000
ENDCHAR
STARTCHAR 002D
ENCODING 45
SWIDTH 550 0
DWIDTH 55 0
BBX 32 11 12 21
BITMAP
3FFFFFFF
7FFFFFFF
7FFFFFFF
7FFFFFFE
7FFFFFFE
7FFFFFFE
FFFFFFFE
FFFFFFFE
FFFFFFFC
FFFFFFFC
FFFFFFFC
ENDCHAR
STARTCHAR 002E
ENCODING 46
SWIDTH 550 0
DWIDTH 55 0
BBX 18 19 15 -1
BITMAP
03F000
0FFC00
1FFF00
3FFF80
7FFF80
7FFFC0
FFFFC0
FFFFC0
FFFFC0
FFFFC0
FFFFC0
FFFFC0
FFFFC0
FFFF80
7FFF80
7FFF00
3FFE00
1FFC00
07F000
ENDCHAR
STARTCHAR 002F
ENCODING 47
SWIDTH 550 0
DWIDTH 55 0
BBX 61 79 -3 -10
BITMAP
0000000000007FF8
000000000000FFF0
000000000001FFF0
000000000001FFE0
000000000003FFC0
000000000003FFC0
000000000007FF80
00000000000FFF80
00000000000FFF00
00000000001FFE00
00000000003FFE00
00000000003FFC00
00000000007FF800
00000000007FF800
0000000000FFF000
0000000001FFF000
0000000001FFE000
0000000003FFC000
0000000007FFC000
0000000007FF8000
000000000FFF0000
000000000FFF0000
000000001FFE0000
000000003FFE0000
000000003FFC0000
000000007FF80000
00000000FFF80000
00000000FFF00000
00000001FFE00000
00000003FFE00000
00000003FFC00000
00000007FF800000
00000007FF800000
0000000FFF000000
0000001FFF000000
0000001FFE000000
0000003FFC000000
0000007FFC000000
0000007FF8000000
000000FFF0000000
000000FFF0000000
000001FFE0000000
000003FFE0000000
000003FFC0000000
000007FF80000000
00000FFF80000000
00000FFF00000000
00001FFE00000000
00001FFE00000000
00003FFC00000000
00007FF800000000
00007FF800000000
0000FFF000000000
0001FFF000000000
0001FFE000000000
0003FFC000000000
0007FFC000000000
0007FF8000000000
000FFF0000000000
000FFF0000000000
001FFE0000000000
003FFE0000000000
003FFC0000000000
007FF80000000000
00FFF80000000000
00FFF00000000000
01FFE00000000000
01FFE00000000000
03FFC00000000000
07FFC00000000000
07FF800000000000
0FFF000000000000
1FFF000000000000
1FFE000000000000
3FFC000000000000
7FFC000000000000
7FF8000000000000
FFF0000000000000
FFF0000000000000
ENDCHAR
STARTCHAR 0030
ENCODING 48
SWIDTH 550 0
DWIDTH 55 0
BBX 52 66 3 -1
BITMAP
0000000FF80000
000001FFFF0000
000007FFFFE000
00001FFFFFF000
00007FFFFFF800
0000FFFFFFFC00
0003FFFFFFFE00
0007FFFFFFFF00
000FFFFFFFFF80
001FFFFFFFFF80
003FFFE03FFFC0
003FFF800FFFC0
007FFE0007FFC0
00FFFC0003FFE0
00FFF80003FFE0
01FFF00001FFE0
01FFF00001FFE0
03FFE00001FFF0
03FFC00000FFF0
07FFC00003FFF0
07FF800007FFF0
0FFF80001FFFF0
0FFF00003FFFF0
1FFF0000FFFFF0
1FFE0001FFFFF0
1FFE0007FFFFF0
3FFE001FFFFFF0
3FFE003FFFFFF0
3FFC00FFFFFFF0
3FFC01FFFFFFE0
7FFC07FFFFFFE0
7FF81FFFF9FFE0
7FF83FFFF1FFE0
7FF8FFFFC1FFE0
7FF9FFFF83FFE0
7FFFFFFE03FFC0
FFFFFFFC03FFC0
FFFFFFF003FFC0
FFFFFFC007FFC0
FFFFFF8007FF80
FFFFFE0007FF80
FFFFFC000FFF80
FFFFF0000FFF00
FFFFC0000FFF00
FFFF80001FFF00
FFFE00001FFE00
FFFC00003FFE00
FFF000003FFC00
FFF000007FFC00
FFF80000FFF800
7FF80000FFF800
7FF80001FFF000
7FFC0003FFF000
7FFC0007FFE000
3FFE001FFFC000
3FFF803FFFC000
1FFFFFFFFF8000
1FFFFFFFFF0000
0FFFFFFFFE0000
0FFFFFFFFC0000
07FFFFFFF00000
03FFFFFFE00000
01FFFFFF800000
007FFFFF000000
001FFFF8000000
0003FFC0000000
ENDCHAR
STARTCHAR 0031
ENCODING 49
SWIDTH 550 0
DWIDTH 55 0
BBX 45 64 2 0
BITMAP
00000003FFC0
0000000FFF80
0000007FFF80
000001FFFF80
000007FFFF80
00001FFFFF80
00007FFFFF00
0001FFFFFF00
0007FFFFFF00
001FFFFFFF00
007FFFFFFF00
007FFFFFFE00
007FFFFFFE00
007FFF9FFE00
003FFE1FFE00
003FF83FFE00
003FE03FFC00
003F803FFC00
001E003FFC00
0018003FFC00
0000007FFC00
0000007FF800
0000007FF800
0000007FF800
0000007FF800
000000FFF800
000000FFF000
000000FFF000
000000FFF000
000000FFF000
000001FFF000
000001FFE000
000001FFE000
000001FFE000
000001FFE000
000003FFE000
000003FFC000
000003FFC000
000003FFC000
000003FFC000
000007FFC000
000007FF8000
000007FF8000
000007FF8000
000007FF8000
00000FFF8000
00000FFF0000
00000FFF0000
00000FFF0000
00000FFF0000
00001FFF0000
00001FFE0000
00001FFE0000
3FFFFFFFFFF8
3FFFFFFFFFF8
3FFFFFFFFFF8
3FFFFFFFFFF0
3FFFFFFFFFF0
7FFFFFFFFFF0
7FFFFFFFFFF0
7FFFFFFFFFF0
7FFFFFFFFFE0
7FFFFFFFFFE0
FFFFFFFFFFE0
ENDCHAR
STARTCHAR 0032
ENCODING 50
SWIDTH 550 0
DWIDTH 55 0
BBX 51 65 1 0
BITMAP
0000000FF80000
000001FFFF8000
000007FFFFE000
00001FFFFFF800
00007FFFFFFC00
0001FFFFFFFE00
0007FFFFFFFF00
000FFFFFFFFF80
001FFFFFFFFF80
001FFFFFFFFFC0
000FFFFFFFFFC0
0007FFC03FFFC0
0007FE000FFFE0
0003F80007FFE0
0001F00007FFE0
0000C00007FFE0
0000800003FFE0
0000000003FFE0
0000000003FFE0
0000000007FFC0
0000000007FFC0
0000000007FFC0
0000000007FFC0
000000000FFF80
000000000FFF80
000000001FFF80
000000001FFF00
000000003FFF00
000000007FFE00
00000000FFFC00
00000001FFFC00
00000003FFF800
00000007FFF000
0000000FFFE000
0000001FFFC000
0000003FFF8000
0000007FFF0000
000000FFFE0000
000001FFFC0000
000007FFF80000
00000FFFF00000
00001FFFE00000
00003FFFC00000
00007FFF000000
0001FFFE000000
0003FFFC000000
0007FFF8000000
000FFFE0000000
001FFFC0000000
003FFF80000000
00FFFF00000000
01FFFC00000000
03FFF800000000
07FFF000000000
0FFFFFFFFFFC00
3FFFFFFFFFFC00
3FFFFFFFFFF800
3FFFFFFFFFF800
3FFFFFFFFFF800
7FFFFFFFFFF800
7FFFFFFFFFF000
7FFFFFFFFFF000
7FFFFFFFFFF000
7FFFFFFFFFF000
FFFFFFFFFFF000
ENDCHAR
STARTCHAR 0033
ENCODING 51
SWIDTH 550 0
DWIDTH 55 0
BBX 49 66 2 -1
BITMAP
000000FFE00000
00003FFFFE0000
0003FFFFFFC000
0007FFFFFFF000
0007FFFFFFF800
0007FFFFFFFC00
0007FFFFFFFE00
0007FFFFFFFF00
0007FFFFFFFF00
0007FFFFFFFF80
0007FC01FFFF80
000780003FFF80
000000000FFF80
000000000FFF80
000000000FFF80
0000000007FF80
0000000007FF80
000000000FFF80
000000000FFF80
000000000FFF00
000000000FFF00
000000001FFF00
000000003FFE00
000000007FFE00
00000000FFFC00
00000003FFF800
0000000FFFF000
00000FFFFFE000
0001FFFFFFC000
0001FFFFFF8000
0003FFFFFE0000
0003FFFFF00000
0003FFFFFF0000
0003FFFFFFC000
0003FFFFFFE000
0007FFFFFFF000
0007FFFFFFF800
0000000FFFF800
00000001FFFC00
00000000FFFC00
000000007FFC00
000000003FFE00
000000003FFE00
000000003FFE00
000000003FFE00
000000003FFE00
000000003FFE00
000000007FFC00
000000007FFC00
000000007FFC00
00000000FFF800
00000001FFF800
00000003FFF800
0000000FFFF000
0000003FFFE000
3E0003FFFFE000
7FFFFFFFFFC000
7FFFFFFFFF8000
7FFFFFFFFF0000
7FFFFFFFFE0000
7FFFFFFFF80000
FFFFFFFFF00000
FFFFFFFFC00000
FFFFFFFE000000
FFFFFFF0000000
0FFFFC00000000
ENDCHAR
STARTCHAR 0034
ENCODING 52
SWIDTH 550 0
DWIDTH 55 0
BBX 52 64 0 0
BITMAP
000000003FFFE0
000000007FFFE0
00000000FFFFE0
00000001FFFFC0
00000003FFFFC0
00000003FFFFC0
00000007FFFFC0
0000000FFFFFC0
0000001FFFFF80
0000003FFFFF80
0000003FFFFF80
0000007FFFFF80
000000FFFFFF80
000001FFF7FF00
000003FFE7FF00
000003FFC7FF00
000007FF8FFF00
00000FFF8FFF00
00001FFF0FFE00
00003FFE0FFE00
00003FFC0FFE00
00007FF81FFE00
0000FFF01FFE00
0001FFF01FFC00
0003FFE01FFC00
0003FFC01FFC00
0007FF803FFC00
000FFF003FFC00
001FFF003FF800
003FFE003FF800
003FFC003FF800
007FF8007FF800
00FFF0007FF800
01FFE0007FF000
03FFE0007FF000
03FFC0007FF000
07FF8000FFF000
0FFF0000FFF000
1FFE0000FFE000
3FFE0000FFE000
3FFC0000FFE000
7FFFFFFFFFFFF0
7FFFFFFFFFFFF0
7FFFFFFFFFFFF0
7FFFFFFFFFFFF0
7FFFFFFFFFFFF0
FFFFFFFFFFFFE0
FFFFFFFFFFFFE0
FFFFFFFFFFFFE0
FFFFFFFFFFFFE0
FFFFFFFFFFFFE0
00000007FF8000
00000007FF8000
00000007FF0000
0000000FFF0000
0000000FFF0000
0000000FFF0000
0000000FFF0000
0000000FFE0000
0000001FFE0000
0000001FFE0000
0000001FFE0000
0000001FFE0000
0000001FFC0000
ENDCHAR
STARTCHAR 0035
ENCODING 53
SWIDTH 550 0
DWIDTH 55 0
BBX 50 65 3 -1
BITMAP
0003FFFFFFFFC0
0007FFFFFFFFC0
0007FFFFFFFFC0
0007FFFFFFFFC0
0007FFFFFFFFC0
0007FFFFFFFF80
000FFFFFFFFF80
000FFFFFFFFF80
000FFFFFFFFF80
000FFFFFFFFF80
000FFFFFFFFF00
001FFC00000000
001FFC00000000
001FFC00000000
001FFC00000000
001FFC00000000
003FF800000000
003FF800000000
003FF800000000
003FF800000000
003FF800000000
007FF000000000
007FF000000000
007FF000000000
007FFF80000000
007FFFFF800000
00FFFFFFF00000
00FFFFFFFC0000
00FFFFFFFF0000
00FFFFFFFF8000
00FFFFFFFFC000
01FFFFFFFFE000
01FFFFFFFFF000
01FFFFFFFFF000
000000FFFFF800
0000000FFFF800
00000003FFF800
00000001FFF800
00000000FFF800
00000000FFF800
00000000FFF800
000000007FF800
000000007FF800
00000000FFF800
00000000FFF800
00000000FFF800
00000000FFF800
00000001FFF000
00000001FFF000
00000003FFE000
00000007FFE000
0000000FFFE000
0000003FFFC000
000000FFFF8000
7F000FFFFF8000
7FFFFFFFFF0000
7FFFFFFFFE0000
7FFFFFFFFC0000
7FFFFFFFF00000
FFFFFFFFE00000
FFFFFFFF800000
FFFFFFFE000000
FFFFFFF8000000
FFFFFFC0000000
07FFF800000000
ENDCHAR
STARTCHAR 0036
ENCODING 54
SWIDTH 550 0
DWIDTH 55 0
BBX 50 65 4 -1
BITMAP
000000000FFFC0
00000007FFFF80
0000007FFFFF80
000001FFFFFF80
000007FFFFFF80
00001FFFFFFF80
00007FFFFFFF00
0000FFFFFFFF00
0001FFFFFFFF00
0007FFFFFFFF00
0007FFFFE00000
000FFFFC000000
001FFFE0000000
003FFF80000000
007FFF00000000
007FFC00000000
00FFF800000000
00FFF800000000
01FFF000000000
03FFE000000000
03FFE000000000
03FFC000000000
07FFC000000000
07FF8000000000
0FFF80FF800000
0FFF8FFFF80000
0FFF7FFFFE0000
1FFFFFFFFF8000
1FFFFFFFFFC000
1FFFFFFFFFE000
3FFFFFFFFFF000
3FFFFFFFFFF000
3FFFFFFFFFF800
3FFFFFFFFFF800
3FFFFC07FFFC00
7FFFC001FFFC00
7FFE0000FFFC00
7FFC00007FFC00
7FFC00003FFC00
7FF800003FFC00
7FF800003FFC00
7FF800003FFC00
FFF800003FFC00
FFF800003FFC00
FFF800003FFC00
FFF800007FFC00
FFF800007FFC00
FFF800007FF800
7FF80000FFF800
7FF80000FFF800
7FF80001FFF000
7FFC0003FFF000
7FFE0007FFE000
7FFF001FFFE000
3FFF807FFFC000
3FFFFFFFFF8000
1FFFFFFFFF0000
1FFFFFFFFE0000
0FFFFFFFFC0000
07FFFFFFF80000
03FFFFFFF00000
01FFFFFFC00000
00FFFFFF000000
003FFFFC000000
0007FFC0000000
ENDCHAR
STARTCHAR 0037
ENCODING 55
SWIDTH 550 0
DWIDTH 55 0
BBX 51 64 6 0
BITMAP
01FFFFFFFFFFE0
01FFFFFFFFFFE0
03FFFFFFFFFFE0
03FFFFFFFFFFE0
03FFFFFFFFFFC0
03FFFFFFFFFFC0
03FFFFFFFFFFC0
07FFFFFFFFFFC0
07FFFFFFFFFFC0
07FFFFFFFFFF80
07FFFFFFFFFF80
07FFFFFFFFFF80
000000003FFF00
000000003FFF00
000000007FFE00
00000000FFFC00
00000000FFFC00
00000001FFF800
00000003FFF000
00000003FFF000
00000007FFE000
0000000FFFC000
0000000FFFC000
0000001FFF8000
0000003FFF0000
0000003FFF0000
0000007FFE0000
000000FFFC0000
000001FFFC0000
000001FFF80000
000003FFF00000
000007FFF00000
000007FFE00000
00000FFFC00000
00001FFF800000
00001FFF800000
00003FFF000000
00007FFE000000
00007FFE000000
0000FFFC000000
0001FFF8000000
0001FFF8000000
0003FFF0000000
0007FFE0000000
0007FFE0000000
000FFFC0000000
001FFF80000000
003FFF80000000
003FFF00000000
007FFE00000000
00FFFE00000000
00FFFC00000000
01FFF800000000
03FFF800000000
03FFF000000000
07FFE000000000
0FFFE000000000
0FFFC000000000
1FFF8000000000
3FFF0000000000
3FFF0000000000
7FFE0000000000
FFFC0000000000
FFFC0000000000
ENDCHAR
STARTCHAR 0038
ENCODING 56
SWIDTH 550 0
DWIDTH 55 0
BBX 51 66 3 -1
BITMAP
0000003FF80000
000003FFFF8000
00001FFFFFF000
00007FFFFFFC00
0000FFFFFFFE00
0003FFFFFFFF00
0007FFFFFFFF80
000FFFFFFFFF80
001FFFFFFFFFC0
001FFFF07FFFC0
003FFF0007FFC0
007FFE0003FFE0
007FF80001FFE0
007FF80001FFE0
00FFF00001FFE0
00FFF00001FFE0
00FFF00001FFC0
00FFF00003FFC0
00FFF00003FFC0
00FFF00007FF80
00FFF0000FFF80
00FFF8001FFF00
00FFF8003FFF00
00FFFC007FFE00
007FFF01FFFC00
007FFF87FFF800
003FFFEFFFF000
003FFFFFFFE000
001FFFFFFFC000
000FFFFFFF0000
0003FFFFFE0000
0001FFFFF80000
0001FFFFFC0000
0007FFFFFE0000
001FFFFFFF0000
003FFFFFFF8000
00FFFFFFFFC000
01FFFFFFFFE000
03FFFE1FFFF000
07FFF80FFFF000
0FFFE003FFF800
1FFFC001FFF800
1FFF8000FFF800
3FFE0000FFF800
3FFC00007FFC00
7FFC00007FFC00
7FF800007FFC00
FFF000007FF800
FFF000007FF800
FFF000007FF800
FFF000007FF800
FFF00000FFF800
FFF00000FFF000
FFF80001FFF000
FFFC0007FFE000
FFFE000FFFE000
7FFFE0FFFFC000
7FFFFFFFFF8000
7FFFFFFFFF8000
3FFFFFFFFF0000
1FFFFFFFFC0000
0FFFFFFFF80000
07FFFFFFE00000
01FFFFFF800000
007FFFFE000000
0007FFE0000000
ENDCHAR
STARTCHAR 0039
ENCODING 57
SWIDTH 550 0
DWIDTH 55 0
BBX 51 65 2 0
BITMAP
0000001FF80000
000001FFFF8000
00000FFFFFE000
00003FFFFFF000
0000FFFFFFF800
0001FFFFFFFC00
0007FFFFFFFE00
000FFFFFFFFF00
001FFFFFFFFF80
003FFFFFFFFF80
003FFFE07FFF80
007FFF000FFFC0
00FFFE0007FFC0
00FFFC0007FFC0
01FFF80003FFE0
01FFF00003FFE0
03FFE00003FFE0
03FFE00003FFE0
03FFC00001FFE0
03FFC00001FFE0
07FFC00001FFE0
07FFC00003FFE0
07FF800003FFE0
07FF800003FFE0
07FF800003FFE0
07FF800003FFE0
07FFC00003FFE0
07FFC00003FFC0
07FFE00007FFC0
07FFF0003FFFC0
03FFFC01FFFFC0
03FFFFFFFFFFC0
03FFFFFFFFFFC0
01FFFFFFFFFF80
01FFFFFFFFFF80
00FFFFFFFFFF80
007FFFFFFFFF80
003FFFFFFFFF00
000FFFFFDFFF00
0003FFFF1FFF00
00003FF01FFE00
000000003FFE00
000000003FFE00
000000007FFC00
000000007FFC00
00000000FFF800
00000000FFF800
00000001FFF000
00000003FFF000
00000007FFE000
0000000FFFE000
0000001FFFC000
0000007FFF8000
000003FFFF0000
00007FFFFE0000
3FFFFFFFFC0000
3FFFFFFFF80000
3FFFFFFFF00000
3FFFFFFFE00000
7FFFFFFF800000
7FFFFFFE000000
7FFFFFF8000000
7FFFFFC0000000
7FFFFE00000000
FFFF0000000000
ENDCHAR
STARTCHAR 003A
ENCODING 58
SWIDTH 550 0
DWIDTH 55 0
BBX 25 51 15 -1
BITMAP
0007E000
001FF800
003FFC00
007FFE00
00FFFF00
00FFFF00
01FFFF00
01FFFF80
01FFFF80
01FFFF80
01FFFF00
01FFFF00
00FFFF00
00FFFE00
007FFC00
003FF800
001FF000
00000000
00000000
00000000
00000000
00000000
00000000
00000000
00000000
00000000
00000000
00000000
00000000
00000000
00000000
00000000
00000000
00000000
07F80000
0FFE0000
1FFF0000
3FFF8000
7FFF8000
7FFF8000
FFFFC000
FFFFC000
FFFFC000
FFFFC000
FFFF8000
7FFF8000
7FFF8000
3FFF0000
3FFE0000
0FFC0000
07F00000
ENDCHAR
STARTCHAR 003B
ENCODING 59
SWIDTH 550 0
DWIDTH 55 0
BBX 37 67 3 -17
BITMAP
0000007E00
000001FF80
000003FFC0
000007FFE0
00000FFFF0
00000FFFF0
00001FFFF0
00001FFFF8
00001FFFF8
00001FFFF8
00001FFFF0
00001FFFF0
00000FFFF0
00000FFFE0
000007FFC0
000003FF80
000001FF00
0000000000
0000000000
0000000000
0000000000
0000000000
0000000000
0000000000
0000000000
0000000000
0000000000
0000000000
0000000000
0000000000
0000000000
0000000000
00003FC000
00007FE000
0000FFF000
0001FFF800
0003FFFC00
0003FFFC00
0007FFFC00
0007FFFC00
0007FFFE00
0007FFFE00
0007FFFE00
0003FFFE00
0003FFFE00
0001FFFC00
0001FFFC00
0000FFFC00
0000FFFC00
0000FFF800
00007FF800
0000FFF800
0000FFF000
0000FFF000
0001FFE000
0003FFC000
000FFFC000
001FFF8000
00FFFF0000
FFFFFE0000
FFFFFC0000
FFFFF00000
FFFFE00000
FFFF800000
FFFE000000
FFF0000000
FF00000000
ENDCHAR
STARTCHAR 003C
ENCODING 60
SWIDTH 550 0
DWIDTH 55 0
BBX 43 55 6 -1
BITMAP
000000000C00
000000001E00
000000007E00
00000000FF00
00000003FF80
00000007FFC0
0000000FFFE0
0000003FFFE0
0000007FFFE0
000001FFFFC0
000003FFFF00
000007FFFE00
00001FFFF800
00003FFFF000
00007FFFE000
0001FFFF8000
0003FFFF0000
000FFFFC0000
001FFFF80000
003FFFE00000
00FFFFC00000
01FFFF800000
07FFFE000000
0FFFFC000000
1FFFF0000000
7FFFE0000000
FFFF80000000
FFFF00000000
7FFF00000000
3FFF80000000
1FFFC0000000
0FFFE0000000
07FFF0000000
03FFF8000000
01FFFC000000
00FFFE000000
007FFF000000
003FFF800000
001FFFC00000
000FFFE00000
0007FFF00000
0003FFF80000
0001FFFC0000
0000FFFE0000
00007FFF0000
00003FFF8000
00001FFFC000
00000FFFE000
000007FFE000
000003FFC000
000001FF8000
000000FF0000
0000007C0000
000000380000
000000100000
ENDCHAR
STARTCHAR 003D
ENCODING 61
SWIDTH 550 0
DWIDTH 55 0
BBX 48 29 4 12
BITMAP
03FFFFFFFFFF
07FFFFFFFFFE
07FFFFFFFFFE
07FFFFFFFFFE
07FFFFFFFFFE
07FFFFFFFFFE
0FFFFFFFFFFC
0FFFFFFFFFFC
0FFFFFFFFFFC
000000000000
000000000000
000000000000
000000000000
000000000000
000000000000
000000000000
000000000000
000000000000
000000000000
3FFFFFFFFFF0
3FFFFFFFFFF0
7FFFFFFFFFE0
7FFFFFFFFFE0
7FFFFFFFFFE0
7FFFFFFFFFE0
7FFFFFFFFFE0
FFFFFFFFFFC0
FFFFFFFFFFC0
FFFFFFFFFFC0
ENDCHAR
STARTCHAR 003E
ENCODING 62
SWIDTH 550 0
DWIDTH 55 0
BBX 44 55 6 -1
BITMAP
000180000000
0003C0000000
0007E0000000
000FF0000000
001FF8000000
007FFC000000
00FFFE000000
00FFFF000000
007FFF800000
003FFFC00000
001FFFE00000
000FFFF00000
0007FFF80000
0003FFFC0000
0001FFFE0000
0000FFFF0000
00007FFF8000
00003FFFC000
00001FFFE000
00000FFFF000
000007FFF800
000003FFFC00
000001FFFE00
000000FFFF00
0000007FFF80
0000003FFFC0
0000001FFFE0
0000001FFFF0
0000003FFFE0
000000FFFFC0
000001FFFF80
000003FFFE00
00000FFFFC00
00001FFFF000
00007FFFE000
0000FFFFC000
0001FFFF0000
0007FFFE0000
000FFFF80000
003FFFF00000
007FFFE00000
01FFFF800000
03FFFF000000
07FFFE000000
1FFFF8000000
3FFFF0000000
FFFFC0000000
FFFF80000000
7FFF00000000
3FFC00000000
1FF800000000
1FE000000000
0FC000000000
078000000000
020000000000
ENDCHAR
STARTCHAR 003F
ENCODING 63
SWIDTH 550 0
DWIDTH 55 0
BBX 40 70 12 -1
BITMAP
003FF00000
003FFF8000
003FFFF000
003FFFFC00
003FFFFF00
007FFFFF80
007FFFFFC0
007FFFFFE0
007FFFFFF0
007FFFFFF8
00FFFFFFFC
00007FFFFC
000007FFFC
000001FFFE
000000FFFE
0000007FFE
0000003FFE
0000003FFF
0000003FFF
0000001FFF
0000001FFF
0000001FFF
0000003FFE
0000003FFE
0000003FFE
0000007FFE
0000007FFC
000000FFFC
000001FFFC
000007FFF8
00003FFFF0
00FFFFFFF0
00FFFFFFE0
00FFFFFFC0
00FFFFFF80
00FFFFFF00
00FFFFFC00
01FFFFF000
01FFFFC000
01FFFC0000
01FFC00000
01FFC00000
01FFC00000
03FF800000
03FF800000
03FF800000
03FF000000
03FF000000
03FF000000
0000000000
0000000000
0000000000
0000000000
0000000000
0000000000
07F8000000
1FFC000000
3FFE000000
7FFE000000
7FFF000000
FFFF000000
FFFF000000
FFFF000000
FFFF000000
FFFF000000
7FFE000000
7FFE000000
3FFC000000
1FF8000000
07E0000000
ENDCHAR
STARTCHAR 0040
ENCODING 64
SWIDTH 550 0
DWIDTH 55 0
BBX 60 91 -2 -21
BITMAP
000000000FFC0000
00000000FFFF8000
00000003FFFFE000
0000000FFFFFF000
0000001FFFFFF800
0000007FFFFFFC00
000000FFFFFFFE00
000001FFFFFFFF00
000003FFFE7FFF00
000007FFE007FF80
00000FFF8003FF80
00001FFE0001FFC0
00003FFC0000FFC0
00007FF80000FFC0
0000FFF000007FE0
0000FFE000007FE0
0001FFC000007FE0
0003FF8000003FE0
0003FF0000003FE0
0007FE0000003FE0
000FFE0000003FF0
000FFC0000003FF0
001FFC0000003FF0
001FF80000013FF0
003FF003FE3E3FF0
003FF00FFFFE3FF0
007FE03FFFFE3FF0
007FE07FFFFE3FE0
00FFC0FFFFFC3FE0
00FFC1FFFFFC3FE0
00FF83FFFFFC3FE0
01FF83FFFFF83FE0
01FF07FFFFF87FE0
03FF0FFE1FF87FE0
03FF0FFC1FF87FE0
03FE1FFC1FF07FC0
07FE1FF83FF07FC0
07FE1FF83FF07FC0
07FC3FF03FF0FFC0
0FFC3FF07FE0FFC0
0FFC7FE07FE0FFC0
0FF87FE07FE0FF80
1FF87FE07FC0FF80
1FF87FC0FFC1FF80
1FF0FFC0FFC1FF80
1FF0FFC0FFC1FF00
3FF0FFC0FF83FF00
3FF0FF81FF83FF00
3FE1FF81FF83FE00
3FE1FF81FF83FE00
3FE1FF83FF07FE00
7FE1FF83FF07FC00
7FC1FF87FF0FFC00
7FC1FF07FE0FFC00
7FC1FF07FE0FF800
7FC3FF0FFE1FF800
7FC3FF0FFE3FF000
7FC3FF1FFE3FF000
FFC3FFBFFE7FE000
FFC3FFFFFFFFE000
FF81FFFFFFFFC000
FF81FFFFFFFF8000
FF81FFFEFFFF0000
FF81FFFCFFFE0000
FF80FFF8FFFC0000
FF807FF07FF80000
FF803FC03FF00000
FF800E0007000000
FF80000000000000
FFC0000000000000
FFC0000000000000
FFC0000000000000
FFC0000000000000
7FC0000000000000
7FE0000000000000
7FE0000000000000
7FF0000000000000
7FF0000000000000
3FF800000C000000
3FFC00003C000000
1FFE0001FC000000
1FFF801FFC000000
0FFFFFFFFC000000
0FFFFFFFFC000000
07FFFFFFFC000000
03FFFFFFFC000000
01FFFFFFFC000000
007FFFFFF0000000
001FFFFF80000000
0007FFF800000000
0000080000000000
ENDCHAR
STARTCHAR 0041
ENCODING 65
SWIDTH 550 0
DWIDTH 55 0
BBX 55 64 -5 0
BITMAP
00000000FFFF80
00000001FFFF80
00000001FFFF80
00000003FFFF80
00000003FFFF80
00000007FFFF80
00000007FFFF80
0000000FFFFF80
0000000FFFFFC0
0000001FFFFFC0
0000001FFFFFC0
0000003FFFFFC0
0000003FFFFFC0
0000007FFBFFC0
0000007FFBFFC0
000000FFF3FFC0
000000FFF3FFC0
000001FFE3FFC0
000001FFE1FFC0
000003FFC1FFE0
000003FFC1FFE0
000007FF81FFE0
000007FF81FFE0
00000FFF01FFE0
00000FFF01FFE0
00001FFE01FFE0
00001FFE01FFE0
00003FFC01FFE0
00003FFC01FFE0
00007FFC01FFF0
00007FF801FFF0
0000FFF800FFF0
0000FFF000FFF0
0001FFF000FFF0
0001FFE000FFF0
0003FFE000FFF0
0003FFC000FFF0
0007FFC000FFF0
0007FF8000FFF0
000FFF8000FFF0
000FFF0000FFF8
001FFF0000FFF8
001FFFFFFFFFF8
003FFFFFFFFFF8
003FFFFFFFFFF8
007FFFFFFFFFF8
007FFFFFFFFFF8
00FFFFFFFFFFF8
00FFFFFFFFFFF8
01FFFFFFFFFFF8
01FFFFFFFFFFFC
03FFE000007FFC
03FFC000007FFC
07FFC000007FFC
07FF8000007FFC
0FFF8000007FFC
0FFF0000007FFC
1FFF0000003FFC
1FFE0000003FFC
3FFE0000003FFC
3FFC0000003FFC
7FFC0000003FFE
7FF80000003FFE
FFF80000003FFE
ENDCHAR
STARTCHAR 0042
ENCODING 66
SWIDTH 550 0
DWIDTH 55 0
BBX 53 64 1 0
BITMAP
0007FFFFFC0000
0007FFFFFFE000
0007FFFFFFFC00
000FFFFFFFFF00
000FFFFFFFFF80
000FFFFFFFFFC0
000FFFFFFFFFE0
000FFFFFFFFFE0
001FFFFFFFFFF0
001FFFFFFFFFF0
001FFE000FFFF0
001FFE0003FFF8
001FFC0001FFF8
003FFC0001FFF8
003FFC0000FFF8
003FFC0000FFF0
003FFC0000FFF0
003FFC0001FFF0
007FF80001FFF0
007FF80001FFE0
007FF80003FFE0
007FF80003FFE0
007FF80007FFC0
00FFF0000FFF80
00FFF0001FFF80
00FFF0007FFF00
00FFF00FFFFE00
00FFFFFFFFFC00
01FFFFFFFFF000
01FFFFFFFFE000
01FFFFFFFF0000
01FFFFFFFFE000
01FFFFFFFFF800
03FFFFFFFFFC00
03FFFFFFFFFE00
03FFFFFFFFFF00
03FFC001FFFF00
03FF80003FFF80
07FF80001FFF80
07FF80000FFF80
07FF80000FFF80
07FF80000FFF80
07FF00000FFF80
0FFF00000FFF80
0FFF00000FFF80
0FFF00000FFF80
0FFF00000FFF80
0FFE00001FFF80
1FFE00001FFF00
1FFE00003FFF00
1FFE00007FFF00
1FFE0000FFFE00
1FFC0003FFFC00
3FFC000FFFFC00
3FFFFFFFFFF800
3FFFFFFFFFF000
3FFFFFFFFFE000
3FFFFFFFFFC000
7FFFFFFFFF8000
7FFFFFFFFF0000
7FFFFFFFFC0000
7FFFFFFFF00000
7FFFFFFF800000
FFFFFFF0000000
ENDCHAR
STARTCHAR 0043
ENCODING 67
SWIDTH 550 0
DWIDTH 55 0
BBX 52 66 4 -1
BITMAP
000000007F8000
0000001FFFFF00
000000FFFFFFF0
000007FFFFFFF0
00001FFFFFFFF0
00003FFFFFFFF0
0000FFFFFFFFF0
0001FFFFFFFFE0
0003FFFFFFFFE0
0007FFFFFFFFE0
000FFFFFFFFFE0
001FFFFE003FE0
003FFFF00001C0
003FFFE0000000
007FFF80000000
00FFFF00000000
01FFFE00000000
01FFFC00000000
03FFF800000000
03FFF000000000
07FFE000000000
07FFE000000000
0FFFC000000000
0FFFC000000000
0FFF8000000000
1FFF8000000000
1FFF0000000000
1FFF0000000000
3FFF0000000000
3FFE0000000000
3FFE0000000000
3FFE0000000000
3FFE0000000000
7FFC0000000000
7FFC0000000000
7FFC0000000000
7FFC0000000000
7FFC0000000000
7FFC0000000000
7FFC0000000000
FFFC0000000000
FFF80000000000
FFF80000000000
FFFC0000000000
FFFC0000000000
FFFC0000000000
7FFC0000000000
7FFC0000000000
7FFC0000000000
7FFE0000000000
7FFF0000000000
3FFF0000000000
3FFF800001C000
3FFFE0000FC000
1FFFFC00FFC000
1FFFFFFFFFC000
0FFFFFFFFFC000
0FFFFFFFFFC000
07FFFFFFFFC000
03FFFFFFFFC000
01FFFFFFFFC000
00FFFFFFFFC000
003FFFFFFF8000
000FFFFFFC0000
0003FFFFE00000
00001FFC000000
ENDCHAR
STARTCHAR 0044
ENCODING 68
SWIDTH 550 0
DWIDTH 55 0
BBX 56 64 -1 0
BITMAP
0007FFFFF00000
0007FFFFFFC000
0007FFFFFFF800
000FFFFFFFFE00
000FFFFFFFFF00
000FFFFFFFFF80
000FFFFFFFFFC0
000FFFFFFFFFE0
001FFFFFFFFFF0
001FFFFFFFFFF8
001FFE007FFFF8
001FFE0007FFFC
001FFC0003FFFC
003FFC0000FFFE
003FFC00007FFE
003FFC00007FFE
003FFC00003FFE
003FF800003FFE
007FF800003FFF
007FF800001FFF
007FF800001FFF
007FF800001FFF
007FF000001FFF
00FFF000001FFF
00FFF000001FFF
00FFF000001FFF
00FFF000001FFF
00FFE000001FFF
01FFE000001FFE
01FFE000003FFE
01FFE000003FFE
01FFE000003FFE
01FFC000003FFE
03FFC000003FFE
03FFC000007FFC
03FFC000007FFC
03FFC000007FFC
03FF8000007FFC
07FF800000FFF8
07FF800000FFF8
07FF800001FFF8
07FF800001FFF0
07FF000003FFF0
0FFF000003FFE0
0FFF000007FFE0
0FFF000007FFE0
0FFF00000FFFC0
0FFE00001FFF80
1FFE00003FFF80
1FFE00007FFF00
1FFE0001FFFE00
1FFE0003FFFE00
1FFC000FFFFC00
3FFC00FFFFF800
3FFFFFFFFFF000
3FFFFFFFFFE000
3FFFFFFFFFC000
3FFFFFFFFF0000
7FFFFFFFFE0000
7FFFFFFFF80000
7FFFFFFFE00000
7FFFFFFF000000
FFFFFFF8000000
FFFFFF00000000
ENDCHAR
STARTCHAR 0045
ENCODING 69
SWIDTH 550 0
DWIDTH 55 0
BBX 51 64 4 0
BITMAP
0007FFFFFFFFE0
0007FFFFFFFFE0
000FFFFFFFFFE0
000FFFFFFFFFE0
000FFFFFFFFFC0
000FFFFFFFFFC0
000FFFFFFFFFC0
001FFFFFFFFFC0
001FFFFFFFFF80
001FFFFFFFFF80
001FFE00000000
001FFE00000000
003FFC00000000
003FFC00000000
003FFC00000000
003FFC00000000
003FFC00000000
007FF800000000
007FF800000000
007FF800000000
007FF800000000
007FF800000000
00FFF000000000
00FFF000000000
00FFF000000000
00FFF000000000
01FFFFFFFFF800
01FFFFFFFFF000
01FFFFFFFFF000
01FFFFFFFFF000
01FFFFFFFFF000
03FFFFFFFFF000
03FFFFFFFFE000
03FFFFFFFFE000
03FFFFFFFFE000
03FFFFFFFFE000
07FFC000000000
07FFC000000000
07FF8000000000
07FF8000000000
07FF8000000000
0FFF8000000000
0FFF8000000000
0FFF0000000000
0FFF0000000000
0FFF0000000000
1FFF0000000000
1FFF0000000000
1FFE0000000000
1FFE0000000000
1FFE0000000000
3FFE0000000000
3FFE0000000000
3FFC0000000000
3FFFFFFFFF0000
3FFFFFFFFF0000
7FFFFFFFFF0000
7FFFFFFFFF0000
7FFFFFFFFE0000
7FFFFFFFFE0000
7FFFFFFFFE0000
FFFFFFFFFE0000
FFFFFFFFFE0000
FFFFFFFFFE0000
ENDCHAR
STARTCHAR 0046
ENCODING 70
SWIDTH 550 0
DWIDTH 55 0
BBX 50 64 4 0
BITMAP
0007FFFFFFFFC0
0007FFFFFFFFC0
000FFFFFFFFFC0
000FFFFFFFFFC0
000FFFFFFFFFC0
000FFFFFFFFF80
000FFFFFFFFF80
001FFFFFFFFF80
001FFFFFFFFF80
001FFFFFFFFF80
001FFE00000000
001FFE00000000
003FFE00000000
003FFC00000000
003FFC00000000
003FFC00000000
003FFC00000000
007FFC00000000
007FF800000000
007FF800000000
007FF800000000
007FF800000000
00FFF800000000
00FFF000000000
00FFF000000000
00FFF000000000
01FFF000000000
01FFF000000000
01FFFFFFFFE000
01FFFFFFFFE000
01FFFFFFFFE000
03FFFFFFFFE000
03FFFFFFFFE000
03FFFFFFFFC000
03FFFFFFFFC000
03FFFFFFFFC000
07FFFFFFFFC000
07FFFFFFFFC000
07FF8000000000
07FF8000000000
07FF8000000000
0FFF8000000000
0FFF0000000000
0FFF0000000000
0FFF0000000000
0FFF0000000000
1FFF0000000000
1FFE0000000000
1FFE0000000000
1FFE0000000000
1FFE0000000000
3FFE0000000000
3FFE0000000000
3FFC0000000000
3FFC0000000000
3FFC0000000000
7FFC0000000000
7FFC0000000000
7FF80000000000
7FF80000000000
7FF80000000000
FFF80000000000
FFF80000000000
FFF00000000000
ENDCHAR
STARTCHAR 0047
ENCODING 71
SWIDTH 550 0
DWIDTH 55 0
BBX 55 66 3 -1
BITMAP
00000000FFF000
0000001FFFFF80
000000FFFFFFF8
000007FFFFFFFE
00001FFFFFFFFC
00003FFFFFFFFC
0000FFFFFFFFFC
0001FFFFFFFFFC
0003FFFFFFFFFC
000FFFFFFFFFF8
001FFFFFFFFFF8
001FFFFE001FF8
003FFFF00000F8
007FFFC0000018
00FFFF80000000
01FFFE00000000
01FFFC00000000
03FFF800000000
03FFF000000000
07FFE000000000
07FFE000000000
0FFFC000000000
0FFF8000000000
1FFF8000000000
1FFF0000000000
1FFF0000000000
3FFE0000000000
3FFE0000000000
3FFE001FFFFFC0
7FFC001FFFFFC0
7FFC001FFFFF80
7FFC003FFFFF80
7FF8003FFFFF80
7FF8003FFFFF80
FFF8003FFFFF80
FFF8003FFFFF00
FFF8007FFFFF00
FFF8007FFFFF00
FFF000000FFF00
FFF000000FFF00
FFF000001FFE00
FFF000001FFE00
FFF000001FFE00
FFF000001FFE00
FFF000001FFE00
FFF000003FFC00
FFF800003FFC00
FFF800003FFC00
FFF800003FFC00
FFFC00003FFC00
7FFC00007FF800
7FFE00007FF800
7FFF00007FF800
3FFF80007FF800
3FFFF000FFF800
1FFFFFFFFFF000
1FFFFFFFFFF000
0FFFFFFFFFF000
07FFFFFFFFF000
07FFFFFFFFF000
03FFFFFFFFE000
00FFFFFFFFE000
007FFFFFFFC000
001FFFFFFE0000
0007FFFFF00000
00007FFF000000
ENDCHAR
STARTCHAR 0048
ENCODING 72
SWIDTH 550 0
DWIDTH 55 0
BBX 58 64 0 0
BITMAP
000FFF000003FFC0
000FFF000003FFC0
000FFF000003FFC0
000FFF000003FFC0
000FFF000007FF80
001FFE000007FF80
001FFE000007FF80
001FFE000007FF80
001FFE00000FFF80
001FFE00000FFF00
003FFC00000FFF00
003FFC00000FFF00
003FFC00000FFF00
003FFC00001FFF00
003FFC00001FFE00
007FF800001FFE00
007FF800001FFE00
007FF800001FFE00
007FF800003FFE00
007FF800003FFC00
00FFF000003FFC00
00FFF000003FFC00
00FFF000003FFC00
00FFF000007FFC00
00FFF000007FF800
01FFE000007FF800
01FFFFFFFFFFF800
01FFFFFFFFFFF800
01FFFFFFFFFFF800
01FFFFFFFFFFF000
03FFFFFFFFFFF000
03FFFFFFFFFFF000
03FFFFFFFFFFF000
03FFFFFFFFFFF000
03FFFFFFFFFFE000
07FFFFFFFFFFE000
07FF800001FFE000
07FF800001FFE000
07FF800003FFE000
07FF800003FFC000
0FFF000003FFC000
0FFF000003FFC000
0FFF000003FFC000
0FFF000007FFC000
0FFF000007FF8000
1FFE000007FF8000
1FFE000007FF8000
1FFE000007FF8000
1FFE00000FFF8000
1FFE00000FFF0000
3FFC00000FFF0000
3FFC00000FFF0000
3FFC00000FFF0000
3FFC00001FFF0000
3FFC00001FFE0000
7FF800001FFE0000
7FF800001FFE0000
7FF800001FFE0000
7FF800003FFE0000
7FF800003FFC0000
FFF000003FFC0000
FFF000003FFC0000
FFF000003FFC0000
FFF000007FFC0000
ENDCHAR
STARTCHAR 0049
ENCODING 73
SWIDTH 550 0
DWIDTH 55 0
BBX 53 64 2 0
BITMAP
0007FFFFFFFFF8
0007FFFFFFFFF8
0007FFFFFFFFF8
000FFFFFFFFFF8
000FFFFFFFFFF8
000FFFFFFFFFF0
000FFFFFFFFFF0
000FFFFFFFFFF0
001FFFFFFFFFF0
001FFFFFFFFFF0
0000007FF80000
0000007FF80000
0000007FF80000
0000007FF80000
000000FFF80000
000000FFF00000
000000FFF00000
000000FFF00000
000000FFF00000
000001FFF00000
000001FFE00000
000001FFE00000
000001FFE00000
000001FFE00000
000003FFE00000
000003FFC00000
000003FFC00000
000003FFC00000
000003FFC00000
000007FFC00000
000007FF800000
000007FF800000
000007FF800000
000007FF800000
00000FFF800000
00000FFF000000
00000FFF000000
00000FFF000000
00001FFF000000
00001FFF000000
00001FFE000000
00001FFE000000
00001FFE000000
00003FFE000000
00003FFE000000
00003FFC000000
00003FFC000000
00003FFC000000
00007FFC000000
00007FFC000000
00007FF8000000
00007FF8000000
00007FF8000000
0000FFF8000000
3FFFFFFFFFE000
3FFFFFFFFFC000
3FFFFFFFFFC000
3FFFFFFFFFC000
7FFFFFFFFFC000
7FFFFFFFFFC000
7FFFFFFFFF8000
7FFFFFFFFF8000
7FFFFFFFFF8000
FFFFFFFFFF8000
ENDCHAR
STARTCHAR 004A
ENCODING 74
SWIDTH 550 0
DWIDTH 55 0
BBX 50 65 2 -1
BITMAP
0001FFFFFFFFC0
0003FFFFFFFFC0
0003FFFFFFFF80
0003FFFFFFFF80
0003FFFFFFFF80
0003FFFFFFFF80
0007FFFFFFFF80
0007FFFFFFFF00
0007FFFFFFFF00
0007FFFFFFFF00
000000000FFF00
000000001FFF00
000000001FFE00
000000001FFE00
000000001FFE00
000000001FFE00
000000003FFE00
000000003FFC00
000000003FFC00
000000003FFC00
000000003FFC00
000000007FFC00
000000007FF800
000000007FF800
000000007FF800
000000007FF800
00000000FFF800
00000000FFF000
00000000FFF000
00000000FFF000
00000000FFF000
00000001FFF000
00000001FFF000
00000001FFE000
00000001FFE000
00000001FFE000
00000003FFE000
00000003FFE000
00000003FFC000
00000003FFC000
00000003FFC000
00000007FFC000
00000007FFC000
00000007FF8000
00000007FF8000
0000000FFF8000
0000000FFF8000
0000000FFF0000
0000001FFF0000
0000001FFF0000
0200003FFE0000
0300007FFE0000
078000FFFC0000
0FE003FFFC0000
1FFC0FFFF80000
3FFFFFFFF80000
3FFFFFFFF00000
7FFFFFFFE00000
FFFFFFFFC00000
7FFFFFFF800000
3FFFFFFE000000
1FFFFFFC000000
07FFFFF0000000
00FFFFC0000000
001FFC00000000
ENDCHAR
STARTCHAR 004B
ENCODING 75
SWIDTH 550 0
DWIDTH 55 0
BBX 59 64 1 0
BITMAP
0007FF80000FFFE0
0007FF80001FFFC0
0007FF80003FFF80
000FFF80007FFF00
000FFF0000FFFE00
000FFF0000FFFE00
000FFF0001FFFC00
000FFF0003FFF800
001FFF0007FFF000
001FFE000FFFE000
001FFE001FFFC000
001FFE003FFF8000
001FFE003FFF0000
003FFE007FFE0000
003FFC00FFFC0000
003FFC01FFF80000
003FFC03FFF00000
003FFC07FFF00000
007FFC0FFFE00000
007FF80FFFC00000
007FF81FFF800000
007FF83FFF000000
007FF87FFE000000
00FFF8FFFC000000
00FFF1FFF8000000
00FFF3FFF0000000
00FFF7FFE0000000
00FFF7FFC0000000
01FFFFFF80000000
01FFFFFF00000000
01FFFFFF00000000
01FFFFFE00000000
01FFFFFF00000000
03FFFFFF00000000
03FFDFFF80000000
03FFCFFF80000000
03FFCFFFC0000000
03FFC7FFC0000000
07FFC7FFE0000000
07FF87FFE0000000
07FF83FFE0000000
07FF83FFF0000000
07FF81FFF0000000
0FFF81FFF8000000
0FFF01FFF8000000
0FFF00FFFC000000
0FFF00FFFC000000
0FFF007FFE000000
1FFF007FFE000000
1FFE003FFF000000
1FFE003FFF000000
1FFE003FFF800000
1FFE001FFF800000
3FFE001FFFC00000
3FFC000FFFC00000
3FFC000FFFE00000
3FFC0007FFE00000
3FFC0007FFF00000
7FFC0007FFF00000
7FF80003FFF80000
7FF80003FFF80000
7FF80001FFFC0000
FFF80001FFFC0000
FFF80001FFFE0000
ENDCHAR
STARTCHAR 004C
ENCODING 76
SWIDTH 550 0
DWIDTH 55 0
BBX 41 64 5 0
BITMAP
000FFF800000
000FFF000000
000FFF000000
000FFF000000
000FFF000000
001FFF000000
001FFE000000
001FFE000000
001FFE000000
001FFE000000
003FFE000000
003FFC000000
003FFC000000
003FFC000000
003FFC000000
007FFC000000
007FF8000000
007FF8000000
007FF8000000
007FF8000000
00FFF8000000
00FFF0000000
00FFF0000000
00FFF0000000
00FFF0000000
01FFF0000000
01FFE0000000
01FFE0000000
01FFE0000000
01FFE0000000
03FFE0000000
03FFC0000000
03FFC0000000
03FFC0000000
03FFC0000000
07FFC0000000
07FF80000000
07FF80000000
07FF80000000
07FF80000000
0FFF80000000
0FFF00000000
0FFF00000000
0FFF00000000
0FFF00000000
1FFF00000000
1FFE00000000
1FFE00000000
1FFE00000000
1FFE00000000
3FFE00000000
3FFC00000000
3FFC00000000
3FFC00000000
3FFFFFFFFF80
7FFFFFFFFF00
7FFFFFFFFF00
7FFFFFFFFF00
7FFFFFFFFF00
7FFFFFFFFF00
FFFFFFFFFE00
FFFFFFFFFE00
FFFFFFFFFE00
FFFFFFFFFE00
ENDCHAR
STARTCHAR 004D
ENCODING 77
SWIDTH 550 0
DWIDTH 55 0
BBX 60 64 -3 0
BITMAP
0000FFF80003FFF0
0000FFF80007FFF0
0000FFF80007FFF0
0001FFF8000FFFF0
0001FFFC000FFFF0
0001FFFC001FFFF0
0001FFFC001FFFE0
0003FFFC003FFFE0
0003FFFC003FFFE0
0003FFFC007FFFE0
0003FFFC007FFFE0
0007FFFC00FFFFE0
0007FFFC00FFFFE0
0007FFFC01FFFFC0
0007FFFE01FF7FC0
000FFBFE03FFFFC0
000FFBFE03FEFFC0
000FFBFE07FEFFC0
000FFBFE0FFCFFC0
001FFBFE0FFCFFC0
001FF3FE0FF9FF80
001FF3FE1FF9FF80
001FF1FE1FF1FF80
003FF1FE3FE1FF80
003FF1FE3FE1FF80
003FE1FF7FC1FF80
003FE1FF7FC3FF00
007FE1FFFF83FF00
007FE1FFFF83FF00
007FC1FFFF03FF00
007FC1FFFF03FF00
00FFC1FFFE03FF00
00FFC1FFFE07FF00
00FF80FFFC07FE00
00FF80FFFC07FE00
01FF80FFF807FE00
01FF80FFF807FE00
01FF80FFF007FE00
01FF00FFF00FFE00
03FF00FFE00FFE00
03FF00FFE00FFC00
03FF00FFC00FFC00
03FE00FFC00FFC00
07FE007F800FFC00
07FE007F001FFC00
07FE0000001FFC00
07FC0000001FF800
0FFC0000001FF800
0FFC0000001FF800
0FFC0000001FF800
0FFC0000003FF800
1FF80000003FF800
1FF80000003FF800
1FF80000003FF000
1FF80000003FF000
3FF00000003FF000
3FF00000007FF000
3FF00000007FF000
3FF00000007FF000
7FE00000007FE000
7FE00000007FE000
7FE00000007FE000
7FE0000000FFE000
FFE0000000FFE000
ENDCHAR
STARTCHAR 004E
ENCODING 78
SWIDTH 550 0
DWIDTH 55 0
BBX 58 64 0 0
BITMAP
0007FFE00001FFC0
000FFFE00001FFC0
000FFFE00001FFC0
000FFFF00001FFC0
000FFFF00003FF80
000FFFF00003FF80
001FFFF00003FF80
001FFFF80003FF80
001FFFF80003FF80
001FFFF80007FF00
001FFFF80007FF00
003FFFFC0007FF00
003FFFFC0007FF00
003FFFFC0007FF00
003FFFFC000FFE00
003FFFFE000FFE00
007FFFFE000FFE00
007FFFFE000FFE00
007FFFFE000FFE00
007FFFFF001FFC00
007FE7FF001FFC00
00FFE7FF001FFC00
00FFE7FF001FFC00
00FFE7FF801FFC00
00FFE3FF803FF800
00FFC3FF803FF800
01FFC3FF803FF800
01FFC3FFC03FF800
01FFC1FFC03FF800
01FFC1FFC07FF000
01FF81FFC07FF000
03FF81FFE07FF000
03FF80FFE07FF000
03FF80FFE07FF000
03FF80FFF0FFE000
03FF00FFF0FFE000
07FF007FF0FFE000
07FF007FF0FFE000
07FF007FF8FFE000
07FF007FF9FFC000
07FE003FF9FFC000
0FFE003FF9FFC000
0FFE003FF9FFC000
0FFE003FFDFFC000
0FFE001FFFFF8000
0FFC001FFFFF8000
1FFC001FFFFF8000
1FFC001FFFFF8000
1FFC000FFFFF8000
1FFC000FFFFF0000
1FF8000FFFFF0000
3FF8000FFFFF0000
3FF80007FFFF0000
3FF80007FFFF0000
3FF80007FFFE0000
3FF00007FFFE0000
7FF00003FFFE0000
7FF00003FFFE0000
7FF00003FFFE0000
7FF00003FFFC0000
7FF00001FFFC0000
FFE00001FFFC0000
FFE00001FFFC0000
FFE00001FFFC0000
ENDCHAR
STARTCHAR 004F
ENCODING 79
SWIDTH 550 0
DWIDTH 55 0
BBX 54 66 2 -1
BITMAP
0000000FFC0000
000000FFFFC000
000007FFFFF000
00001FFFFFFC00
00003FFFFFFE00
0000FFFFFFFF00
0001FFFFFFFF80
0003FFFFFFFFC0
0007FFFFFFFFC0
000FFFFFFFFFE0
001FFFFFFFFFF0
003FFFE01FFFF0
007FFF8007FFF0
007FFF0003FFF8
00FFFC0001FFF8
01FFF80000FFF8
01FFF00000FFF8
03FFF00000FFF8
03FFE000007FF8
07FFC000007FFC
07FFC000007FFC
0FFF8000007FFC
0FFF8000007FFC
0FFF0000007FFC
1FFF0000007FFC
1FFF0000007FF8
1FFE0000007FF8
3FFE0000007FF8
3FFE0000007FF8
3FFC0000007FF8
3FFC000000FFF8
7FFC000000FFF8
7FFC000000FFF8
7FF8000000FFF0
7FF8000000FFF0
7FF8000000FFF0
7FF8000001FFF0
FFF8000001FFF0
FFF8000001FFE0
FFF8000003FFE0
FFF8000003FFE0
FFF8000003FFC0
FFF8000007FFC0
FFF8000007FFC0
FFF800000FFF80
FFF800000FFF80
FFF800001FFF00
FFF800001FFF00
FFF800003FFE00
FFF800007FFE00
FFFC0000FFFC00
7FFC0001FFFC00
7FFE0003FFF800
7FFF0007FFF000
3FFFC01FFFF000
3FFFFFFFFFE000
3FFFFFFFFFC000
1FFFFFFFFF8000
0FFFFFFFFF0000
0FFFFFFFFE0000
07FFFFFFFC0000
03FFFFFFF00000
01FFFFFFE00000
007FFFFF800000
001FFFFC000000
0001FFE0000000
ENDCHAR
STARTCHAR 0050
ENCODING 80
SWIDTH 550 0
DWIDTH 55 0
BBX 53 64 2 0
BITMAP
000FFFFFF00000
000FFFFFFF8000
000FFFFFFFF000
000FFFFFFFFC00
000FFFFFFFFE00
001FFFFFFFFF00
001FFFFFFFFF80
001FFFFFFFFFC0
001FFFFFFFFFE0
001FFFFFFFFFE0
003FFC007FFFF0
003FFC000FFFF0
003FFC0003FFF0
003FFC0001FFF8
003FF80001FFF8
007FF80000FFF8
007FF80000FFF8
007FF80000FFF8
007FF80000FFF8
007FF00000FFF8
00FFF00000FFF8
00FFF00000FFF0
00FFF00000FFF0
00FFF00001FFF0
00FFE00001FFF0
01FFE00003FFE0
01FFE00003FFE0
01FFE00007FFE0
01FFE0000FFFC0
01FFC0001FFFC0
03FFC0003FFF80
03FFC000FFFF80
03FFC003FFFF00
03FFC0FFFFFE00
03FFFFFFFFFC00
07FFFFFFFFF800
07FFFFFFFFF000
07FFFFFFFFE000
07FFFFFFFF8000
07FFFFFFFF0000
0FFFFFFFFC0000
0FFFFFFFE00000
0FFFFFFF000000
0FFF0000000000
1FFE0000000000
1FFE0000000000
1FFE0000000000
1FFE0000000000
1FFE0000000000
3FFE0000000000
3FFC0000000000
3FFC0000000000
3FFC0000000000
3FFC0000000000
7FFC0000000000
7FF80000000000
7FF80000000000
7FF80000000000
7FF80000000000
FFF80000000000
FFF00000000000
FFF00000000000
FFF00000000000
FFF00000000000
ENDCHAR
STARTCHAR 0051
ENCODING 81
SWIDTH 550 0
DWIDTH 55 0
BBX 54 83 2 -18
BITMAP
0000000FFC0000
000000FFFFC000
000007FFFFF000
00001FFFFFFC00
00003FFFFFFE00
0000FFFFFFFF00
0001FFFFFFFF80
0003FFFFFFFFC0
0007FFFFFFFFC0
000FFFFFFFFFE0
001FFFFFFFFFF0
003FFFE01FFFF0
007FFF8007FFF0
007FFF0003FFF8
00FFFC0001FFF8
01FFF80000FFF8
01FFF00000FFF8
03FFF00000FFF8
03FFE000007FF8
07FFC000007FFC
07FFC000007FFC
0FFF8000007FFC
0FFF8000007FFC
0FFF0000007FFC
1FFF0000007FFC
1FFF0000007FF8
1FFE0000007FF8
3FFE0000007FF8
3FFE0000007FF8
3FFC0000007FF8
3FFC000000FFF8
7FFC000000FFF8
7FFC000000FFF8
7FF8000000FFF0
7FF8000000FFF0
7FF8000000FFF0
7FF8000001FFF0
FFF8000001FFF0
FFF8000001FFE0
FFF8000003FFE0
FFF8000003FFE0
FFF8000003FFC0
FFF8000007FFC0
FFF8000007FFC0
FFF800000FFF80
FFF800000FFF80
FFF800001FFF00
FFF800001FFF00
FFF800003FFE00
FFF800007FFE00
FFFC0000FFFC00
7FFC0001FFFC00
7FFE0003FFF800
7FFF0007FFF000
3FFFC01FFFF000
3FFFFFFFFFE000
3FFFFFFFFFC000
1FFFFFFFFF8000
0FFFFFFFFF0000
0FFFFFFFFE0000
07FFFFFFFC0000
03FFFFFFF00000
01FFFFFFE00000
007FFFFF800000
001FFFFC000000
0003FFC0000000
0003FF80000000
0003FFC0000000
0003FFC0000000
0003FFC0000000
0003FFC0004000
0003FFE001C000
0001FFF007E000
0001FFFFFFF000
0001FFFFFFF000
0001FFFFFFF800
0000FFFFFFFC00
00007FFFFFFC00
00007FFFFFFC00
00003FFFFFF800
00000FFFFFE000
000007FFFF8000
000000FFFC0000
ENDCHAR
STARTCHAR 0052
ENCODING 82
SWIDTH 550 0
DWIDTH 55 0
BBX 51 64 1 0
BITMAP
0007FFFFF80000
0007FFFFFFC000
0007FFFFFFF000
000FFFFFFFFC00
000FFFFFFFFF00
000FFFFFFFFF80
000FFFFFFFFF80
000FFFFFFFFFC0
001FFFFFFFFFC0
001FFFFFFFFFE0
001FFE00FFFFE0
001FFE000FFFE0
001FFE0007FFE0
003FFC0003FFE0
003FFC0003FFE0
003FFC0001FFE0
003FFC0001FFE0
003FFC0001FFE0
007FF80001FFE0
007FF80003FFE0
007FF80003FFE0
007FF80003FFC0
007FF80007FFC0
00FFF00007FF80
00FFF0000FFF80
00FFF0003FFF00
00FFF0007FFF00
00FFF003FFFE00
01FFFFFFFFFC00
01FFFFFFFFF800
01FFFFFFFFE000
01FFFFFFFFC000
01FFFFFFFF0000
03FFFFFFFC0000
03FFFFFFE00000
03FFFFFFF00000
03FFFFFFF80000
03FFFFFFFC0000
07FF80FFFC0000
07FF807FFE0000
07FF803FFE0000
07FF801FFF0000
07FF801FFF0000
0FFF001FFF0000
0FFF000FFF8000
0FFF000FFF8000
0FFF000FFF8000
0FFF0007FFC000
1FFE0007FFC000
1FFE0007FFC000
1FFE0007FFE000
1FFE0003FFE000
1FFE0003FFE000
3FFC0003FFE000
3FFC0003FFF000
3FFC0001FFF000
3FFC0001FFF000
3FFC0001FFF800
7FF80001FFF800
7FF80000FFF800
7FF80000FFF800
7FF80000FFFC00
7FF80000FFFC00
FFF000007FFC00
ENDCHAR
STARTCHAR 0053
ENCODING 83
SWIDTH 550 0
DWIDTH 55 0
BBX 53 66 0 -1
BITMAP
00000001FFF000
0000003FFFFFC0
000001FFFFFFF8
00000FFFFFFFF0
00001FFFFFFFF0
00007FFFFFFFF0
0000FFFFFFFFF0
0001FFFFFFFFF0
0003FFFFFFFFE0
0007FFFFFFFFE0
000FFFFFC3FFE0
000FFFF80003E0
001FFFC0000020
001FFF80000000
003FFF00000000
003FFF00000000
003FFE00000000
003FFE00000000
007FFE00000000
007FFE00000000
007FFE00000000
007FFF00000000
003FFF80000000
003FFFC0000000
003FFFF0000000
003FFFF8000000
001FFFFF000000
001FFFFFC00000
000FFFFFF00000
0007FFFFFC0000
0003FFFFFE0000
0001FFFFFF8000
0000FFFFFFE000
00003FFFFFF000
00001FFFFFF800
000007FFFFFC00
000001FFFFFC00
0000003FFFFE00
0000000FFFFF00
00000003FFFF00
00000001FFFF00
000000007FFF80
000000003FFF80
000000003FFF80
000000001FFF80
000000001FFF80
000000001FFF80
000000001FFF80
000000001FFF00
000000001FFF00
000000003FFF00
000000007FFF00
20000000FFFE00
3E000001FFFE00
3FE0000FFFFC00
3FFFFFFFFFFC00
7FFFFFFFFFF800
7FFFFFFFFFF000
7FFFFFFFFFE000
7FFFFFFFFFC000
7FFFFFFFFF0000
FFFFFFFFFE0000
FFFFFFFFF80000
FFFFFFFFE00000
0FFFFFFF000000
003FFFE0000000
ENDCHAR
STARTCHAR 0054
ENCODING 84
SWIDTH 550 0
DWIDTH 55 0
BBX 49 64 10 0
BITMAP
3FFFFFFFFFFF80
7FFFFFFFFFFF80
7FFFFFFFFFFF80
7FFFFFFFFFFF00
7FFFFFFFFFFF00
7FFFFFFFFFFF00
FFFFFFFFFFFF00
FFFFFFFFFFFE00
FFFFFFFFFFFE00
FFFFFFFFFFFE00
00007FF8000000
00007FF8000000
00007FF8000000
0000FFF8000000
0000FFF8000000
0000FFF0000000
0000FFF0000000
0000FFF0000000
0001FFF0000000
0001FFF0000000
0001FFE0000000
0001FFE0000000
0001FFE0000000
0003FFE0000000
0003FFE0000000
0003FFC0000000
0003FFC0000000
0003FFC0000000
0007FFC0000000
0007FFC0000000
0007FF80000000
0007FF80000000
0007FF80000000
000FFF80000000
000FFF80000000
000FFF00000000
000FFF00000000
000FFF00000000
001FFF00000000
001FFF00000000
001FFE00000000
001FFE00000000
001FFE00000000
003FFE00000000
003FFE00000000
003FFC00000000
003FFC00000000
003FFC00000000
007FFC00000000
007FFC00000000
007FF800000000
007FF800000000
007FF800000000
00FFF800000000
00FFF800000000
00FFF000000000
00FFF000000000
00FFF000000000
01FFF000000000
01FFF000000000
01FFE000000000
01FFE000000000
01FFE000000000
03FFE000000000
ENDCHAR
STARTCHAR 0055
ENCODING 85
SWIDTH 550 0
DWIDTH 55 0
BBX 56 65 3 -1
BITMAP
007FF800001FFF
007FF800001FFE
007FF800001FFE
00FFF000001FFE
00FFF000001FFE
00FFF000003FFE
00FFF000003FFC
00FFF000003FFC
01FFE000003FFC
01FFE000003FFC
01FFE000007FFC
01FFE000007FF8
01FFE000007FF8
03FFC000007FF8
03FFC000007FF8
03FFC00000FFF8
03FFC00000FFF0
03FFC00000FFF0
07FF800000FFF0
07FF800000FFF0
07FF800001FFF0
07FF800001FFE0
07FF800001FFE0
0FFF000001FFE0
0FFF000001FFE0
0FFF000003FFC0
0FFF000003FFC0
0FFF000003FFC0
1FFE000003FFC0
1FFE000003FFC0
1FFE000007FF80
1FFE000007FF80
1FFE000007FF80
3FFC000007FF80
3FFC000007FF80
3FFC00000FFF00
3FFC00000FFF00
3FFC00000FFF00
7FF800000FFF00
7FF800000FFF00
7FF800001FFE00
7FF800001FFE00
7FF800001FFE00
FFF000001FFE00
FFF000003FFE00
FFF000003FFC00
FFF000003FFC00
FFF000007FFC00
FFF000007FF800
FFF00000FFF800
FFF80000FFF000
FFF80001FFF000
FFFC0003FFE000
FFFC000FFFE000
7FFF003FFFC000
7FFFFFFFFFC000
7FFFFFFFFF8000
3FFFFFFFFF0000
1FFFFFFFFE0000
1FFFFFFFFC0000
0FFFFFFFF80000
03FFFFFFE00000
01FFFFFF800000
007FFFFE000000
0007FFE0000000
ENDCHAR
STARTCHAR 0056
ENCODING 86
SWIDTH 550 0
DWIDTH 55 0
BBX 55 64 8 0
BITMAP
FFF80000007FFE
FFF80000007FFC
FFF8000000FFFC
FFF8000000FFF8
FFF8000001FFF8
FFF8000001FFF0
FFF8000003FFF0
7FF8000003FFE0
7FF8000007FFE0
7FFC000007FFC0
7FFC00000FFFC0
7FFC00000FFF80
7FFC00001FFF80
7FFC00001FFF00
7FFC00003FFF00
7FFC00003FFE00
3FFC00007FFE00
3FFC00007FFC00
3FFC00007FFC00
3FFC0000FFF800
3FFC0000FFF800
3FFE0001FFF000
3FFE0001FFE000
3FFE0003FFE000
3FFE0003FFC000
3FFE0007FFC000
1FFE0007FF8000
1FFE000FFF8000
1FFE000FFF0000
1FFE001FFF0000
1FFE001FFE0000
1FFE003FFE0000
1FFF003FFC0000
1FFF007FFC0000
1FFF007FF80000
0FFF00FFF80000
0FFF00FFF00000
0FFF01FFF00000
0FFF01FFE00000
0FFF01FFE00000
0FFF03FFC00000
0FFF03FFC00000
0FFF07FF800000
0FFF07FF800000
0FFF0FFF000000
07FF8FFF000000
07FF9FFE000000
07FF9FFE000000
07FFBFFC000000
07FFBFFC000000
07FFFFF8000000
07FFFFF8000000
07FFFFF0000000
07FFFFF0000000
03FFFFE0000000
03FFFFE0000000
03FFFFC0000000
03FFFFC0000000
03FFFF80000000
03FFFF80000000
03FFFF00000000
03FFFF00000000
03FFFE00000000
03FFFE00000000
ENDCHAR
STARTCHAR 0057
ENCODING 87
SWIDTH 550 0
DWIDTH 55 0
BBX 61 64 0 0
BITMAP
007FF00000001FF8
007FF00000001FF8
007FF00000003FF8
007FE00000003FF0
007FE00000003FF0
007FE00000003FF0
007FE00000007FF0
00FFE00000007FE0
00FFE00000007FE0
00FFC00000007FE0
00FFC0000000FFE0
00FFC0000000FFC0
00FFC0000000FFC0
01FFC0000000FFC0
01FFC0000000FFC0
01FF80000001FF80
01FF80000001FF80
01FF80000001FF80
01FF80000001FF80
01FF80000003FF00
03FF801FF003FF00
03FF001FF003FF00
03FF003FF003FE00
03FF003FF007FE00
03FF007FF007FE00
03FF007FF007FE00
03FF00FFF007FC00
07FE00FFF00FFC00
07FE01FFF00FFC00
07FE01FFF80FFC00
07FE03FFF80FF800
07FE03FFF81FF800
07FE07FFF81FF800
07FC07FFF81FF800
0FFC0FFFF81FF000
0FFC0FFFF81FF000
0FFC1FF7F83FF000
0FFC1FF7F83FF000
0FFC3FE7F83FE000
0FF83FE7FC3FE000
0FF87FC7FC7FE000
1FF87FC7FC7FE000
1FF8FF87FC7FC000
1FF8FF87FC7FC000
1FF9FF07FCFFC000
1FF1FF07FCFFC000
1FF3FE07FCFF8000
1FF3FE03FCFF8000
3FF7FC03FCFF8000
3FF7FC03FDFF8000
3FFFF803FFFF0000
3FFFF803FFFF0000
3FFFF003FFFF0000
3FFFF003FFFF0000
3FFFE003FFFE0000
7FFFE003FFFE0000
7FFFC001FFFE0000
7FFF8001FFFE0000
7FFF8001FFFC0000
7FFF0001FFFC0000
7FFF0001FFFC0000
7FFE0001FFF80000
FFFE0001FFF80000
FFFC0001FFF80000
ENDCHAR
STARTCHAR 0058
ENCODING 88
SWIDTH 550 0
DWIDTH 55 0
BBX 64 64 -4 0
BITMAP
0003FFE000007FFF
0003FFE000007FFE
0003FFF00000FFFE
0001FFF00001FFFC
0001FFF00001FFF8
0001FFF80003FFF0
0000FFF80007FFF0
0000FFF80007FFE0
0000FFFC000FFFC0
00007FFC001FFF80
00007FFC003FFF80
00007FFE003FFF00
00003FFE007FFE00
00003FFE00FFFC00
00003FFE00FFFC00
00001FFF01FFF800
00001FFF03FFF000
00001FFF07FFE000
00000FFF87FFE000
00000FFF8FFFC000
000007FF9FFF8000
000007FFDFFF0000
000007FFFFFF0000
000003FFFFFE0000
000003FFFFFC0000
000003FFFFF80000
000001FFFFF80000
000001FFFFF00000
000001FFFFE00000
000000FFFFC00000
000000FFFFC00000
000000FFFF800000
000001FFFF800000
000001FFFFC00000
000003FFFFC00000
000007FFFFE00000
00000FFFFFE00000
00000FFFFFE00000
00001FFFFFF00000
00003FFFFFF00000
00007FFFFFF80000
00007FFEFFF80000
0000FFFCFFF80000
0001FFF8FFFC0000
0003FFF07FFC0000
0007FFF07FFC0000
0007FFE07FFE0000
000FFFC03FFE0000
001FFFC03FFF0000
003FFF803FFF0000
003FFF001FFF0000
007FFE001FFF8000
00FFFE001FFF8000
01FFFC000FFFC000
01FFF8000FFFC000
03FFF8000FFFC000
07FFF0000FFFE000
0FFFE00007FFE000
0FFFC00007FFE000
1FFFC00007FFF000
3FFF800003FFF000
7FFF000003FFF800
7FFF000003FFF800
FFFE000001FFF800
ENDCHAR
STARTCHAR 0059
ENCODING 89
SWIDTH 550 0
DWIDTH 55 0
BBX 54 64 8 0
BITMAP
FFF8000000FFFC
7FF8000000FFF8
7FFC000001FFF8
7FFC000003FFF0
3FFC000003FFE0
3FFC000007FFC0
3FFE00000FFFC0
1FFE00000FFF80
1FFE00001FFF00
1FFF00003FFF00
1FFF00003FFE00
0FFF00007FFC00
0FFF0000FFF800
0FFF8001FFF800
07FF8001FFF000
07FF8003FFE000
07FF8007FFE000
03FFC007FFC000
03FFC00FFF8000
03FFC01FFF0000
03FFE01FFF0000
01FFE03FFE0000
01FFE07FFC0000
01FFE07FFC0000
00FFF0FFF80000
00FFF1FFF00000
00FFF1FFF00000
007FF3FFE00000
007FFFFFC00000
007FFFFF800000
007FFFFF800000
003FFFFF000000
003FFFFE000000
003FFFFE000000
001FFFFC000000
001FFFF8000000
001FFFF0000000
000FFFF0000000
000FFFE0000000
000FFFC0000000
000FFFC0000000
0007FF80000000
0007FF80000000
000FFF80000000
000FFF00000000
000FFF00000000
000FFF00000000
000FFF00000000
001FFF00000000
001FFE00000000
001FFE00000000
001FFE00000000
001FFE00000000
003FFE00000000
003FFC00000000
003FFC00000000
003FFC00000000
003FFC00000000
007FFC00000000
007FF800000000
007FF800000000
007FF800000000
007FF800000000
00FFF800000000
ENDCHAR
STARTCHAR 005A
ENCODING 90
SWIDTH 550 0
DWIDTH 55 0
BBX 57 64 0 0
BITMAP
0003FFFFFFFFFF80
0003FFFFFFFFFF80
0007FFFFFFFFFF80
0007FFFFFFFFFF80
0007FFFFFFFFFF00
0007FFFFFFFFFF00
0007FFFFFFFFFF00
000FFFFFFFFFFF00
000FFFFFFFFFFF00
000FFFFFFFFFFE00
000FFFFFFFFFFE00
0000000001FFFC00
0000000003FFF800
0000000007FFF000
000000000FFFE000
000000000FFFC000
000000001FFFC000
000000003FFF8000
000000007FFF0000
00000000FFFE0000
00000001FFFC0000
00000003FFF80000
00000003FFF00000
00000007FFE00000
0000000FFFE00000
0000001FFFC00000
0000003FFF800000
0000007FFF000000
000000FFFE000000
000000FFFC000000
000001FFF8000000
000003FFF8000000
000007FFF0000000
00000FFFE0000000
00001FFFC0000000
00003FFF80000000
00003FFF00000000
00007FFE00000000
0000FFFE00000000
0001FFFC00000000
0003FFF800000000
0007FFF000000000
000FFFE000000000
000FFFC000000000
001FFF8000000000
003FFF0000000000
007FFF0000000000
00FFFE0000000000
01FFFC0000000000
03FFF80000000000
03FFF00000000000
07FFE00000000000
0FFFC00000000000
1FFFFFFFFFFE0000
3FFFFFFFFFFE0000
3FFFFFFFFFFE0000
3FFFFFFFFFFC0000
7FFFFFFFFFFC0000
7FFFFFFFFFFC0000
7FFFFFFFFFFC0000
7FFFFFFFFFFC0000
7FFFFFFFFFF80000
FFFFFFFFFFF80000
FFFFFFFFFFF80000
ENDCHAR
STARTCHAR 005B
ENCODING 91
SWIDTH 550 0
DWIDTH 55 0
BBX 44 90 6 -19
BITMAP
00003FFFFFF0
00003FFFFFE0
00003FFFFFE0
00007FFFFFE0
00007FFFFFE0
00007FFFFFE0
00007FFFFFE0
00007FFFFFC0
0000FFFFFFC0
0000FFE00000
0000FFE00000
0000FFE00000
0000FFE00000
0001FFC00000
0001FFC00000
0001FFC00000
0001FFC00000
0001FFC00000
0003FF800000
0003FF800000
0003FF800000
0003FF800000
0003FF800000
0007FF000000
0007FF000000
0007FF000000
0007FF000000
0007FF000000
000FFE000000
000FFE000000
000FFE000000
000FFE000000
000FFE000000
001FFC000000
001FFC000000
001FFC000000
001FFC000000
001FFC000000
003FF8000000
003FF8000000
003FF8000000
003FF8000000
003FF8000000
007FF0000000
007FF0000000
007FF0000000
007FF0000000
007FF0000000
00FFE0000000
00FFE0000000
00FFE0000000
00FFE0000000
00FFE0000000
01FFC0000000
01FFC0000000
01FFC0000000
01FFC0000000
01FFC0000000
03FF80000000
03FF80000000
03FF80000000
03FF80000000
03FF80000000
07FF00000000
07FF00000000
07FF00000000
07FF00000000
07FF00000000
0FFE00000000
0FFE00000000
0FFE00000000
0FFE00000000
0FFE00000000
1FFC00000000
1FFC00000000
1FFC00000000
1FFC00000000
1FFC00000000
3FF800000000
3FF800000000
3FF800000000
3FFFFFE00000
3FFFFFE00000
7FFFFFE00000
7FFFFFE00000
7FFFFFE00000
7FFFFFC00000
7FFFFFC00000
FFFFFFC00000
FFFFFFC00000
ENDCHAR
STARTCHAR 005C
ENCODING 92
SWIDTH 550 0
DWIDTH 55 0
BBX 29 79 15 -10
BITMAP
FFE00000
FFE00000
FFF00000
7FF00000
7FF00000
7FF00000
7FF00000
7FF80000
3FF80000
3FF80000
3FF80000
3FFC0000
1FFC0000
1FFC0000
1FFC0000
1FFE0000
0FFE0000
0FFE0000
0FFE0000
0FFE0000
0FFF0000
07FF0000
07FF0000
07FF0000
07FF8000
03FF8000
03FF8000
03FF8000
03FF8000
01FFC000
01FFC000
01FFC000
01FFC000
01FFE000
00FFE000
00FFE000
00FFE000
00FFF000
007FF000
007FF000
007FF000
007FF000
007FF800
003FF800
003FF800
003FF800
003FFC00
001FFC00
001FFC00
001FFC00
001FFC00
000FFE00
000FFE00
000FFE00
000FFE00
000FFF00
0007FF00
0007FF00
0007FF00
0007FF80
0003FF80
0003FF80
0003FF80
0003FF80
0003FFC0
0001FFC0
0001FFC0
0001FFC0
0001FFE0
0000FFE0
0000FFE0
0000FFE0
0000FFE0
00007FF0
00007FF0
00007FF0
00007FF0
00007FF8
00003FF8
ENDCHAR
STARTCHAR 005D
ENCODING 93
SWIDTH 550 0
DWIDTH 55 0
BBX 44 90 4 -19
BITMAP
00003FFFFFF0
00003FFFFFE0
00003FFFFFE0
00007FFFFFE0
00007FFFFFE0
00007FFFFFE0
00007FFFFFC0
00007FFFFFC0
0000FFFFFFC0
00000001FFC0
00000001FFC0
00000003FF80
00000003FF80
00000003FF80
00000003FF80
00000003FF80
00000007FF00
00000007FF00
00000007FF00
00000007FF00
00000007FF00
0000000FFE00
0000000FFE00
0000000FFE00
0000000FFE00
0000000FFE00
0000001FFC00
0000001FFC00
0000001FFC00
0000001FFC00
0000001FFC00
0000003FF800
0000003FF800
0000003FF800
0000003FF800
0000003FF800
0000007FF000
0000007FF000
0000007FF000
0000007FF000
0000007FF000
000000FFE000
000000FFE000
000000FFE000
000000FFE000
000000FFE000
000001FFC000
000001FFC000
000001FFC000
000001FFC000
000001FFC000
000003FF8000
000003FF8000
000003FF8000
000003FF8000
000003FF8000
000007FF0000
000007FF0000
000007FF0000
000007FF0000
000007FF0000
00000FFE0000
00000FFE0000
00000FFE0000
00000FFE0000
00000FFE0000
00001FFC0000
00001FFC0000
00001FFC0000
00001FFC0000
00001FFC0000
00003FF80000
00003FF80000
00003FF80000
00003FF80000
00003FF80000
00007FF00000
00007FF00000
00007FF00000
00007FF00000
00007FF00000
3FFFFFE00000
3FFFFFE00000
7FFFFFE00000
7FFFFFE00000
7FFFFFE00000
7FFFFFC00000
7FFFFFC00000
FFFFFFC00000
FFFFFFC00000
ENDCHAR
STARTCHAR 005E
ENCODING 94
SWIDTH 550 0
DWIDTH 55 0
BBX 46 31 6 33
BITMAP
000000FFC000
000001FFC000
000003FFC000
000003FFE000
000007FFE000
00000FFFF000
00001FFFF000
00001FFFF000
00003FFFF800
00007FEFF800
0000FFCFFC00
0001FF8FFC00
0001FF87FE00
0003FF07FE00
0007FE03FE00
000FFC03FF00
001FFC03FF00
001FF801FF80
003FF001FF80
007FE001FF80
00FFE000FFC0
01FFC000FFC0
01FF80007FE0
03FF00007FE0
07FF00007FF0
0FFE00003FF0
0FFC00003FF0
1FF800003FF8
3FF800001FF8
7FF000001FFC
FFE000000FFC
ENDCHAR
STARTCHAR 005F
ENCODING 95
SWIDTH 550 0
DWIDTH 55 0
BBX 57 9 -9 -20
BITMAP
3FFFFFFFFFFFFF80
3FFFFFFFFFFFFF00
7FFFFFFFFFFFFF00
7FFFFFFFFFFFFF00
7FFFFFFFFFFFFF00
7FFFFFFFFFFFFF00
7FFFFFFFFFFFFE00
FFFFFFFFFFFFFE00
FFFFFFFFFFFFFE00
ENDCHAR
STARTCHAR 0060
ENCODING 96
SWIDTH 550 0
DWIDTH 55 0
BBX 27 13 12 50
BITMAP
FFFF0000
7FFF8000
3FFFC000
0FFFE000
07FFF000
03FFF800
00FFFC00
007FFE00
003FFE00
001FFF00
0007FF80
0003FFC0
0001FFE0
ENDCHAR
STARTCHAR 0061
ENCODING 97
SWIDTH 550 0
DWIDTH 55 0
BBX 50 51 3 0
BITMAP
000003FFFE07C0
00003FFFFFFFC0
0000FFFFFFFF80
0003FFFFFFFF80
0007FFFFFFFF80
000FFFFFFFFF80
003FFFFFFFFF80
007FFFFFFFFF00
00FFFFFFFFFF00
00FFFF801FFF00
01FFFC000FFF00
03FFF8000FFF00
07FFF0000FFE00
07FFE0001FFE00
0FFFC0001FFE00
0FFF80001FFE00
1FFF00001FFE00
1FFF00001FFC00
1FFE00003FFC00
3FFE00003FFC00
3FFE00003FFC00
3FFC00003FFC00
7FFC00003FFC00
7FFC00007FF800
7FF800007FF800
7FF800007FF800
7FF80000FFF800
FFF80000FFF800
FFF80001FFF000
FFF80001FFF000
FFF00003FFF000
FFF00003FFF000
FFF00007FFF000
FFF0000FFFF000
FFF0000FFFE000
FFF8001FFFE000
FFF8003FFFE000
FFF8007FFFE000
FFF800FFFFE000
FFFC03FFFFE000
7FFE07FFFFE000
7FFFFFFFFFE000
7FFFFFFEFFE000
3FFFFFFEFFC000
3FFFFFFCFFC000
1FFFFFF8FFC000
0FFFFFE0FFC000
0FFFFFC0FFC000
03FFFF00FFC000
01FFFC00FFC000
003FF000000000
ENDCHAR
STARTCHAR 0062
ENCODING 98
SWIDTH 550 0
DWIDTH 55 0
BBX 50 70 2 -1
BITMAP
0007FF80000000
0007FF80000000
0007FF80000000
0007FF80000000
0007FF80000000
000FFF00000000
000FFF00000000
000FFF00000000
000FFF00000000
000FFF00000000
001FFE00000000
001FFE00000000
001FFE00000000
001FFE00000000
001FFE00000000
003FFC00000000
003FFC00000000
003FFC00000000
003FFC00F80000
003FF80FFF8000
007FF83FFFE000
007FF8FFFFF800
007FF1FFFFFC00
007FF3FFFFFC00
007FF7FFFFFE00
00FFEFFFFFFF00
00FFFFFFFFFF00
00FFFFFFFFFF80
00FFFFFC7FFF80
00FFFFF01FFF80
01FFFFE00FFF80
01FFFF8007FF80
01FFFF0007FFC0
01FFFE0007FFC0
01FFFC0007FFC0
03FFFC0007FFC0
03FFF80007FFC0
03FFF00007FFC0
03FFF00007FFC0
03FFE00007FFC0
07FFE00007FF80
07FFC00007FF80
07FFC00007FF80
07FF800007FF80
07FF80000FFF80
0FFF00000FFF80
0FFF00000FFF00
0FFF00000FFF00
0FFF00001FFF00
0FFF00001FFF00
1FFE00003FFE00
1FFE00003FFE00
1FFE00007FFE00
1FFE00007FFC00
1FFE0000FFFC00
3FFC0001FFF800
3FFC0003FFF800
3FFC0007FFF000
3FFC000FFFE000
3FFC003FFFC000
7FFFE7FFFFC000
7FFFFFFFFF8000
7FFFFFFFFF0000
7FFFFFFFFE0000
7FFFFFFFF80000
FFFFFFFFF00000
FFFFFFFFC00000
3FFFFFFF000000
03FFFFF8000000
0007FF80000000
ENDCHAR
STARTCHAR 0063
ENCODING 99
SWIDTH 550 0
DWIDTH 55 0
BBX 45 51 6 -1
BITMAP
000001FFFF00
00001FFFFFF8
00007FFFFFF8
0001FFFFFFF8
0007FFFFFFF8
000FFFFFFFF8
001FFFFFFFF0
003FFFFFFFF0
007FFFFFFFF0
00FFFFFFFFF0
01FFFF800FF0
03FFFE0000E0
07FFF8000020
07FFF0000000
0FFFE0000000
0FFFC0000000
1FFF80000000
1FFF00000000
3FFF00000000
3FFE00000000
3FFE00000000
7FFC00000000
7FFC00000000
7FFC00000000
7FF800000000
FFF800000000
FFF800000000
FFF800000000
FFF800000000
FFF800000000
FFF800000000
FFF800000000
FFF800000000
FFF800000000
FFF800000000
FFFC00000000
FFFC00000000
FFFE00000000
7FFF00001800
7FFFC001F800
7FFFFFFFF800
3FFFFFFFF800
3FFFFFFFF800
1FFFFFFFF800
0FFFFFFFF800
07FFFFFFF800
03FFFFFFF800
01FFFFFFF800
007FFFFFE000
000FFFFF0000
0000FFE00000
ENDCHAR
STARTCHAR 0064
ENCODING 100
SWIDTH 550 0
DWIDTH 55 0
BBX 54 70 3 -1
BITMAP
00000000003FFC
00000000003FFC
00000000007FF8
00000000007FF8
00000000007FF8
00000000007FF8
00000000007FF8
0000000000FFF0
0000000000FFF0
0000000000FFF0
0000000000FFF0
0000000000FFF0
0000000001FFE0
0000000001FFE0
0000000001FFE0
0000000001FFE0
0000000001FFE0
0000000003FFC0
0000000003FFC0
000003FFFFFFC0
00003FFFFFFFC0
0000FFFFFFFFC0
0003FFFFFFFF80
0007FFFFFFFF80
000FFFFFFFFF80
003FFFFFFFFF80
007FFFFFFFFF80
00FFFFFFFFFF00
00FFFF801FFF00
01FFFC000FFF00
03FFF8000FFF00
07FFF0000FFF00
07FFE0001FFE00
0FFFC0001FFE00
0FFF80001FFE00
1FFF00001FFE00
1FFF00001FFE00
1FFE00003FFC00
3FFE00003FFC00
3FFE00003FFC00
3FFC00003FFC00
7FFC00003FFC00
7FFC00007FF800
7FF800007FF800
7FF800007FF800
7FF80000FFF800
FFF80000FFF800
FFF80001FFF000
FFF80001FFF000
FFF00003FFF000
FFF00003FFF000
FFF00007FFF000
FFF0000FFFF000
FFF0000FFFE000
FFF8001FFFE000
FFF8003FFFE000
FFF8007FFFE000
FFF800FFFFE000
FFFC03FFFFE000
7FFE07FFFFE000
7FFFFFFFFFE000
7FFFFFFEFFE000
3FFFFFFEFFC000
3FFFFFFCFFC000
1FFFFFF8FFC000
0FFFFFE0FFC000
0FFFFFC0FFC000
03FFFF00FFC000
01FFFC00FFC000
003FF000000000
ENDCHAR
STARTCHAR 0065
ENCODING 101
SWIDTH 550 0
DWIDTH 55 0
BBX 47 52 4 -1
BITMAP
0000003F0000
000007FFF800
00003FFFFF00
0000FFFFFFC0
0001FFFFFFE0
0007FFFFFFF0
000FFFFFFFF8
001FFFFFFFF8
003FFFFFFFFC
007FFF83FFFC
00FFFC007FFE
01FFF8003FFE
03FFF0001FFE
03FFE0001FFE
07FFC0001FFE
07FF80001FFE
0FFF00001FFE
0FFF00001FFE
1FFE00003FFC
1FFE00007FFC
3FFE0003FFF8
3FFC007FFFF8
3FFFFFFFFFF0
3FFFFFFFFFE0
7FFFFFFFFFC0
7FFFFFFFFF80
7FFFFFFFFE00
7FFFFFFFF800
7FFFFFFFC000
FFFFFFFC0000
FFF000000000
FFF000000000
FFF000000000
FFF000000000
FFF000000000
FFF000000000
FFF000000000
7FF800000000
7FF800000000
7FFC00000000
7FFE00000000
3FFF80003E00
3FFFF83FFE00
1FFFFFFFFE00
1FFFFFFFFE00
0FFFFFFFFE00
07FFFFFFFE00
03FFFFFFFE00
01FFFFFFFE00
007FFFFFFE00
001FFFFFF000
0003FFFC0000
ENDCHAR
STARTCHAR 0066
ENCODING 102
SWIDTH 550 0
DWIDTH 55 0
BBX 66 91 -6 -21
BITMAP
000000000000FFF000
00000000000FFFFFC0
00000000003FFFFFC0
0000000000FFFFFFC0
0000000003FFFFFF80
0000000007FFFFFF80
000000000FFFFFFF80
000000001FFFFFFF80
000000003FFFFFFF80
000000007FFFFFFF00
000000007FFF000100
00000000FFFC000000
00000000FFF8000000
00000001FFF0000000
00000001FFE0000000
00000003FFE0000000
00000003FFC0000000
00000003FFC0000000
00000003FFC0000000
00000007FF80000000
00000007FF80000000
00000007FF80000000
00000007FF80000000
00000007FF80000000
0000000FFF00000000
0000000FFF00000000
0000000FFF00000000
0000000FFF00000000
0007FFFFFFFFFFE000
0007FFFFFFFFFFE000
0007FFFFFFFFFFE000
0007FFFFFFFFFFE000
000FFFFFFFFFFFC000
000FFFFFFFFFFFC000
000FFFFFFFFFFFC000
000FFFFFFFFFFFC000
000FFFFFFFFFFF8000
0000003FFC00000000
0000003FFC00000000
0000007FF800000000
0000007FF800000000
0000007FF800000000
0000007FF800000000
0000007FF800000000
000000FFF000000000
000000FFF000000000
000000FFF000000000
000000FFF000000000
000000FFF000000000
000001FFE000000000
000001FFE000000000
000001FFE000000000
000001FFE000000000
000001FFE000000000
000003FFC000000000
000003FFC000000000
000003FFC000000000
000003FFC000000000
000003FFC000000000
000007FF8000000000
000007FF8000000000
000007FF8000000000
000007FF8000000000
000007FF8000000000
00000FFF0000000000
00000FFF0000000000
00000FFF0000000000
00000FFF0000000000
00000FFF0000000000
00001FFE0000000000
00001FFE0000000000
00001FFE0000000000
00001FFE0000000000
00003FFE0000000000
00003FFC0000000000
00003FFC0000000000
00007FFC0000000000
0000FFF80000000000
0001FFF80000000000
0003FFF00000000000
001FFFF00000000000
3FFFFFE00000000000
3FFFFFC00000000000
3FFFFF800000000000
7FFFFF000000000000
7FFFFE000000000000
7FFFFC000000000000
7FFFF0000000000000
7FFFC0000000000000
FFFE00000000000000
020000000000000000
ENDCHAR
STARTCHAR 0067
ENCODING 103
SWIDTH 550 0
DWIDTH 55 0
BBX 51 71 2 -20
BITMAP
000001FFFF03E0
00001FFFFFFFE0
00007FFFFFFFC0
0001FFFFFFFFC0
0003FFFFFFFFC0
0007FFFFFFFFC0
001FFFFFFFFFC0
003FFFFFFFFF80
007FFFFFFFFF80
007FFFC00FFF80
00FFFE0007FF80
01FFFC0007FF80
03FFF80007FF00
03FFF0000FFF00
07FFE0000FFF00
07FFC0000FFF00
0FFF80000FFF00
0FFF80000FFE00
0FFF00001FFE00
1FFF00001FFE00
1FFF00001FFE00
1FFE00001FFE00
3FFE00001FFC00
3FFE00003FFC00
3FFC00003FFC00
3FFC00003FFC00
3FFC00007FFC00
7FFC00007FFC00
7FFC0000FFF800
7FFC0000FFF800
7FF80001FFF800
7FF80001FFF800
7FF80003FFF800
7FF80007FFF000
7FF80007FFF000
7FFC000FFFF000
7FFC001FFFF000
7FFC003FFFF000
7FFC007FFFE000
7FFE01FFFFE000
3FFF03FFFFE000
3FFFFFFFFFE000
3FFFFFFFFFE000
1FFFFFFEFFC000
1FFFFFFDFFC000
0FFFFFF9FFC000
07FFFFF3FFC000
07FFFFE3FFC000
01FFFF83FF8000
00FFFE07FF8000
001FF807FF8000
00000007FF8000
00000007FF0000
0000000FFF0000
0000000FFF0000
0000001FFF0000
0000001FFE0000
0000003FFE0000
0800007FFC0000
1E0000FFFC0000
1FC007FFF80000
3FFFFFFFF80000
3FFFFFFFF00000
7FFFFFFFE00000
7FFFFFFFC00000
FFFFFFFF800000
FFFFFFFF000000
7FFFFFFC000000
1FFFFFF0000000
01FFFF80000000
00008000000000
ENDCHAR
STARTCHAR 0068
ENCODING 104
SWIDTH 550 0
DWIDTH 55 0
BBX 48 69 2 0
BITMAP
0007FF800000
0007FF800000
0007FF800000
0007FF800000
0007FF800000
000FFF000000
000FFF000000
000FFF000000
000FFF000000
000FFF000000
001FFE000000
001FFE000000
001FFE000000
001FFE000000
001FFE000000
003FFC000000
003FFC000000
003FFC000000
003FFC007800
003FF80FFFC0
007FF83FFFF0
007FF8FFFFF8
007FF1FFFFFC
007FF3FFFFFC
007FF7FFFFFE
00FFEFFFFFFE
00FFFFFFFFFF
00FFFFFFFFFF
00FFFFFE3FFF
00FFFFF01FFF
01FFFFE00FFF
01FFFF800FFF
01FFFF000FFF
01FFFE000FFF
01FFFE000FFF
03FFFC000FFF
03FFF8000FFF
03FFF0000FFF
03FFF0000FFF
03FFE0001FFE
07FFE0001FFE
07FFC0001FFE
07FFC0001FFE
07FF80003FFE
07FF80003FFC
0FFF00003FFC
0FFF00003FFC
0FFF00003FFC
0FFF00007FF8
0FFF00007FF8
1FFE00007FF8
1FFE00007FF8
1FFE00007FF8
1FFE0000FFF0
1FFE0000FFF0
3FFC0000FFF0
3FFC0000FFF0
3FFC0000FFF0
3FFC0001FFE0
3FFC0001FFE0
7FF80001FFE0
7FF80001FFE0
7FF80001FFE0
7FF80003FFC0
7FF80003FFC0
FFF00003FFC0
FFF00003FFC0
FFF00003FFC0
FFF00007FF80
ENDCHAR
STARTCHAR 0069
ENCODING 105
SWIDTH 550 0
DWIDTH 55 0
BBX 39 72 8 -1
BITMAP
000001F800
000007FE00
00000FFF00
00001FFF80
00001FFF80
00003FFFC0
00003FFFC0
00003FFFC0
00003FFFC0
00003FFFC0
00003FFF80
00001FFF80
00001FFF00
00000FFE00
000007FC00
0000004000
0000000000
0000000000
0000000000
0000000000
001F800000
03FFFC0000
0FFFFE0000
7FFFFF8000
FFFFFFC000
FFFFFFC000
FFFFFFE000
FFFFFFE000
FFFFFFE000
FFFFFFF000
FE03FFF000
F001FFF000
C001FFF000
0000FFF000
0000FFF000
0001FFF000
0001FFF000
0001FFE000
0001FFE000
0001FFE000
0001FFE000
0003FFE000
0003FFC000
0003FFC000
0003FFC000
0003FFC000
0007FFC000
0007FF8000
0007FF8000
0007FF8000
0007FF8000
000FFF8000
000FFF0000
000FFF0000
000FFF0000
000FFF0000
001FFF0000
001FFF0000
001FFF0000
001FFF0002
001FFF000E
001FFF003E
001FFFC3FE
001FFFFFFE
000FFFFFFE
000FFFFFFE
000FFFFFFE
0007FFFFFE
0003FFFFFE
0001FFFFF8
00007FFFC0
00001FFC00
ENDCHAR
STARTCHAR 006A
ENCODING 106
SWIDTH 550 0
DWIDTH 55 0
BBX 56 91 -5 -21
BITMAP
000000000003E0
00000000000FF8
00000000003FFC
00000000007FFE
00000000007FFE
0000000000FFFF
0000000000FFFF
0000000000FFFF
0000000000FFFF
0000000000FFFF
0000000000FFFE
00000000007FFE
00000000007FFC
00000000003FF8
00000000001FF0
00000000000100
00000000000000
00000000000000
00000000000000
00000000000000
00000000FE0000
0000007FFFF000
000003FFFFFC00
00001FFFFFFE00
00007FFFFFFF00
00007FFFFFFF80
00007FFFFFFF80
00007FFFFFFFC0
00007FFFFFFFC0
00007FFFFFFFC0
00007FC007FFC0
00007E0003FFC0
0000700003FFC0
0000000003FFC0
0000000003FFC0
0000000003FFC0
0000000003FFC0
0000000003FFC0
0000000007FFC0
0000000007FF80
0000000007FF80
0000000007FF80
0000000007FF80
000000000FFF80
000000000FFF00
000000000FFF00
000000000FFF00
000000000FFF00
000000001FFF00
000000001FFE00
000000001FFE00
000000001FFE00
000000001FFE00
000000003FFE00
000000003FFC00
000000003FFC00
000000003FFC00
000000003FFC00
000000007FFC00
000000007FF800
000000007FF800
000000007FF800
000000007FF800
00000000FFF800
00000000FFF000
00000000FFF000
00000000FFF000
00000000FFF000
00000001FFF000
00000001FFE000
00000001FFE000
00000001FFE000
00000003FFE000
00000003FFC000
00000003FFC000
00000007FFC000
00000007FF8000
0100000FFF8000
0380001FFF0000
07C0003FFF0000
0FF000FFFE0000
1FFC03FFFE0000
1FFFFFFFFC0000
3FFFFFFFF80000
7FFFFFFFF00000
FFFFFFFFE00000
7FFFFFFFC00000
3FFFFFFF800000
0FFFFFFE000000
03FFFFF8000000
007FFFC0000000
ENDCHAR
STARTCHAR 006B
ENCODING 107
SWIDTH 550 0
DWIDTH 55 0
BBX 50 69 2 0
BITMAP
0007FF80000000
0007FF80000000
0007FF80000000
0007FF80000000
0007FF80000000
000FFF00000000
000FFF00000000
000FFF00000000
000FFF00000000
000FFF00000000
001FFE00000000
001FFE00000000
001FFE00000000
001FFE00000000
001FFE00000000
003FFC00000000
003FFC00000000
003FFC00000000
003FFC00FC0000
003FF80FFFC000
007FF83FFFF000
007FF8FFFFFC00
007FF1FFFFFE00
007FF3FFFFFF00
007FF7FFFFFF00
00FFEFFFFFFF80
00FFFFFFFFFF80
00FFFFFFFFFFC0
00FFFFF80FFFC0
00FFFFE007FFC0
01FFFFC003FFC0
01FFFF8003FFC0
01FFFF0003FFC0
01FFFE0003FFC0
01FFFC0003FFC0
03FFF80003FFC0
03FFF00007FF80
03FFF0000FFF80
03FFE0001FFF80
03FFE0003FFF00
07FFC000FFFF00
07FFC003FFFE00
07FF803FFFFC00
07FF87FFFFF800
07FFBFFFFFF000
0FFF1FFFFFE000
0FFF1FFFFF8000
0FFF0FFFFE0000
0FFF0FFFF00000
0FFF07FFC00000
1FFE07FFC00000
1FFE03FFE00000
1FFE01FFF00000
1FFE01FFF00000
1FFE00FFF80000
3FFC00FFFC0000
3FFC007FFC0000
3FFC007FFE0000
3FFC003FFE0000
3FFC001FFF0000
7FF8001FFF8000
7FF8000FFF8000
7FF8000FFFC000
7FF80007FFE000
7FF80007FFE000
FFF00003FFF000
FFF00003FFF800
FFF00001FFF800
FFF00000FFFC00
ENDCHAR
STARTCHAR 006C
ENCODING 108
SWIDTH 550 0
DWIDTH 55 0
BBX 35 70 10 -1
BITMAP
001FFE0000
001FFE0000
001FFE0000
001FFE0000
001FFE0000
003FFC0000
003FFC0000
003FFC0000
003FFC0000
003FFC0000
007FF80000
007FF80000
007FF80000
007FF80000
007FF80000
00FFF00000
00FFF00000
00FFF00000
00FFF00000
00FFF00000
01FFE00000
01FFE00000
01FFE00000
01FFE00000
01FFE00000
03FFC00000
03FFC00000
03FFC00000
03FFC00000
03FFC00000
07FF800000
07FF800000
07FF800000
07FF800000
07FF800000
0FFF000000
0FFF000000
0FFF000000
0FFF000000
0FFF000000
1FFE000000
1FFE000000
1FFE000000
1FFE000000
1FFE000000
3FFC000000
3FFC000000
3FFC000000
3FFC000000
3FFC000000
7FF8000000
7FF8000000
7FF8000000
7FF8000000
7FF8000000
7FF8000000
FFF8000000
FFF80000E0
FFF80007E0
FFFC003FE0
7FFF03FFE0
7FFFFFFFE0
7FFFFFFFE0
7FFFFFFFE0
3FFFFFFFE0
3FFFFFFFE0
1FFFFFFF80
0FFFFFFE00
03FFFFE000
007FFE0000
ENDCHAR
STARTCHAR 006D
ENCODING 109
SWIDTH 550 0
DWIDTH 55 0
BBX 57 51 -2 0
BITMAP
0000000800018000
00FF80FF801FF800
00FF81FFE03FFC00
00FF87FFE07FFE00
00FF8FFFF0FFFF00
00FF9FFFF1FFFF00
01FF9FFFF3FFFF00
01FFBFFFF7FFFF00
01FFFFFFFFFFFF80
01FFFFFFFFFFFF80
01FFFF1FFFE3FF80
01FFFE1FFFC3FF80
01FFFC1FFF83FF80
01FFF81FFF03FF00
01FFF01FFF03FF00
03FFF03FFE03FF00
03FFE03FFC03FF00
03FFC03FFC03FF00
03FFC03FF807FF00
03FF803FF807FE00
03FF803FF007FE00
03FF807FF007FE00
03FF007FF007FE00
07FF007FE00FFE00
07FF007FE00FFC00
07FE007FE00FFC00
07FE00FFC00FFC00
07FE00FFC00FFC00
0FFE00FFC01FFC00
0FFC00FFC01FF800
0FFC00FFC01FF800
0FFC01FFC01FF800
0FFC01FF801FF800
1FFC01FF803FF800
1FF801FF803FF000
1FF803FF803FF000
1FF803FF803FF000
1FF803FF003FF000
3FF803FF007FF000
3FF003FF007FE000
3FF007FF007FE000
3FF007FF007FE000
3FF007FE00FFE000
7FF007FE00FFE000
7FF007FE00FFC000
7FE00FFE00FFC000
7FE00FFE00FFC000
7FE00FFC01FFC000
FFE00FFC01FFC000
FFE00FFC01FF8000
FFC01FFC01FF8000
ENDCHAR
STARTCHAR 006E
ENCODING 110
SWIDTH 550 0
DWIDTH 55 0
BBX 48 51 2 0
BITMAP
000000007800
00FFC007FFC0
00FFC03FFFF0
00FFC07FFFF8
00FFC1FFFFFC
00FFC3FFFFFC
00FFC7FFFFFE
00FFCFFFFFFE
01FFDFFFFFFF
01FFFFFFFFFF
01FFFFFE3FFF
01FFFFF01FFF
01FFFFE00FFF
01FFFFC00FFF
01FFFF800FFF
01FFFF000FFF
01FFFE000FFF
03FFFC000FFF
03FFF8000FFF
03FFF8000FFF
03FFF0000FFF
03FFE0001FFE
03FFE0001FFE
03FFC0001FFE
07FFC0001FFE
07FFC0003FFE
07FF80003FFC
07FF80003FFC
07FF80003FFC
0FFF00003FFC
0FFF00007FF8
0FFF00007FF8
0FFF00007FF8
0FFE00007FF8
1FFE00007FF8
1FFE0000FFF0
1FFE0000FFF0
1FFE0000FFF0
1FFE0000FFF0
3FFC0000FFF0
3FFC0001FFE0
3FFC0001FFE0
3FFC0001FFE0
3FFC0001FFE0
7FF80001FFE0
7FF80003FFC0
7FF80003FFC0
7FF80003FFC0
7FF80003FFC0
FFF00003FFC0
FFF00007FF80
ENDCHAR
STARTCHAR 006F
ENCODING 111
SWIDTH 550 0
DWIDTH 55 0
BBX 49 52 3 -1
BITMAP
0000001F000000
000007FFFC0000
00003FFFFF0000
0000FFFFFFC000
0003FFFFFFE000
0007FFFFFFF000
001FFFFFFFF800
003FFFFFFFFC00
007FFFFFFFFE00
00FFFFFFFFFE00
01FFFFFFFFFF00
01FFFE00FFFF00
03FFF8003FFF00
07FFF0001FFF80
07FFE0000FFF80
0FFFC0000FFF80
0FFF80000FFF80
1FFF000007FF80
1FFF000007FF80
3FFE000007FF80
3FFE000007FF80
3FFC000007FF80
7FFC000007FF80
7FFC000007FF80
7FF800000FFF80
FFF800000FFF80
FFF800000FFF80
FFF800000FFF00
FFF000000FFF00
FFF000001FFF00
FFF000001FFF00
FFF000003FFE00
FFF000003FFE00
FFF000007FFE00
FFF000007FFC00
FFF80000FFFC00
FFF80001FFF800
FFF80001FFF800
FFFC0003FFF000
FFFE000FFFE000
7FFF001FFFE000
7FFFE0FFFFC000
7FFFFFFFFF8000
3FFFFFFFFF0000
1FFFFFFFFE0000
1FFFFFFFFC0000
0FFFFFFFF80000
07FFFFFFE00000
03FFFFFFC00000
00FFFFFF000000
003FFFFC000000
0007FFC0000000
ENDCHAR
STARTCHAR 0070
ENCODING 112
SWIDTH 550 0
DWIDTH 55 0
BBX 54 70 -2 -19
BITMAP
0000000007C000
000FFC007FFC00
000FFC03FFFF00
000FFC07FFFF80
000FFC1FFFFFC0
000FFC3FFFFFE0
000FFC7FFFFFE0
000FFCFFFFFFF0
001FFDFFFFFFF0
001FFFFFFFFFF8
001FFFFFE3FFF8
001FFFFF00FFF8
001FFFFE00FFFC
001FFFFC007FFC
001FFFF8007FFC
001FFFF0007FFC
001FFFE0003FFC
003FFFC0003FFC
003FFF80003FFC
003FFF80003FFC
003FFF00007FFC
003FFE00007FFC
003FFE00007FFC
003FFC00007FFC
007FFC00007FFC
007FFC00007FF8
007FF800007FF8
007FF80000FFF8
007FF80000FFF8
00FFF00000FFF8
00FFF00000FFF0
00FFF00001FFF0
00FFF00001FFF0
00FFF00003FFE0
01FFE00003FFE0
01FFE00007FFC0
01FFE00007FFC0
01FFE0000FFF80
01FFE0001FFF80
03FFC0003FFF00
03FFC000FFFF00
03FFC003FFFE00
03FFFF3FFFFC00
03FFFFFFFFF800
07FFFFFFFFF000
07FFFFFFFFE000
07FFFFFFFFC000
07FFFFFFFF0000
07FFFFFFFC0000
0FFFFFFFF00000
0FFFFFFFC00000
0FFF1FF8000000
0FFF0000000000
0FFF0000000000
1FFE0000000000
1FFE0000000000
1FFE0000000000
1FFE0000000000
1FFE0000000000
3FFC0000000000
3FFC0000000000
3FFC0000000000
3FFC0000000000
3FFC0000000000
7FF80000000000
7FF80000000000
7FF80000000000
7FF80000000000
7FF00000000000
FFF00000000000
ENDCHAR
STARTCHAR 0071
ENCODING 113
SWIDTH 550 0
DWIDTH 55 0
BBX 50 69 3 -18
BITMAP
000003FFFE07C0
00003FFFFFFFC0
0000FFFFFFFF80
0003FFFFFFFF80
0007FFFFFFFF80
000FFFFFFFFF80
003FFFFFFFFF80
007FFFFFFFFF00
00FFFFFFFFFF00
00FFFF801FFF00
01FFFC000FFF00
03FFF8000FFF00
07FFF0000FFE00
07FFE0001FFE00
0FFFC0001FFE00
0FFF80001FFE00
1FFF00001FFE00
1FFF00001FFC00
1FFE00003FFC00
3FFE00003FFC00
3FFE00003FFC00
3FFC00003FFC00
7FFC00003FF800
7FFC00007FF800
7FF800007FF800
7FF800007FF800
7FF80000FFF800
FFF80000FFF000
FFF80001FFF000
FFF80001FFF000
FFF00003FFF000
FFF00003FFF000
FFF00007FFE000
FFF0000FFFE000
FFF0000FFFE000
FFF8001FFFE000
FFF8003FFFE000
FFF8007FFFC000
FFF800FFFFC000
FFFC03FFFFC000
7FFE07FFFFC000
7FFFFFFFFFC000
7FFFFFFFFF8000
3FFFFFFDFF8000
3FFFFFFBFF8000
1FFFFFF3FF8000
0FFFFFE3FF8000
0FFFFFC7FF0000
03FFFF07FF0000
01FFFC07FF0000
003FF00FFF0000
0000000FFF0000
0000000FFE0000
0000001FFE0000
0000001FFE0000
0000001FFE0000
0000001FFE0000
0000001FFE0000
0000003FFC0000
0000003FFC0000
0000003FFC0000
0000003FFC0000
0000003FFC0000
0000007FF80000
0000007FF80000
0000007FF80000
0000007FF80000
0000007FF80000
000000FFF00000
ENDCHAR
STARTCHAR 0072
ENCODING 114
SWIDTH 550 0
DWIDTH 55 0
BBX 49 51 4 0
BITMAP
00000000F80000
00FFC00FFFC000
00FFC03FFFE000
00FF80FFFFF800
00FF81FFFFFC00
01FF83FFFFFE00
01FF87FFFFFE00
01FF8FFFFFFF00
01FF9FFFFFFF00
01FFBFFFFFFF00
01FFFFFE7FFF00
01FFFFF01FFF80
01FFFFE00FFF80
01FFFF800FFF80
01FFFF000FFF80
03FFFF0007FF80
03FFFE000FFF80
03FFFC000FFF00
03FFF8000FFF00
03FFF8000FFF00
03FFF0000FFF00
03FFF000000000
07FFE000000000
07FFE000000000
07FFC000000000
07FFC000000000
07FF8000000000
0FFF8000000000
0FFF8000000000
0FFF0000000000
0FFF0000000000
0FFF0000000000
1FFF0000000000
1FFE0000000000
1FFE0000000000
1FFE0000000000
1FFE0000000000
3FFE0000000000
3FFC0000000000
3FFC0000000000
3FFC0000000000
3FFC0000000000
7FFC0000000000
7FFC0000000000
7FF80000000000
7FF80000000000
7FF80000000000
FFF80000000000
FFF80000000000
FFF00000000000
FFF00000000000
ENDCHAR
STARTCHAR 0073
ENCODING 115
SWIDTH 550 0
DWIDTH 55 0
BBX 44 52 4 -1
BITMAP
0000003F8000
00001FFFFFE0
0000FFFFFFF0
0003FFFFFFF0
000FFFFFFFF0
001FFFFFFFF0
003FFFFFFFF0
007FFFFFFFF0
00FFFFFFFFF0
01FFFF801FF0
01FFFC000070
03FFF0000000
03FFE0000000
03FFE0000000
03FFE0000000
03FFE0000000
03FFE0000000
03FFE0000000
03FFF0000000
03FFFC000000
01FFFF000000
01FFFFE00000
00FFFFFC0000
00FFFFFF8000
007FFFFFE000
003FFFFFF000
001FFFFFFC00
0007FFFFFE00
0001FFFFFE00
00007FFFFF00
00000FFFFF80
000001FFFF80
0000003FFF80
0000001FFF80
0000000FFFC0
00000007FFC0
00000007FFC0
00000007FF80
0000000FFF80
0000000FFF80
E000001FFF80
FC00003FFF00
FFF001FFFF00
FFFFFFFFFE00
FFFFFFFFFE00
FFFFFFFFFC00
FFFFFFFFF800
FFFFFFFFE000
FFFFFFFFC000
FFFFFFFF0000
7FFFFFF80000
01FFFF800000
ENDCHAR
STARTCHAR 0074
ENCODING 116
SWIDTH 550 0
DWIDTH 55 0
BBX 47 66 6 -1
BITMAP
0000001C0000
000003FC0000
00003FFC0000
00003FFC0000
00007FFC0000
00007FF80000
00007FF80000
00007FF80000
0000FFF80000
0000FFF80000
0000FFF00000
0000FFF00000
0000FFF00000
0001FFF00000
0001FFE00000
3FFFFFFFFFFE
3FFFFFFFFFFC
7FFFFFFFFFFC
7FFFFFFFFFFC
7FFFFFFFFFFC
7FFFFFFFFFFC
7FFFFFFFFFF8
FFFFFFFFFFF8
FFFFFFFFFFF8
FFFFFFFFFFF8
0007FF800000
0007FF800000
0007FF800000
000FFF800000
000FFF800000
000FFF000000
000FFF000000
000FFF000000
001FFF000000
001FFF000000
001FFE000000
001FFE000000
001FFE000000
003FFE000000
003FFE000000
003FFC000000
003FFC000000
003FFC000000
007FFC000000
007FFC000000
007FF8000000
007FF8000000
007FF8000000
00FFF8000000
00FFF8000000
00FFF8000000
00FFF8000000
00FFF8000000
00FFF8000000
00FFFC000000
00FFFE001C00
00FFFFFFFC00
007FFFFFFC00
007FFFFFFC00
007FFFFFFC00
003FFFFFFC00
001FFFFFFC00
000FFFFFFC00
0007FFFFFC00
0001FFFFF800
00003FFF0000
ENDCHAR
STARTCHAR 0075
ENCODING 117
SWIDTH 550 0
DWIDTH 55 0
BBX 48 51 5 -1
BITMAP
01FFE0000FFF
03FFC0000FFF
03FFC0000FFE
03FFC0001FFE
03FFC0001FFE
03FFC0001FFE
07FF80001FFE
07FF80001FFC
07FF80003FFC
07FF80003FFC
07FF80003FFC
0FFF00003FFC
0FFF00003FF8
0FFF00007FF8
0FFF00007FF8
0FFF00007FF8
1FFE00007FF8
1FFE00007FF0
1FFE0000FFF0
1FFE0000FFF0
1FFE0000FFF0
3FFC0000FFF0
3FFC0000FFF0
3FFC0001FFE0
3FFC0001FFE0
3FFC0001FFE0
7FF80003FFE0
7FF80003FFE0
7FF80007FFC0
7FF80007FFC0
7FF8000FFFC0
FFF0000FFFC0
FFF0001FFFC0
FFF0003FFFC0
FFF0003FFF80
FFF0007FFF80
FFF000FFFF80
FFF001FFFF80
FFF003FFFF80
FFF80FFFFF80
FFFC1FFFFF80
FFFFFFFFFF80
FFFFFFFBFF80
FFFFFFFBFF00
7FFFFFF3FF00
7FFFFFE3FF00
3FFFFF83FF00
1FFFFF03FF00
0FFFFC03FF00
07FFF003FF00
00FFC0000000
ENDCHAR
STARTCHAR 0076
ENCODING 118
SWIDTH 550 0
DWIDTH 55 0
BBX 48 50 6 0
BITMAP
FFF000001FFF
FFF800001FFF
FFF800001FFF
7FF800001FFF
7FF800001FFE
7FF800001FFE
7FFC00003FFE
7FFC00003FFE
3FFC00003FFE
3FFC00003FFC
3FFC00003FFC
3FFC00003FFC
3FFE00007FFC
1FFE00007FF8
1FFE00007FF8
1FFE0000FFF8
1FFE0000FFF0
1FFF0000FFF0
0FFF0001FFF0
0FFF0001FFE0
0FFF0001FFE0
0FFF0003FFC0
0FFF0003FFC0
07FF8007FFC0
07FF8007FF80
07FF800FFF80
07FF800FFF00
07FF801FFF00
03FFC01FFE00
03FFC03FFC00
03FFC03FFC00
03FFC07FF800
03FFC0FFF800
01FFC1FFF000
01FFE1FFE000
01FFE3FFE000
01FFE7FFC000
01FFEFFF8000
00FFFFFF8000
00FFFFFF0000
00FFFFFE0000
00FFFFFC0000
00FFFFF80000
007FFFF00000
007FFFF00000
007FFFE00000
007FFFC00000
007FFF000000
003FFE000000
003FFC000000
ENDCHAR
STARTCHAR 0077
ENCODING 119
SWIDTH 550 0
DWIDTH 55 0
BBX 55 50 2 0
BITMAP
1FFC0000000FFE
1FFC0000000FFE
1FFC0000000FFE
1FFC0000000FFE
1FFC0000000FFE
1FFC0000000FFE
1FFC0000000FFE
1FFC0000000FFC
1FFC0000001FFC
1FFC0000001FFC
1FFC0000001FFC
1FFC0000001FFC
1FFC0000001FFC
1FF80000001FFC
3FF801FF001FF8
3FF803FF003FF8
3FF803FF803FF8
3FF807FF803FF8
3FF807FF803FF0
3FF80FFF803FF0
3FF80FFF807FF0
3FF81FFF807FF0
3FF81FFFC07FE0
3FF83FFFC07FE0
3FF83FFFC0FFE0
3FF87FFFC0FFE0
3FF87FFFC0FFC0
3FF0FFFFC1FFC0
3FF1FFFFC1FFC0
3FF1FF7FE1FF80
3FF3FF7FE3FF80
7FF3FE7FE3FF00
7FF7FE7FE7FF00
7FF7FC7FE7FF00
7FFFFC7FEFFE00
7FFFF87FEFFE00
7FFFF83FFFFC00
7FFFF03FFFFC00
7FFFF03FFFF800
7FFFE03FFFF800
7FFFE03FFFF000
7FFFC03FFFE000
7FFFC03FFFE000
7FFF803FFFC000
7FFF801FFFC000
7FFF001FFF8000
7FFF001FFF0000
7FFE001FFE0000
FFFE001FFC0000
FFFC001FF80000
ENDCHAR
STARTCHAR 0078
ENCODING 120
SWIDTH 550 0
DWIDTH 55 0
BBX 60 50 -3 0
BITMAP
001FFF800003FFF0
001FFF800003FFF0
000FFFC00007FFE0
000FFFC0000FFFC0
0007FFC0001FFF80
0007FFE0003FFF00
0003FFE0007FFE00
0003FFF000FFFC00
0001FFF000FFF800
0001FFF801FFF000
0000FFF803FFE000
0000FFFC07FFE000
00007FFC0FFFC000
00007FFE1FFF8000
00003FFE3FFF0000
00003FFF7FFE0000
00001FFF7FFC0000
00001FFFFFF80000
00000FFFFFF00000
00000FFFFFE00000
000007FFFFC00000
000007FFFFC00000
000003FFFF800000
000003FFFF000000
000001FFFE000000
000001FFFE000000
000003FFFE000000
000007FFFF000000
00000FFFFF000000
00001FFFFF800000
00003FFFFF800000
00007FFFFFC00000
0000FFFFFFC00000
0001FFFFFFE00000
0003FFF3FFE00000
0007FFE3FFF00000
000FFFC1FFF80000
001FFFC1FFF80000
003FFF80FFFC0000
007FFF00FFFC0000
007FFE007FFE0000
00FFFC007FFE0000
01FFF8003FFF0000
03FFF0003FFF0000
07FFE0001FFF8000
0FFFE0001FFF8000
1FFFC0000FFFC000
3FFF80000FFFC000
7FFF00000FFFE000
FFFE000007FFE000
ENDCHAR
STARTCHAR 0079
ENCODING 121
SWIDTH 550 0
DWIDTH 55 0
BBX 60 70 -6 -21
BITMAP
000FFF000001FFF0
000FFF800001FFF0
000FFF800001FFF0
0007FF800001FFE0
0007FF800001FFE0
0007FF800001FFE0
0007FFC00003FFE0
0007FFC00003FFE0
0003FFC00003FFE0
0003FFC00003FFC0
0003FFC00003FFC0
0003FFC00007FFC0
0003FFE00007FF80
0001FFE00007FF80
0001FFE00007FF80
0001FFE0000FFF00
0001FFE0000FFF00
0001FFF0001FFF00
0000FFF0001FFE00
0000FFF0001FFE00
0000FFF0003FFC00
0000FFF0003FFC00
0000FFF0007FFC00
00007FF8007FF800
00007FF800FFF800
00007FF800FFF000
00007FF801FFF000
00007FF803FFE000
00003FFC03FFC000
00003FFC07FFC000
00003FFC07FF8000
00003FFC0FFF8000
00003FFC1FFF0000
00001FFC1FFE0000
00001FFE3FFE0000
00001FFE3FFC0000
00001FFE7FFC0000
00001FFEFFF80000
00000FFEFFF00000
00000FFFFFF00000
00000FFFFFE00000
00000FFFFFC00000
00000FFFFF800000
000007FFFF800000
000007FFFF000000
000007FFFE000000
000007FFFE000000
000007FFFC000000
000003FFF8000000
000003FFF0000000
000007FFF0000000
000007FFE0000000
00000FFFC0000000
00001FFF80000000
00003FFF00000000
00007FFF00000000
0000FFFE00000000
0001FFFC00000000
0007FFF800000000
000FFFF000000000
FFFFFFE000000000
FFFFFFC000000000
FFFFFF8000000000
FFFFFF0000000000
FFFFFE0000000000
FFFFF80000000000
FFFFF00000000000
FFFFC00000000000
FFFF000000000000
FFF8000000000000
ENDCHAR
STARTCHAR 007A
ENCODING 122
SWIDTH 550 0
DWIDTH 55 0
BBX 50 50 2 0
BITMAP
001FFFFFFFFFC0
001FFFFFFFFFC0
003FFFFFFFFFC0
003FFFFFFFFFC0
003FFFFFFFFF80
003FFFFFFFFF80
003FFFFFFFFF80
007FFFFFFFFF80
007FFFFFFFFF80
007FFFFFFFFF00
007FFFFFFFFE00
00000001FFFC00
00000003FFF800
00000007FFF000
0000000FFFE000
0000001FFFC000
0000003FFF8000
0000007FFF0000
000000FFFE0000
000001FFFC0000
000003FFF80000
000007FFF00000
00000FFFE00000
00001FFFE00000
00001FFFC00000
00003FFF800000
00007FFF000000
0000FFFE000000
0001FFFC000000
0003FFF8000000
0007FFF0000000
000FFFE0000000
001FFFC0000000
003FFF80000000
007FFF00000000
00FFFE00000000
01FFFC00000000
03FFF800000000
07FFF000000000
0FFFFFFFFFE000
1FFFFFFFFFE000
3FFFFFFFFFC000
3FFFFFFFFFC000
3FFFFFFFFFC000
7FFFFFFFFFC000
7FFFFFFFFFC000
7FFFFFFFFF8000
7FFFFFFFFF8000
7FFFFFFFFF8000
FFFFFFFFFF8000
ENDCHAR
STARTCHAR 007B
ENCODING 123
SWIDTH 550 0
DWIDTH 55 0
BBX 46 90 7 -19
BITMAP
000000001FFC
00000000FFFC
00000003FFFC
0000000FFFFC
0000003FFFFC
0000007FFFFC
000000FFFFF8
000001FFFFF8
000001FFFFF8
000003FFFC00
000003FFE000
000007FFC000
000007FF8000
00000FFF0000
00000FFE0000
00000FFE0000
00001FFC0000
00001FFC0000
00001FFC0000
00003FF80000
00003FF80000
00003FF80000
00003FF80000
00003FF00000
00007FF00000
00007FF00000
00007FF00000
00007FF00000
00007FF00000
0000FFE00000
0000FFE00000
0000FFE00000
0001FFE00000
0001FFC00000
0003FFC00000
0007FF800000
000FFF800000
003FFF000000
3FFFFF000000
3FFFFE000000
7FFFFC000000
7FFFF0000000
7FFFC0000000
7FFE00000000
7FFFC0000000
FFFFF0000000
FFFFF0000000
FFFFF8000000
00FFFC000000
003FFC000000
001FFC000000
001FFC000000
001FFC000000
001FFC000000
001FFC000000
001FFC000000
001FFC000000
001FFC000000
001FF8000000
003FF8000000
003FF8000000
003FF8000000
003FF8000000
003FF0000000
007FF0000000
007FF0000000
007FF0000000
007FF0000000
007FE0000000
00FFE0000000
00FFE0000000
00FFE0000000
00FFE0000000
00FFE0000000
00FFE0000000
00FFE0000000
00FFE0000000
00FFE0000000
00FFF0000000
00FFF8000000
00FFFC000000
00FFFFFC0000
007FFFFC0000
007FFFFC0000
003FFFFC0000
003FFFF80000
001FFFF80000
0007FFF80000
0003FFF80000
00007FF80000
ENDCHAR
STARTCHAR 007C
ENCODING 124
SWIDTH 550 0
DWIDTH 55 0
BBX 31 100 13 -20
BITMAP
00000FFE
00000FFE
00000FFE
00001FFC
00001FFC
00001FFC
00001FFC
00003FFC
00003FF8
00003FF8
00003FF8
00003FF8
00007FF8
00007FF0
00007FF0
00007FF0
00007FF0
0000FFF0
0000FFE0
0000FFE0
0000FFE0
0000FFE0
0001FFC0
0001FFC0
0001FFC0
0001FFC0
0001FFC0
0003FF80
0003FF80
0003FF80
0003FF80
0003FF80
0007FF00
0007FF00
0007FF00
0007FF00
0007FF00
000FFE00
000FFE00
000FFE00
000FFE00
000FFE00
001FFC00
001FFC00
001FFC00
001FFC00
001FFC00
003FF800
003FF800
003FF800
003FF800
003FF800
007FF000
007FF000
007FF000
007FF000
007FF000
00FFE000
00FFE000
00FFE000
00FFE000
00FFE000
01FFC000
01FFC000
01FFC000
01FFC000
01FFC000
03FF8000
03FF8000
03FF8000
03FF8000
03FF8000
07FF0000
07FF0000
07FF0000
07FF0000
07FF0000
0FFE0000
0FFE0000
0FFE0000
0FFE0000
0FFE0000
1FFC0000
1FFC0000
1FFC0000
1FFC0000
1FFC0000
3FF80000
3FF80000
3FF80000
3FF80000
3FF80000
7FF00000
7FF00000
7FF00000
7FF00000
7FF00000
FFE00000
FFE00000
FFE00000
ENDCHAR
STARTCHAR 007D
ENCODING 125
SWIDTH 550 0
DWIDTH 55 0
BBX 47 90 2 -19
BITMAP
00003FF00000
00007FFE0000
00007FFF8000
00007FFFE000
00007FFFF000
00007FFFF000
0000FFFFF800
0000FFFFF800
0000FFFFFC00
000001FFFC00
0000007FFC00
0000003FFC00
0000001FFE00
0000001FFE00
0000000FFE00
0000000FFE00
0000000FFC00
0000000FFC00
0000001FFC00
0000001FFC00
0000001FFC00
0000001FFC00
0000001FFC00
0000003FF800
0000003FF800
0000003FF800
0000003FF800
0000003FF000
0000007FF000
0000007FF000
0000007FF000
0000007FF000
0000007FF000
0000007FF000
0000007FF000
0000007FF800
0000007FF800
0000003FFE00
0000003FFFFE
0000003FFFFE
0000001FFFFE
00000007FFFC
00000000FFFC
00000007FFFC
0000001FFFFC
0000003FFFFC
000000FFFFF8
000000FFFFF8
000001FFF800
000003FFE000
000003FFC000
000007FF8000
000007FF0000
000007FF0000
00000FFE0000
00000FFE0000
00000FFE0000
00000FFC0000
00001FFC0000
00001FFC0000
00001FFC0000
00001FFC0000
00001FF80000
00003FF80000
00003FF80000
00003FF80000
00003FF80000
00003FF00000
00007FF00000
00007FF00000
00007FF00000
00007FF00000
0000FFE00000
0000FFE00000
0000FFE00000
0001FFC00000
0003FFC00000
0003FFC00000
0007FF800000
001FFF800000
007FFF000000
7FFFFF000000
7FFFFE000000
7FFFFC000000
7FFFF8000000
7FFFF0000000
FFFFE0000000
FFFF80000000
FFFE00000000
FFF000000000
ENDCHAR
STARTCHAR 007E
ENCODING 126
SWIDTH 550 0
DWIDTH 55 0
BBX 52 22 2 16
BITMAP
001FF000000000
007FFC00000000
01FFFF00000000
03FFFF80003FF0
07FFFFC0003FF0
0FFFFFF0003FF0
1FFFFFF8007FF0
1FFFFFFC007FE0
3FFFFFFE007FE0
3FFFFFFF00FFE0
7FFC7FFF80FFE0
7FF03FFFC1FFC0
7FE00FFFFFFFC0
7FE007FFFFFFC0
FFE003FFFFFF80
FFC001FFFFFF80
FFC000FFFFFF00
FFC0007FFFFE00
FFC0003FFFFC00
0000001FFFF800
00000007FFE000
00000001FF8000
ENDCHAR
STARTCHAR 00A0
ENCODING 160
SWIDTH 550 0
DWIDTH 55 0
BBX 0 0 0 0
BITMAP
ENDCHAR
STARTCHAR 00A1
ENCODING 161
SWIDTH 550 0
DWIDTH 55 0
BBX 27 70 12 -19
BITMAP
00003800
0001FF00
0003FF80
0007FFC0
000FFFC0
000FFFE0
001FFFE0
001FFFE0
001FFFE0
001FFFE0
001FFFE0
000FFFC0
000FFF80
0007FF80
0003FE00
0000F800
00000000
00000000
00000000
00000000
00000000
001FF800
001FF800
001FF800
001FF800
003FF800
003FF800
003FF000
003FF000
007FF000
007FF000
007FF000
007FF000
00FFF000
00FFE000
00FFE000
00FFE000
01FFE000
01FFE000
01FFE000
01FFC000
03FFC000
03FFC000
03FFC000
03FFC000
03FFC000
07FF8000
07FF8000
07FF8000
07FF8000
0FFF8000
0FFF8000
0FFF0000
0FFF0000
1FFF0000
1FFF0000
1FFF0000
1FFF0000
3FFE0000
3FFE0000
3FFE0000
3FFE0000
3FFE0000
7FFE0000
7FFC0000
7FFC0000
7FFC0000
FFFC0000
FFFC0000
FFFC0000
ENDCHAR
STARTCHAR 00A2
ENCODING 162
SWIDTH 550 0
DWIDTH 55 0
BBX 45 85 6 -12
BITMAP
000000000FF8
000000000FF0
000000001FF0
000000001FF0
000000001FE0
000000003FE0
000000003FE0
000000003FC0
000000007FC0
000000007FC0
000000007F80
00000000FF80
00000000FF80
00000000FF00
00000001FF00
00000001FF00
000000FFFE00
00000FFFFFF0
00003FFFFFF8
0001FFFFFFF0
0003FFFFFFF0
000FFFFFFFF0
001FFFFFFFF0
003FFFFFFFF0
007FFFFFFFE0
00FFFFFFFFE0
01FFFF9FFFE0
03FFFC1FF0E0
03FFF81FE000
07FFE03FE000
0FFFC03FE000
0FFF803FC000
1FFF807FC000
1FFF007FC000
1FFE007F8000
3FFE00FF8000
3FFE00FF8000
3FFC00FF0000
7FFC01FF0000
7FFC01FF0000
7FF801FE0000
7FF803FE0000
7FF803FE0000
7FF803FC0000
FFF807FC0000
FFF807FC0000
FFF807F80000
FFF80FF80000
FFF80FF80000
FFFC0FF00000
7FFC1FF00000
7FFE1FF00000
7FFF1FE00000
7FFFBFE03800
3FFFFFE3F800
3FFFFFFFF800
1FFFFFFFF800
1FFFFFFFF800
0FFFFFFFF800
07FFFFFFF800
03FFFFFFF800
01FFFFFFF800
007FFFFFF800
001FFFFFC000
0003FFF80000
0003FE000000
0003FE000000
0003FC000000
0007FC000000
0007FC000000
0007F8000000
000FF8000000
000FF8000000
000FF0000000
001FF0000000
001FF0000000
001FE0000000
003FE0000000
003FE0000000
003FC0000000
007FC0000000
007FC0000000
007F80000000
00FF80000000
00FF80000000
ENDCHAR
STARTCHAR 00A3
ENCODING 163
SWIDTH 550 0
DWIDTH 55 0
BBX 57 65 -1 0
BITMAP
000000001FF80000
00000001FFFF8000
00000007FFFFE000
0000001FFFFFF800
0000007FFFFFFC00
000000FFFFFFFE00
000001FFFFFFFF00
000003FFFFFFFF80
000007FFFFFFFF00
000007FFFFFFFE00
00000FFFF007FC00
00001FFFC001F800
00001FFF0000F000
00003FFE00006000
00003FFE00000000
00003FFC00000000
00007FF800000000
00007FF800000000
00007FF800000000
0000FFF000000000
0000FFF000000000
0000FFF000000000
0000FFF000000000
0000FFE000000000
0001FFE000000000
0001FFE000000000
0001FFE000000000
0001FFE000000000
0001FFC000000000
01FFFFFFFFFC0000
01FFFFFFFFFC0000
03FFFFFFFFFC0000
03FFFFFFFFF80000
03FFFFFFFFF80000
03FFFFFFFFF80000
03FFFFFFFFF80000
07FFFFFFFFF80000
07FFFFFFFFF00000
0007FF0000000000
000FFF0000000000
000FFF0000000000
000FFF0000000000
000FFF0000000000
000FFE0000000000
001FFE0000000000
001FFE0000000000
001FFE0000000000
001FFE0000000000
001FFC0000000000
003FFC0000000000
003FFC0000000000
003FFC0000000000
003FFC0000000000
003FF80000000000
007FF80000000000
3FFFFFFFFFFE0000
7FFFFFFFFFFE0000
7FFFFFFFFFFE0000
7FFFFFFFFFFE0000
7FFFFFFFFFFC0000
7FFFFFFFFFFC0000
FFFFFFFFFFFC0000
FFFFFFFFFFFC0000
FFFFFFFFFFFC0000
FFFFFFFFFFFC0000
ENDCHAR
STARTCHAR 00A4
ENCODING 164
SWIDTH 550 0
DWIDTH 55 0
BBX 60 62 -1 1
BITMAP
0000180000003000
0000F80000003C00
0003FC0000007F00
000FFC000000FF80
003FFE000001FFE0
003FFE000003FFF0
001FFE000007FFF0
001FFF00000FFFE0
000FFF00001FFFC0
000FFF80003FFF80
0007FF9FFF3FFF00
0007FFFFFFFFFE00
0003FFFFFFFFFC00
0001FFFFFFFFF800
0001FFFFFFFFF000
0000FFFFFFFFE000
0000FFFFFFFFC000
0000FFFFFFFF8000
0001FFFFFFFF8000
0001FFFC1FFF8000
0003FFE007FFC000
0003FFC003FFC000
0007FF8003FFC000
0007FF0001FFC000
000FFF0001FFC000
000FFE0001FFC000
001FFE0001FFC000
001FFC0001FFC000
001FFC0001FFC000
001FFC0001FFC000
003FF80001FFC000
003FF80003FF8000
003FF80003FF8000
003FF80003FF8000
003FF80007FF0000
003FF80007FF0000
003FF80007FF0000
003FF8000FFE0000
003FFC001FFE0000
003FFC003FFC0000
003FFE007FFC0000
003FFF01FFF80000
001FFFFFFFF80000
001FFFFFFFF00000
003FFFFFFFE00000
007FFFFFFFF00000
00FFFFFFFFF00000
01FFFFFFFFF80000
01FFFFFFFFF80000
03FFFFFFFFFC0000
07FFFFFFFFFE0000
0FFFC3FC1FFE0000
1FFF80001FFF0000
3FFF00000FFF0000
7FFE00000FFF8000
FFFC000007FFC000
FFF8000007FFC000
3FF8000003FF8000
0FF0000003FE0000
07E0000001F00000
01C0000001C00000
0080000000000000
ENDCHAR
STARTCHAR 00A5
ENCODING 165
SWIDTH 550 0
DWIDTH 55 0
BBX 57 64 4 0
BITMAP
03FFE000001FFF80
03FFE000001FFF00
01FFE000003FFE00
01FFF000007FFC00
01FFF00000FFFC00
00FFF00000FFF800
00FFF80001FFF000
00FFF80003FFE000
007FF80007FFE000
007FFC0007FFC000
003FFC000FFF8000
003FFC001FFF0000
003FFE003FFE0000
001FFE003FFE0000
001FFE007FFC0000
001FFF00FFF80000
000FFF01FFF00000
000FFF01FFE00000
0007FF83FFE00000
0007FF87FFC00000
0007FF87FF800000
0003FFCFFF000000
0003FFDFFF000000
0003FFDFFE000000
0001FFFFFC000000
0001FFFFF8000000
0000FFFFF0000000
0000FFFFF0000000
0000FFFFE0000000
00007FFFC0000000
00007FFF80000000
00007FFF80000000
00003FFF00000000
00003FFE00000000
00003FFC00000000
00003FFC00000000
0FFFFFFFFFF00000
0FFFFFFFFFF00000
1FFFFFFFFFF00000
1FFFFFFFFFE00000
1FFFFFFFFFE00000
1FFFFFFFFFE00000
1FFFFFFFFFE00000
00007FF000000000
0000FFF000000000
0000FFF000000000
0000FFF000000000
0000FFF000000000
0000FFE000000000
0001FFE000000000
7FFFFFFFFF800000
7FFFFFFFFF800000
7FFFFFFFFF800000
FFFFFFFFFF800000
FFFFFFFFFF000000
FFFFFFFFFF000000
FFFFFFFFFF000000
0003FFC000000000
0003FF8000000000
0007FF8000000000
0007FF8000000000
0007FF8000000000
0007FF8000000000
0007FF8000000000
ENDCHAR
STARTCHAR 00A6
ENCODING 166
SWIDTH 550 0
DWIDTH 55 0
BBX 31 100 13 -20
BITMAP
00000FFE
00000FFE
00000FFE
00001FFC
00001FFC
00001FFC
00001FFC
00001FFC
00003FF8
00003FF8
00003FF8
00003FF8
00003FF8
00007FF0
00007FF0
00007FF0
00007FF0
00007FF0
0000FFE0
0000FFE0
0000FFE0
0000FFE0
0000FFE0
0001FFC0
0001FFC0
0001FFC0
0001FFC0
0001FFC0
0003FF80
0003FF80
0003FF80
0003FF80
0003FF80
0007FF00
0007FF00
0007FF00
0007FF00
0007FF00
000FFE00
000FFE00
000FFE00
00000000
00000000
00000000
00000000
00000000
00000000
00000000
00000000
00000000
00000000
00000000
00000000
00000000
00000000
00000000
00000000
00000000
00FFE000
00FFE000
00FFE000
00FFE000
01FFC000
01FFC000
01FFC000
01FFC000
01FFC000
03FF8000
03FF8000
03FF8000
03FF8000
03FF8000
07FF0000
07FF0000
07FF0000
07FF0000
07FF0000
0FFE0000
0FFE0000
0FFE0000
0FFE0000
0FFE0000
1FFC0000
1FFC0000
1FFC0000
1FFC0000
1FFC0000
3FF80000
3FF80000
3FF80000
3FF80000
3FF80000
7FF00000
7FF00000
7FF00000
7FF00000
7FF00000
FFE00000
FFE00000
FFE00000
ENDCHAR
STARTCHAR 00A7
ENCODING 167
SWIDTH 550 0
DWIDTH 55 0
BBX 57 82 -2 -12
BITMAP
000000000FFFC000
00000000FFFFFF00
00000007FFFFFF80
0000001FFFFFFF80
0000007FFFFFFF80
000000FFFFFFFF80
000001FFFFFFFF00
000003FFFFFFFF00
000007FFFFFFFF00
000007FFFC00FF00
00000FFFE0000300
00000FFF80000000
00001FFF00000000
00001FFF00000000
00001FFF00000000
00001FFF00000000
00001FFF00000000
00001FFF00000000
00001FFF80000000
00001FFFC0000000
00000FFFE0000000
00000FFFF0000000
00001FFFFC000000
00007FFFFE000000
0000FFFFFF800000
0001FFFFFFC00000
0003FFFFFFF00000
0007FFFFFFF80000
000FFFFFFFFC0000
001FFFDFFFFE0000
003FFF8FFFFF0000
003FFF03FFFF8000
007FFE01FFFFC000
007FFC007FFFE000
007FFC003FFFE000
00FFF8001FFFF000
00FFF80007FFF000
00FFF80003FFF800
00FFF80001FFF800
00FFF80001FFF800
00FFF80000FFF800
00FFFC0000FFF800
00FFFE00007FF800
00FFFF00007FF800
007FFF80007FF800
007FFFC000FFF800
003FFFE000FFF800
003FFFF801FFF000
001FFFFC01FFF000
000FFFFF03FFF000
0007FFFF87FFE000
0003FFFFEFFFC000
0001FFFFFFFFC000
0000FFFFFFFF8000
00007FFFFFFF0000
00001FFFFFFE0000
00000FFFFFFC0000
000003FFFFF80000
000001FFFFE00000
0000007FFFC00000
0000003FFFC00000
0000001FFFC00000
0000000FFFC00000
00000007FFE00000
00000003FFE00000
00000003FFE00000
00000003FFC00000
00000007FFC00000
00000007FFC00000
0000000FFFC00000
3800001FFF800000
3FC0007FFF800000
3FFFFFFFFF000000
3FFFFFFFFE000000
7FFFFFFFFC000000
7FFFFFFFF8000000
7FFFFFFFF0000000
7FFFFFFFE0000000
7FFFFFFF80000000
FFFFFFFE00000000
07FFFFF000000000
0000600000000000
ENDCHAR
STARTCHAR 00A8
ENCODING 168
SWIDTH 550 0
DWIDTH 55 0
BBX 34 14 18 50
BITMAP
0780003800
1FE000FE00
3FF003FF80
7FF803FF80
7FF807FFC0
FFF807FFC0
FFFC07FFC0
FFFC07FFC0
FFF807FFC0
7FF807FF80
7FF007FF80
3FF003FF00
1FC001FE00
0700003000
ENDCHAR
STARTCHAR 00A9
ENCODING 169
SWIDTH 550 0
DWIDTH 55 0
BBX 54 66 2 -1
BITMAP
0000003FE00000
000003FFFE0000
00000FFFFF8000
00003FFFFFE000
0000FFFFFFF800
0001FFFFFFFC00
0007FFFFFFFE00
000FFFFFFFFF00
001FFF801FFF00
003FFC0007FF80
007FF00001FFC0
007FE00000FFC0
00FFC000007FE0
01FF8000003FE0
03FF0000001FF0
03FE0000001FF0
07FC0007FC0FF0
07FC003FFE0FF8
0FF800FFFE0FF8
0FF003FFFE07F8
1FF007FFFE07F8
1FE00FFFFC07FC
1FE01FFFFC07FC
3FE03FFFFC07FC
3FC03FFC0C03FC
3FC07FF00003FC
7FC0FFE00003FC
7F80FFC00003FC
7F80FFC00003FC
7F81FF800003FC
FF81FF800003FC
FF01FF800003FC
FF03FF000007FC
FF03FF000007FC
FF03FF000007F8
FF03FF000007F8
FF03FF000007F8
FF03FF000007F8
FF03FF00000FF8
FF03FF00000FF8
FF03FF80000FF0
FF03FFE1C01FF0
FF01FFFFC01FF0
FF01FFFFC01FE0
FF01FFFFC03FE0
FF80FFFFC03FE0
FF807FFFC07FC0
FF803FFFC07FC0
7F801FFFC0FF80
7FC003FF01FF80
7FC0000001FF00
7FE0000003FE00
3FE0000007FE00
3FF000000FFC00
1FF800001FF800
1FFC00007FF800
0FFF0000FFF000
0FFFC007FFE000
07FFFFFFFFC000
03FFFFFFFF8000
01FFFFFFFE0000
00FFFFFFFC0000
007FFFFFF00000
001FFFFFC00000
0007FFFF000000
00007FF8000000
ENDCHAR
STARTCHAR 00AA
ENCODING 170
SWIDTH 550 0
DWIDTH 55 0
BBX 40 48 9 17
BITMAP
000003FE03
00003FFFFF
0000FFFFFF
0003FFFFFF
0007FFFFFE
000FFFFFFE
001FFFFFFE
003FFF8FFE
003FFC07FE
007FF007FC
00FFE007FC
00FFC007FC
00FFC00FFC
01FF800FFC
01FF800FF8
01FF800FF8
03FF001FF8
03FF001FF8
03FF003FF8
03FF003FF0
03FF007FF0
03FF007FF0
03FF00FFF0
03FF00FFF0
03FF01FFF0
03FF03FFF0
03FF8FFFE0
03FFFFFFE0
03FFFFFFE0
01FFFFFFE0
01FFFFDFE0
00FFFF9FE0
007FFF1FE0
003FFC1FE0
000FF00000
0000000000
0000000000
0000000000
0000000000
0000000000
7FFFFFFFE0
7FFFFFFFE0
7FFFFFFFE0
7FFFFFFFE0
7FFFFFFFC0
FFFFFFFFC0
FFFFFFFFC0
FFFFFFFFC0
ENDCHAR
STARTCHAR 00AB
ENCODING 171
SWIDTH 550 0
DWIDTH 55 0
BBX 46 40 6 7
BITMAP
0000E0000600
0001F0000F80
0003FC001FC0
0007FF001FF0
000FFF803FFC
001FFF007FF8
001FFE00FFF0
003FFC01FFE0
007FF803FFE0
00FFF807FFC0
01FFF00FFF80
03FFE01FFF00
07FFC01FFE00
07FF803FFC00
0FFF007FF800
1FFE00FFF000
3FFC01FFE000
7FFC03FFE000
FFF807FFC000
FFF007FF8000
7FF003FF8000
7FF003FF8000
7FF803FFC000
3FF801FFC000
3FFC01FFE000
1FFC00FFE000
1FFC00FFF000
0FFE007FF000
0FFE007FF800
07FF003FF800
07FF003FFC00
07FF801FFC00
03FF801FFE00
03FFC00FFE00
01FFC00FFF00
01FFE007FE00
00FF8007F800
00FC0003C000
007000030000
004000000000
ENDCHAR
STARTCHAR 00AC
ENCODING 172
SWIDTH 550 0
DWIDTH 55 0
BBX 45 23 4 8
BITMAP
3FFFFFFFFFF8
3FFFFFFFFFF8
3FFFFFFFFFF8
7FFFFFFFFFF8
7FFFFFFFFFF8
7FFFFFFFFFF0
7FFFFFFFFFF0
7FFFFFFFFFF0
FFFFFFFFFFF0
000000007FF0
000000007FE0
000000007FE0
000000007FE0
00000000FFE0
00000000FFE0
00000000FFC0
00000000FFC0
00000000FFC0
00000001FFC0
00000001FFC0
00000001FF80
00000001FF80
00000001FF80
ENDCHAR
STARTCHAR 00AD
ENCODING 173
SWIDTH 550 0
DWIDTH 55 0
BBX 32 11 12 21
BITMAP
3FFFFFFF
7FFFFFFF
7FFFFFFF
7FFFFFFE
7FFFFFFE
7FFFFFFE
FFFFFFFE
FFFFFFFE
FFFFFFFC
FFFFFFFC
FFFFFFFC
ENDCHAR
STARTCHAR 00AE
ENCODING 174
SWIDTH 550 0
DWIDTH 55 0
BBX 48 48 8 22
BITMAP
00001FFC0000
0000FFFF8000
0003FFFFE000
000FFFFFF800
003FFFFFFE00
007FFFFFFF00
00FFFC1FFF80
01FFC001FFC0
03FF00007FE0
07FC00003FE0
0FF87FFC1FF0
1FF07FFF8FF8
1FE07FFFC7F8
3FC07FFFE3FC
3F807FFFE1FC
7F80FE1FE1FE
7F00FC0FE0FE
7F00FC0FE0FE
FE00FC0FE0FE
FE00FC0FC07F
FE01FC1FC07F
FE01F8FF807F
FC01FFFF007F
FC01FFFE007F
FC01FFF0007F
FC03FFF8007F
FC03F3FC007F
FC03F1FC007F
FE03F0FC00FE
FE03F0FE00FE
FE07F0FE00FE
FE07E0FE01FC
7F07E07E01FC
7F07E07F03FC
7F87E07F07F8
3FCFE07F07F8
3FEFC07F0FF0
1FF000001FE0
0FF800007FE0
0FFC0000FFC0
07FF0003FF80
03FFE01FFF00
01FFFFFFFE00
00FFFFFFF800
003FFFFFF000
001FFFFFC000
0007FFFF0000
0000FFF80000
ENDCHAR
STARTCHAR 00AF
ENCODING 175
SWIDTH 550 0
DWIDTH 55 0
BBX 28 8 21 50
BITMAP
7FFFFFF0
7FFFFFF0
7FFFFFF0
7FFFFFF0
FFFFFFF0
FFFFFFE0
FFFFFFE0
FFFFFFE0
ENDCHAR
STARTCHAR 00B0
ENCODING 176
SWIDTH 550 0
DWIDTH 55 0
BBX 36 34 15 36
BITMAP
0003FFC000
001FFFF000
007FFFFC00
01FFFFFF00
03FFFFFF80
07FFFFFFC0
0FFFFFFFC0
1FFFFFFFE0
1FFFC7FFE0
3FFE01FFF0
3FF8007FF0
7FF0007FF0
7FF0003FF0
FFE0003FF0
FFE0003FF0
FFC0003FF0
FFC0003FF0
FFC0003FF0
FFC0003FF0
FFC0003FF0
FFC0007FF0
FFC0007FE0
FFE000FFE0
FFE001FFE0
FFF003FFC0
7FFC0FFFC0
7FFFFFFF80
3FFFFFFF00
3FFFFFFE00
1FFFFFFC00
0FFFFFF800
07FFFFE000
01FFFF8000
003FFC0000
ENDCHAR
STARTCHAR 00B1
ENCODING 177
SWIDTH 550 0
DWIDTH 55 0
BBX 51 60 2 0
BITMAP
0000001FFC0000
0000001FFC0000
0000001FF80000
0000003FF80000
0000003FF80000
0000003FF80000
0000003FF80000
0000003FF00000
0000007FF00000
0000007FF00000
0000007FF00000
0000007FF00000
0000007FE00000
000000FFE00000
000000FFE00000
000000FFE00000
000000FFE00000
01FFFFFFFFFFE0
03FFFFFFFFFFE0
03FFFFFFFFFFE0
03FFFFFFFFFFE0
03FFFFFFFFFFE0
03FFFFFFFFFFC0
07FFFFFFFFFFC0
07FFFFFFFFFFC0
07FFFFFFFFFFC0
07FFFFFFFFFFC0
000003FF000000
000007FF000000
000007FF000000
000007FF000000
000007FF000000
000007FE000000
00000FFE000000
00000FFE000000
00000FFE000000
00000FFE000000
00000FFC000000
00001FFC000000
00001FFC000000
00001FFC000000
00001FFC000000
00001FF8000000
00003FF8000000
00000000000000
00000000000000
00000000000000
00000000000000
00000000000000
00000000000000
00000000000000
7FFFFFFFFFE000
7FFFFFFFFFE000
7FFFFFFFFFE000
7FFFFFFFFFE000
FFFFFFFFFFC000
FFFFFFFFFFC000
FFFFFFFFFFC000
FFFFFFFFFFC000
FFFFFFFFFFC000
ENDCHAR
STARTCHAR 00B2
ENCODING 178
SWIDTH 550 0
DWIDTH 55 0
BBX 35 39 13 31
BITMAP
00000E0000
0003FFF800
001FFFFE00
007FFFFF00
01FFFFFF80
07FFFFFFC0
03FFFFFFE0
03FFFFFFE0
01FFFFFFE0
00FFFFFFE0
00FC03FFE0
007001FFE0
000001FFE0
000001FFE0
000003FFE0
000003FFE0
000007FFC0
00000FFFC0
00003FFF80
00007FFF00
0000FFFE00
0003FFFC00
0007FFF800
000FFFE000
003FFFC000
007FFF8000
01FFFE0000
03FFF80000
0FFFF00000
1FFFC00000
3FFFFFFF80
7FFFFFFF80
7FFFFFFF80
7FFFFFFF00
7FFFFFFF00
FFFFFFFF00
FFFFFFFF00
FFFFFFFF00
FFFFFFFE00
ENDCHAR
STARTCHAR 00B3
ENCODING 179
SWIDTH 550 0
DWIDTH 55 0
BBX 35 40 12 30
BITMAP
00003F8000
003FFFF800
00FFFFFE00
00FFFFFF80
00FFFFFFC0
00FFFFFFC0
00FFFFFFE0
00FFFFFFE0
00FFFFFFE0
00E003FFE0
000001FFE0
000001FFE0
000001FFE0
000003FFC0
000007FFC0
00001FFF80
003FFFFF00
003FFFFE00
003FFFFC00
007FFFE000
007FFFFC00
007FFFFF00
007FFFFF80
007FFFFFC0
00000FFFC0
000007FFC0
000003FFC0
000003FFC0
000003FFC0
000007FFC0
00000FFFC0
30003FFF80
3FFFFFFF80
3FFFFFFF00
7FFFFFFE00
7FFFFFFC00
7FFFFFF800
7FFFFFE000
FFFFFF0000
FFFFF00000
ENDCHAR
STARTCHAR 00B4
ENCODING 180
SWIDTH 550 0
DWIDTH 55 0
BBX 28 13 28 50
BITMAP
000FFFF0
001FFFE0
003FFFC0
007FFF00
00FFFE00
01FFFC00
03FFF000
07FFE000
0FFF8000
1FFF0000
3FFE0000
7FF80000
FFF00000
ENDCHAR
STARTCHAR 00B5
ENCODING 181
SWIDTH 550 0
DWIDTH 55 0
BBX 54 69 -2 -19
BITMAP
0007FF80001FFC
0007FF80003FFC
0007FF80003FFC
0007FF80003FFC
0007FF80003FFC
000FFF00003FF8
000FFF00007FF8
000FFF00007FF8
000FFF00007FF8
000FFF00007FF8
001FFE00007FF0
001FFE0000FFF0
001FFE0000FFF0
001FFE0000FFF0
001FFE0000FFF0
003FFC0000FFE0
003FFC0001FFE0
003FFC0001FFE0
003FFC0001FFE0
003FFC0001FFE0
007FF80003FFC0
007FF80003FFC0
007FF80003FFC0
007FF80003FFC0
007FF80007FFC0
00FFF00007FFC0
00FFF00007FF80
00FFF0000FFF80
00FFF0000FFF80
00FFF0001FFF80
01FFE0001FFF80
01FFE0003FFF00
01FFE0007FFF00
01FFE0007FFF00
01FFE000FFFF00
03FFC001FFFF00
03FFC003FFFE00
03FFE007FFFE00
03FFE00FFFFE00
03FFE01FFFFE00
07FFF07FFFFF00
07FFFFFFFFFFF0
07FFFFFFF7FFE0
07FFFFFFE7FFE0
07FFFFFFC7FFE0
0FFFFFFF87FFE0
0FFFFFFF07FFE0
0FFFFFFE03FFC0
0FFFFFF803FFC0
0FFFFFE001FFC0
1FFE7F80007F80
1FFE0000000000
1FFE0000000000
1FFC0000000000
1FFC0000000000
3FFC0000000000
3FFC0000000000
3FFC0000000000
3FFC0000000000
3FFC0000000000
7FF80000000000
7FF80000000000
7FF80000000000
7FF80000000000
7FF80000000000
FFF00000000000
FFF00000000000
FFF00000000000
FFF00000000000
ENDCHAR
STARTCHAR 00B6
ENCODING 182
SWIDTH 550 0
DWIDTH 55 0
BBX 55 81 5 -12
BITMAP
0000001FFFFFFE
000003FFFFFFFE
00001FFFFFFFFC
00007FFFFFFFFC
0001FFFFFFFFFC
0007FFFFFFFFFC
000FFFFFFFFFFC
001FFFFFFFFFF8
003FFFFFFFFFF8
007FFFFFE07FF8
00FFFFFFE07FF8
01FFFFFFC07FF8
01FFFFFFC07FF0
03FFFFFFC0FFF0
07FFFFFFC0FFF0
07FFFFFFC0FFF0
0FFFFFFF80FFF0
0FFFFFFF80FFE0
0FFFFFFF81FFE0
1FFFFFFF81FFE0
1FFFFFFF81FFE0
1FFFFFFF01FFC0
1FFFFFFF01FFC0
1FFFFFFF03FFC0
1FFFFFFF03FFC0
1FFFFFFF03FFC0
1FFFFFFE03FF80
1FFFFFFE03FF80
1FFFFFFE07FF80
1FFFFFFE07FF80
1FFFFFFE07FF80
1FFFFFFC07FF00
0FFFFFFC07FF00
0FFFFFFC0FFF00
0FFFFFFC0FFF00
07FFFFFC0FFF00
03FFFFF80FFE00
01FFFFF80FFE00
00FFFFF81FFE00
007FFFF81FFE00
003FFFF81FFE00
000FFFF01FFC00
0001FFF01FFC00
00001FF03FFC00
000000003FFC00
000000003FFC00
000000003FF800
000000003FF800
000000007FF800
000000007FF800
000000007FF800
000000007FF000
000000007FF000
00000000FFF000
00000000FFF000
00000000FFF000
00000000FFE000
00000000FFE000
00000001FFE000
00000001FFE000
00000001FFE000
00000001FFC000
00000003FFC000
00000003FFC000
00000007FF8000
00000007FF8000
0200000FFF8000
0300001FFF0000
07C0003FFF0000
0FE0007FFE0000
1FFC03FFFE0000
1FFFFFFFFC0000
3FFFFFFFF80000
7FFFFFFFF00000
FFFFFFFFE00000
3FFFFFFFC00000
1FFFFFFF800000
07FFFFFE000000
01FFFFF8000000
007FFFC0000000
00004000000000
ENDCHAR
STARTCHAR 00B7
ENCODING 183
SWIDTH 550 0
DWIDTH 55 0
BBX 19 19 19 18
BITMAP
03F000
0FFC00
1FFF00
3FFF80
7FFF80
7FFFC0
FFFFC0
FFFFC0
FFFFE0
FFFFE0
FFFFE0
FFFFC0
FFFFC0
FFFFC0
7FFF80
7FFF00
3FFE00
1FFC00
07F000
ENDCHAR
STARTCHAR 00B8
ENCODING 184
SWIDTH 550 0
DWIDTH 55 0
BBX 16 14 13 -14
BITMAP
07FF
07FF
0FFE
0FFE
0FFC
1FF8
1FF8
3FF0
3FF0
3FE0
7FE0
7FC0
7FC0
FF80
ENDCHAR
STARTCHAR 00B9
ENCODING 185
SWIDTH 550 0
DWIDTH 55 0
BBX 32 38 14 31
BITMAP
00003FF8
0001FFF8
0007FFF8
003FFFF0
00FFFFF0
03FFFFF0
0FFFFFF0
0FFFFFF0
07FFFFE0
07FFFFE0
07FFFFE0
07F9FFE0
03C1FFE0
0301FFC0
0001FFC0
0003FFC0
0003FFC0
0003FFC0
0003FF80
0003FF80
0007FF80
0007FF80
0007FF80
0007FF00
0007FF00
000FFF00
000FFF00
000FFF00
000FFE00
000FFE00
7FFFFFFF
7FFFFFFF
7FFFFFFE
FFFFFFFE
FFFFFFFE
FFFFFFFE
FFFFFFFE
FFFFFFFC
ENDCHAR
STARTCHAR 00BA
ENCODING 186
SWIDTH 550 0
DWIDTH 55 0
BBX 41 48 9 17
BITMAP
000003FC0000
00003FFFC000
0000FFFFF000
0003FFFFF800
0007FFFFFC00
000FFFFFFE00
001FFFFFFF00
003FFFFFFF00
007FFF7FFF00
00FFF807FF80
00FFE003FF80
01FFC003FF80
01FF8001FF80
03FF8001FF80
03FF0001FF80
03FF0001FF80
07FE0001FF80
07FE0001FF80
07FE0001FF00
07FE0003FF00
07FE0003FF00
07FE0007FF00
07FE0007FE00
07FE000FFE00
07FF001FFC00
07FF803FFC00
07FFE1FFF800
03FFFFFFF000
03FFFFFFE000
01FFFFFFE000
00FFFFFF8000
007FFFFF0000
003FFFFE0000
000FFFF80000
0003FF800000
000000000000
000000000000
000000000000
000000000000
000000000000
7FFFFFFFE000
7FFFFFFFE000
7FFFFFFFE000
7FFFFFFFE000
7FFFFFFFC000
FFFFFFFFC000
FFFFFFFFC000
FFFFFFFFC000
ENDCHAR
STARTCHAR 00BB
ENCODING 187
SWIDTH 550 0
DWIDTH 55 0
BBX 46 40 4 7
BITMAP
000000001800
000700007800
001F0001FC00
00FF000FFC00
03FF801FFC00
03FF801FFE00
01FFC00FFE00
01FFC00FFF00
00FFE007FF00
00FFE007FF80
007FF003FF80
007FF003FFC0
003FF801FFC0
003FF801FFC0
001FFC00FFE0
001FFC00FFE0
000FFE007FF0
000FFE007FF0
0007FF003FF8
0007FF003FF8
0007FF803FFC
000FFF007FF8
001FFE00FFF0
003FFC01FFE0
007FFC03FFE0
00FFF807FFC0
01FFF00FFF80
03FFE00FFF00
07FFC01FFE00
07FF803FFC00
0FFF007FF800
1FFE00FFF800
3FFC01FFF000
7FFC03FFE000
FFF807FFC000
FFF007FF8000
3FE003FF0000
0FC000FE0000
0780007E0000
0100001C0000
ENDCHAR
STARTCHAR 00BC
ENCODING 188
SWIDTH 550 0
DWIDTH 55 0
BBX 69 69 -5 0
BITMAP
000000FFC000003FF8
000003FFC000003FF0
00001FFFC000007FE0
00007FFF800000FFC0
0001FFFF800001FF80
0001FFFF800003FF00
0001FFFF800007FF00
0001FFFF80000FFE00
0001FDFF00000FFC00
0000F1FF00001FF800
0000C1FF00003FF000
000003FF00007FE000
000003FF0000FFC000
000003FE0001FFC000
000003FE0003FF8000
000003FE0003FF0000
000007FE0007FE0000
000007FE000FFC0000
000007FC001FF80000
000007FC003FF00000
000007FC007FF00000
00000FFC00FFE00000
00000FFC00FFC00000
00000FF801FF800000
00000FF803FF000000
00000FF807FE000000
00001FF80FFC000000
00001FF81FFC000000
000000003FF8000000
000000003FF0000000
000000007FE0000000
00000000FFC0000000
00000001FF80000000
00000003FF00000000
00000007FF00000000
0000000FFE00000000
0000000FFC00000000
0000001FF800000000
0000003FF000000000
0000007FE000000000
000000FFC000000000
000001FFC07FFC0000
000003FF807FFC0000
000003FF00FFFC0000
000007FE01FFFC0000
00000FFC03FFF80000
00001FF807FFF80000
00003FF00FFFF80000
00007FF01FF7F80000
0000FFE01FEFF80000
0000FFC03FCFF00000
0001FF807F8FF00000
0003FF00FF0FF00000
0007FE01FF0FF00000
000FFC03FE1FF00000
001FFC03FC1FE00000
003FF807F81FE00000
003FF00FFFFFFE0000
007FE00FFFFFFE0000
00FFC00FFFFFFE0000
01FF801FFFFFFC0000
03FF001FFFFFFC0000
07FF001FFFFFFC0000
0FFE001FFFFFFC0000
0FFC0000007FC00000
1FF80000007F800000
3FF00000007F800000
7FE00000007F800000
FFC00000007F800000
ENDCHAR
STARTCHAR 00BD
ENCODING 189
SWIDTH 550 0
DWIDTH 55 0
BBX 69 69 -5 0
BITMAP
000000FFC000003FF8
000003FFC000003FF0
00001FFFC000007FE0
00007FFF800000FFC0
0001FFFF800001FF80
0001FFFF800003FF00
0001FFFF800007FF00
0001FFFF80000FFE00
0001FDFF00000FFC00
0000F1FF00001FF800
0000C1FF00003FF000
000003FF00007FE000
000003FF0000FFC000
000003FE0001FFC000
000003FE0003FF8000
000003FE0003FF0000
000007FE0007FE0000
000007FE000FFC0000
000007FC001FF80000
000007FC003FF00000
000007FC007FF00000
00000FFC00FFE00000
00000FFC00FFC00000
00000FF801FF800000
00000FF803FF000000
00000FF807FE000000
00001FF80FFC000000
00001FF81FFC000000
000000003FF8000000
000000003FF0000000
000000007FE0000000
00000000FFC0000000
00000001FF80000000
00000003FF00000000
00000007FF00000000
0000000FFE00000000
0000000FFC00000000
0000001FF800000000
0000003FF000000000
0000007FE000000000
000000FFC03FC00000
000001FFC1FFF80000
000003FF87FFFC0000
000003FF1FFFFE0000
000007FE1FFFFF0000
00000FFC1FFFFF0000
00001FF80FFFFF0000
00003FF00FC3FF8000
00007FF00601FF8000
0000FFE00401FF0000
0000FFC00001FF0000
0001FF800003FF0000
0003FF000007FE0000
0007FE00000FFE0000
000FFC00003FFC0000
001FFC00007FF80000
003FF80001FFF00000
003FF00003FFC00000
007FE00007FF800000
00FFC0001FFE000000
01FF80003FFC000000
03FF0000FFF0000000
07FF0001FFFFFE0000
0FFE0001FFFFFC0000
0FFC0001FFFFFC0000
1FF80001FFFFFC0000
3FF00001FFFFFC0000
7FE00003FFFFFC0000
FFC00003FFFFF80000
ENDCHAR
STARTCHAR 00BE
ENCODING 190
SWIDTH 550 0
DWIDTH 55 0
BBX 69 70 -5 0
BITMAP
00000FFC0000000000
0000FFFF8000003FF8
0000FFFFE000003FF0
0000FFFFE000007FE0
0000FFFFF00000FFC0
0000FFFFF00001FF80
0000FFFFF00003FF00
0000801FF00007FF00
0000001FF0000FFE00
0000001FF0000FFC00
0000003FE0001FF800
00000FFFE0003FF000
00007FFFC0007FE000
00007FFF0000FFC000
00007FFF0001FFC000
00007FFFC003FF8000
00007FFFE003FF0000
0000FFFFE007FE0000
000000FFF00FFC0000
0000003FF01FF80000
0000003FF03FF00000
0000007FF07FF00000
000000FFE0FFE00000
001FFFFFE0FFC00000
001FFFFFC1FF800000
001FFFFF83FF000000
001FFFFF07FE000000
001FFFFE0FFC000000
003FFFF81FFC000000
001FFF803FF8000000
000000003FF0000000
000000007FE0000000
00000000FFC0000000
00000001FF80000000
00000003FF00000000
00000007FF00000000
0000000FFE00000000
0000000FFC00000000
0000001FF800000000
0000003FF000000000
0000007FE000000000
000000FFC000000000
000001FFC07FFC0000
000003FF807FFC0000
000003FF00FFFC0000
000007FE01FFFC0000
00000FFC03FFF80000
00001FF807FFF80000
00003FF00FFFF80000
00007FF01FF7F80000
0000FFE01FEFF80000
0000FFC03FCFF00000
0001FF807F8FF00000
0003FF00FF0FF00000
0007FE01FF0FF00000
000FFC03FE1FF00000
001FFC03FC1FE00000
003FF807F81FE00000
003FF00FFFFFFE0000
007FE00FFFFFFE0000
00FFC00FFFFFFE0000
01FF801FFFFFFC0000
03FF001FFFFFFC0000
07FF001FFFFFFC0000
0FFE001FFFFFFC0000
0FFC0000007FC00000
1FF80000007F800000
3FF00000007F800000
7FE00000007F800000
FFC00000007F800000
ENDCHAR
STARTCHAR 00BF
ENCODING 191
SWIDTH 550 0
DWIDTH 55 0
BBX 40 70 3 -19
BITMAP
00000003C0
0000000FF0
0000003FFC
0000007FFC
0000007FFE
000000FFFE
000000FFFE
000000FFFF
000000FFFF
000000FFFE
000000FFFE
000000FFFE
0000007FFC
0000007FF8
0000001FF0
00000007C0
0000000000
0000000000
0000000000
0000000000
0000000000
000000FFC0
000000FFC0
000001FFC0
000001FFC0
000001FFC0
000001FF80
000003FF80
000003FF80
000003FF80
00000FFF80
0001FFFF80
000FFFFF80
003FFFFF00
007FFFFF00
01FFFFFF00
03FFFFFF00
07FFFFFF00
0FFFFFFF00
0FFFFFFE00
1FFFE00000
3FFF800000
3FFF000000
3FFE000000
7FFE000000
7FFC000000
7FFC000000
FFF8000000
FFF8000000
FFF8000000
FFF8000000
FFF8000000
FFFC000000
FFFC000000
FFFE000000
7FFE000000
7FFF800000
7FFFC00000
3FFFF80000
3FFFFFFF00
1FFFFFFE00
1FFFFFFE00
0FFFFFFE00
07FFFFFE00
03FFFFFE00
01FFFFFC00
007FFFFC00
001FFFFC00
0007FFFC00
00007FFC00
ENDCHAR
STARTCHAR 00C0
ENCODING 192
SWIDTH 550 0
DWIDTH 55 0
BBX 55 82 -5 0
BITMAP
000007FFF80000
000001FFFC0000
000000FFFE0000
0000007FFF0000
0000001FFF8000
0000000FFFC000
00000007FFE000
00000001FFF000
00000000FFF800
000000007FFC00
000000001FFE00
00000000000000
00000000000000
00000000000000
00000000000000
00000000000000
00000000000000
00000000000000
00000000FFFF80
00000001FFFF80
00000001FFFF80
00000003FFFF80
00000003FFFF80
00000007FFFF80
00000007FFFF80
0000000FFFFF80
0000000FFFFFC0
0000001FFFFFC0
0000001FFFFFC0
0000003FFFFFC0
0000003FFFFFC0
0000007FFBFFC0
0000007FFBFFC0
000000FFF3FFC0
000000FFF3FFC0
000001FFE3FFC0
000001FFE1FFC0
000003FFC1FFE0
000003FFC1FFE0
000007FF81FFE0
000007FF81FFE0
00000FFF01FFE0
00000FFF01FFE0
00001FFE01FFE0
00001FFE01FFE0
00003FFC01FFE0
00003FFC01FFE0
00007FFC01FFF0
00007FF801FFF0
0000FFF800FFF0
0000FFF000FFF0
0001FFF000FFF0
0001FFE000FFF0
0003FFE000FFF0
0003FFC000FFF0
0007FFC000FFF0
0007FF8000FFF0
000FFF8000FFF0
000FFF0000FFF8
001FFF0000FFF8
001FFFFFFFFFF8
003FFFFFFFFFF8
003FFFFFFFFFF8
007FFFFFFFFFF8
007FFFFFFFFFF8
00FFFFFFFFFFF8
00FFFFFFFFFFF8
01FFFFFFFFFFF8
01FFFFFFFFFFFC
03FFE000007FFC
03FFC000007FFC
07FFC000007FFC
07FF8000007FFC
0FFF8000007FFC
0FFF0000007FFC
1FFF0000003FFC
1FFE0000003FFC
3FFE0000003FFC
3FFC0000003FFC
7FFC0000003FFE
7FF80000003FFE
FFF80000003FFE
ENDCHAR
STARTCHAR 00C1
ENCODING 193
SWIDTH 550 0
DWIDTH 55 0
BBX 63 82 -5 0
BITMAP
000000000001FFFE
000000000003FFFC
000000000007FFF0
00000000000FFFE0
00000000001FFF80
00000000003FFF00
00000000007FFC00
0000000000FFF800
0000000001FFF000
0000000003FFC000
000000000FFF8000
0000000000000000
0000000000000000
0000000000000000
0000000000000000
0000000000000000
0000000000000000
0000000000000000
00000000FFFF8000
00000001FFFF8000
00000001FFFF8000
00000003FFFF8000
00000003FFFF8000
00000007FFFF8000
00000007FFFF8000
0000000FFFFF8000
0000000FFFFFC000
0000001FFFFFC000
0000001FFFFFC000
0000003FFFFFC000
0000003FFFFFC000
0000007FFBFFC000
0000007FFBFFC000
000000FFF3FFC000
000000FFF3FFC000
000001FFE3FFC000
000001FFE1FFC000
000003FFC1FFE000
000003FFC1FFE000
000007FF81FFE000
000007FF81FFE000
00000FFF01FFE000
00000FFF01FFE000
00001FFE01FFE000
00001FFE01FFE000
00003FFC01FFE000
00003FFC01FFE000
00007FFC01FFF000
00007FF801FFF000
0000FFF800FFF000
0000FFF000FFF000
0001FFF000FFF000
0001FFE000FFF000
0003FFE000FFF000
0003FFC000FFF000
0007FFC000FFF000
0007FF8000FFF000
000FFF8000FFF000
000FFF0000FFF800
001FFF0000FFF800
001FFFFFFFFFF800
003FFFFFFFFFF800
003FFFFFFFFFF800
007FFFFFFFFFF800
007FFFFFFFFFF800
00FFFFFFFFFFF800
00FFFFFFFFFFF800
01FFFFFFFFFFF800
01FFFFFFFFFFFC00
03FFE000007FFC00
03FFC000007FFC00
07FFC000007FFC00
07FF8000007FFC00
0FFF8000007FFC00
0FFF0000007FFC00
1FFF0000003FFC00
1FFE0000003FFC00
3FFE0000003FFC00
3FFC0000003FFC00
7FFC0000003FFE00
7FF80000003FFE00
FFF80000003FFE00
ENDCHAR
STARTCHAR 00C2
ENCODING 194
SWIDTH 550 0
DWIDTH 55 0
BBX 58 82 -5 0
BITMAP
0000000001FF8000
0000000007FFC000
000000000FFFE000
000000001FFFF000
000000003FFFF000
00000000FFFFF800
00000001FFFFFC00
00000003FFCFFE00
00000007FF07FF00
0000001FFE03FF80
0000003FF801FFC0
0000000000000000
0000000000000000
0000000000000000
0000000000000000
0000000000000000
0000000000000000
0000000000000000
00000000FFFF8000
00000001FFFF8000
00000001FFFF8000
00000003FFFF8000
00000003FFFF8000
00000007FFFF8000
00000007FFFF8000
0000000FFFFF8000
0000000FFFFFC000
0000001FFFFFC000
0000001FFFFFC000
0000003FFFFFC000
0000003FFFFFC000
0000007FFBFFC000
0000007FFBFFC000
000000FFF3FFC000
000000FFF3FFC000
000001FFE3FFC000
000001FFE1FFC000
000003FFC1FFE000
000003FFC1FFE000
000007FF81FFE000
000007FF81FFE000
00000FFF01FFE000
00000FFF01FFE000
00001FFE01FFE000
00001FFE01FFE000
00003FFC01FFE000
00003FFC01FFE000
00007FFC01FFF000
00007FF801FFF000
0000FFF800FFF000
0000FFF000FFF000
0001FFF000FFF000
0001FFE000FFF000
0003FFE000FFF000
0003FFC000FFF000
0007FFC000FFF000
0007FF8000FFF000
000FFF8000FFF000
000FFF0000FFF800
001FFF0000FFF800
001FFFFFFFFFF800
003FFFFFFFFFF800
003FFFFFFFFFF800
007FFFFFFFFFF800
007FFFFFFFFFF800
00FFFFFFFFFFF800
00FFFFFFFFFFF800
01FFFFFFFFFFF800
01FFFFFFFFFFFC00
03FFE000007FFC00
03FFC000007FFC00
07FFC000007FFC00
07FF8000007FFC00
0FFF8000007FFC00
0FFF0000007FFC00
1FFF0000003FFC00
1FFE0000003FFC00
3FFE0000003FFC00
3FFC0000003FFC00
7FFC0000003FFE00
7FF80000003FFE00
FFF80000003FFE00
ENDCHAR
STARTCHAR 00C3
ENCODING 195
SWIDTH 550 0
DWIDTH 55 0
BBX 61 83 -5 0
BITMAP
000000003E000000
00000003FFC00080
00000007FFF001C0
0000001FFFFC03E0
0000003FFFFE07F0
0000003FFFFFFFF8
0000007FFFFFFFF8
000000FFFFFFFFF0
0000007FFFFFFFF0
0000003F01FFFFE0
0000001E00FFFFC0
0000000C003FFF80
00000000000FFE00
000000000000C000
0000000000000000
0000000000000000
0000000000000000
0000000000000000
0000000000000000
00000000FFFF8000
00000001FFFF8000
00000001FFFF8000
00000003FFFF8000
00000003FFFF8000
00000007FFFF8000
00000007FFFF8000
0000000FFFFF8000
0000000FFFFFC000
0000001FFFFFC000
0000001FFFFFC000
0000003FFFFFC000
0000003FFFFFC000
0000007FFBFFC000
0000007FFBFFC000
000000FFF3FFC000
000000FFF3FFC000
000001FFE3FFC000
000001FFE1FFC000
000003FFC1FFE000
000003FFC1FFE000
000007FF81FFE000
000007FF81FFE000
00000FFF01FFE000
00000FFF01FFE000
00001FFE01FFE000
00001FFE01FFE000
00003FFC01FFE000
00003FFC01FFE000
00007FFC01FFF000
00007FF801FFF000
0000FFF800FFF000
0000FFF000FFF000
0001FFF000FFF000
0001FFE000FFF000
0003FFE000FFF000
0003FFC000FFF000
0007FFC000FFF000
0007FF8000FFF000
000FFF8000FFF000
000FFF0000FFF800
001FFF0000FFF800
001FFFFFFFFFF800
003FFFFFFFFFF800
003FFFFFFFFFF800
007FFFFFFFFFF800
007FFFFFFFFFF800
00FFFFFFFFFFF800
00FFFFFFFFFFF800
01FFFFFFFFFFF800
01FFFFFFFFFFFC00
03FFE000007FFC00
03FFC000007FFC00
07FFC000007FFC00
07FF8000007FFC00
0FFF8000007FFC00
0FFF0000007FFC00
1FFF0000003FFC00
1FFE0000003FFC00
3FFE0000003FFC00
3FFC0000003FFC00
7FFC0000003FFE00
7FF80000003FFE00
FFF80000003FFE00
ENDCHAR
STARTCHAR 00C4
ENCODING 196
SWIDTH 550 0
DWIDTH 55 0
BBX 60 82 -5 1
BITMAP
00000007F0003F80
0000001FF8007FC0
0000003FFC00FFE0
0000003FFC01FFF0
0000003FFC01FFF0
0000007FFE01FFF0
0000007FFE01FFF0
0000007FFC01FFF0
0000007FFC01FFF0
0000003FFC01FFE0
0000001FF800FFC0
0000001FF0007F80
00000007C0001E00
0000000000000000
0000000000000000
0000000000000000
0000000000000000
0000000000000000
00000000FFFF8000
00000001FFFF8000
00000001FFFF8000
00000003FFFF8000
00000003FFFF8000
00000007FFFF8000
00000007FFFF8000
0000000FFFFF8000
0000000FFFFFC000
0000001FFFFFC000
0000001FFFFFC000
0000003FFFFFC000
0000003FFFFFC000
0000007FFBFFC000
0000007FFBFFC000
000000FFF3FFC000
000000FFF3FFC000
000001FFE3FFC000
000001FFE1FFC000
000003FFC1FFE000
000003FFC1FFE000
000007FF81FFE000
000007FF81FFE000
00000FFF01FFE000
00000FFF01FFE000
00001FFE01FFE000
00001FFE01FFE000
00003FFC01FFE000
00003FFC01FFE000
00007FFC01FFF000
00007FF801FFF000
0000FFF800FFF000
0000FFF000FFF000
0001FFF000FFF000
0001FFE000FFF000
0003FFE000FFF000
0003FFC000FFF000
0007FFC000FFF000
0007FF8000FFF000
000FFF8000FFF000
000FFF0000FFF800
001FFF0000FFF800
001FFFFFFFFFF800
003FFFFFFFFFF800
003FFFFFFFFFF800
007FFFFFFFFFF800
007FFFFFFFFFF800
00FFFFFFFFFFF800
00FFFFFFFFFFF800
01FFFFFFFFFFF800
01FFFFFFFFFFFC00
03FFE000007FFC00
03FFC000007FFC00
07FFC000007FFC00
07FF8000007FFC00
0FFF8000007FFC00
0FFF0000007FFC00
1FFF0000003FFC00
1FFE0000003FFC00
3FFE0000003FFC00
3FFC0000003FFC00
7FFC0000003FFE00
7FF80000003FFE00
FFF80000003FFE00
ENDCHAR
STARTCHAR 00C5
ENCODING 197
SWIDTH 550 0
DWIDTH 55 0
BBX 55 85 -5 0
BITMAP
0000000001FE00
0000000007FF80
000000001FFFC0
000000003FFFE0
000000007FFFF0
000000007FFFF8
00000000FF07F8
00000000FE03F8
00000000FC03F8
00000001FC01F8
00000001FC01F8
00000001FC03F8
00000000FE03F8
00000000FF0FF8
00000000FFFFF0
000000007FFFE0
000000003FFFC0
000000001FFF80
000000000FFF00
0000000000F800
00000000000000
00000000FFFF80
00000001FFFF80
00000001FFFF80
00000003FFFF80
00000003FFFF80
00000007FFFF80
00000007FFFF80
0000000FFFFF80
0000000FFFFFC0
0000001FFFFFC0
0000001FFFFFC0
0000003FFFFFC0
0000003FFFFFC0
0000007FFBFFC0
0000007FFBFFC0
000000FFF3FFC0
000000FFF3FFC0
000001FFE3FFC0
000001FFE1FFC0
000003FFC1FFE0
000003FFC1FFE0
000007FF81FFE0
000007FF81FFE0
00000FFF01FFE0
00000FFF01FFE0
00001FFE01FFE0
00001FFE01FFE0
00003FFC01FFE0
00003FFC01FFE0
00007FFC01FFF0
00007FF801FFF0
0000FFF800FFF0
0000FFF000FFF0
0001FFF000FFF0
0001FFE000FFF0
0003FFE000FFF0
0003FFC000FFF0
0007FFC000FFF0
0007FF8000FFF0
000FFF8000FFF0
000FFF0000FFF8
001FFF0000FFF8
001FFFFFFFFFF8
003FFFFFFFFFF8
003FFFFFFFFFF8
007FFFFFFFFFF8
007FFFFFFFFFF8
00FFFFFFFFFFF8
00FFFFFFFFFFF8
01FFFFFFFFFFF8
01FFFFFFFFFFFC
03FFE000007FFC
03FFC000007FFC
07FFC000007FFC
07FF8000007FFC
0FFF8000007FFC
0FFF0000007FFC
1FFF0000003FFC
1FFE0000003FFC
3FFE0000003FFC
3FFC0000003FFC
7FFC0000003FFE
7FF80000003FFE
FFF80000003FFE
ENDCHAR
STARTCHAR 00C6
ENCODING 198
SWIDTH 550 0
DWIDTH 55 0
BBX 67 64 -7 0
BITMAP
000000000FFFFFFFE0
000000000FFFFFFFE0
000000001FFFFFFFE0
000000001FFFFFFFE0
000000003FFFFFFFC0
000000003FFFFFFFC0
000000007FFFFFFFC0
00000000FFFFFFFFC0
00000000FFFFFFFFC0
00000001FFFFFFFF80
00000001FFFFF00000
00000003FFFFF00000
00000007FF7FF00000
00000007FF7FF00000
0000000FFE7FE00000
0000000FFCFFE00000
0000001FFCFFE00000
0000001FF8FFE00000
0000003FF8FFC00000
0000007FF0FFC00000
0000007FF1FFC00000
000000FFE1FFC00000
000000FFE1FFC00000
000001FFC1FF800000
000003FF81FF800000
000003FF83FF800000
000007FF03FFFFF800
000007FF03FFFFF800
00000FFE03FFFFF800
00000FFE03FFFFF800
00001FFC07FFFFF000
00003FFC07FFFFF000
00003FF807FFFFF000
00007FF807FFFFF000
00007FF007FFFFF000
0000FFE00FFFFFE000
0000FFE00FFE000000
0001FFC00FFE000000
0003FFC00FFC000000
0003FF801FFC000000
0007FF801FFC000000
0007FF001FFC000000
000FFFFFFFFC000000
001FFFFFFFF8000000
001FFFFFFFF8000000
003FFFFFFFF8000000
003FFFFFFFF8000000
007FFFFFFFF8000000
007FFFFFFFF0000000
00FFFFFFFFF0000000
01FFFFFFFFF0000000
01FFE0007FF0000000
03FFC0007FF0000000
03FFC0007FE0000000
07FF80007FFFFF8000
0FFF8000FFFFFF8000
0FFF0000FFFFFF0000
1FFE0000FFFFFF0000
1FFE0000FFFFFF0000
3FFC0000FFFFFF0000
3FFC0001FFFFFF0000
7FF80001FFFFFF0000
FFF80001FFFFFE0000
FFF00001FFFFFE0000
ENDCHAR
STARTCHAR 00C7
ENCODING 199
SWIDTH 550 0
DWIDTH 55 0
BBX 52 79 4 -14
BITMAP
000000007F8000
0000001FFFFF00
000000FFFFFFF0
000007FFFFFFF0
00001FFFFFFFF0
00003FFFFFFFF0
0000FFFFFFFFF0
0001FFFFFFFFE0
0003FFFFFFFFE0
0007FFFFFFFFE0
000FFFFFFFFFE0
001FFFFE003FE0
003FFFF00001C0
003FFFE0000000
007FFF80000000
00FFFF00000000
01FFFE00000000
01FFFC00000000
03FFF800000000
03FFF000000000
07FFE000000000
07FFE000000000
0FFFC000000000
0FFFC000000000
0FFF8000000000
1FFF8000000000
1FFF0000000000
1FFF0000000000
3FFF0000000000
3FFE0000000000
3FFE0000000000
3FFE0000000000
3FFE0000000000
7FFC0000000000
7FFC0000000000
7FFC0000000000
7FFC0000000000
7FFC0000000000
7FFC0000000000
7FFC0000000000
FFFC0000000000
FFF80000000000
FFF80000000000
FFFC0000000000
FFFC0000000000
FFFC0000000000
7FFC0000000000
7FFC0000000000
7FFC0000000000
7FFE0000000000
7FFF0000000000
3FFF0000000000
3FFF800001C000
3FFFE0000FC000
1FFFFC00FFC000
1FFFFFFFFFC000
0FFFFFFFFFC000
0FFFFFFFFFC000
07FFFFFFFFC000
03FFFFFFFFC000
01FFFFFFFFC000
00FFFFFFFFC000
003FFFFFFF8000
000FFFFFFE0000
0003FFFFE00000
0000FFFC000000
0000FFE0000000
0001FFC0000000
0001FFC0000000
0001FF80000000
0003FF80000000
0003FF00000000
0007FE00000000
0007FE00000000
0007FC00000000
000FFC00000000
000FF800000000
000FF800000000
001FF000000000
ENDCHAR
STARTCHAR 00C8
ENCODING 200
SWIDTH 550 0
DWIDTH 55 0
BBX 51 82 4 0
BITMAP
000FFFF0000000
0003FFF8000000
0001FFFC000000
0000FFFE000000
00003FFF000000
00001FFF800000
00000FFFC00000
000003FFE00000
000001FFF00000
000000FFF80000
0000003FFC0000
00000000000000
00000000000000
00000000000000
00000000000000
00000000000000
00000000000000
00000000000000
0007FFFFFFFFE0
0007FFFFFFFFE0
000FFFFFFFFFE0
000FFFFFFFFFE0
000FFFFFFFFFC0
000FFFFFFFFFC0
000FFFFFFFFFC0
001FFFFFFFFFC0
001FFFFFFFFF80
001FFFFFFFFF80
001FFE00000000
001FFE00000000
003FFC00000000
003FFC00000000
003FFC00000000
003FFC00000000
003FFC00000000
007FF800000000
007FF800000000
007FF800000000
007FF800000000
007FF800000000
00FFF000000000
00FFF000000000
00FFF000000000
00FFF000000000
01FFFFFFFFF800
01FFFFFFFFF000
01FFFFFFFFF000
01FFFFFFFFF000
01FFFFFFFFF000
03FFFFFFFFF000
03FFFFFFFFE000
03FFFFFFFFE000
03FFFFFFFFE000
03FFFFFFFFE000
07FFC000000000
07FFC000000000
07FF8000000000
07FF8000000000
07FF8000000000
0FFF8000000000
0FFF8000000000
0FFF0000000000
0FFF0000000000
0FFF0000000000
1FFF0000000000
1FFF0000000000
1FFE0000000000
1FFE0000000000
1FFE0000000000
3FFE0000000000
3FFE0000000000
3FFC0000000000
3FFFFFFFFF0000
3FFFFFFFFF0000
7FFFFFFFFF0000
7FFFFFFFFF0000
7FFFFFFFFE0000
7FFFFFFFFE0000
7FFFFFFFFE0000
FFFFFFFFFE0000
FFFFFFFFFE0000
FFFFFFFFFE0000
ENDCHAR
STARTCHAR 00C9
ENCODING 201
SWIDTH 550 0
DWIDTH 55 0
BBX 54 82 4 0
BITMAP
0000000003FFFC
0000000007FFF8
000000000FFFE0
000000001FFFC0
000000003FFF00
000000007FFE00
00000000FFF800
00000001FFF000
00000003FFE000
00000007FF8000
0000001FFF0000
00000000000000
00000000000000
00000000000000
00000000000000
00000000000000
00000000000000
00000000000000
0007FFFFFFFFE0
0007FFFFFFFFE0
000FFFFFFFFFE0
000FFFFFFFFFE0
000FFFFFFFFFC0
000FFFFFFFFFC0
000FFFFFFFFFC0
001FFFFFFFFFC0
001FFFFFFFFF80
001FFFFFFFFF80
001FFE00000000
001FFE00000000
003FFC00000000
003FFC00000000
003FFC00000000
003FFC00000000
003FFC00000000
007FF800000000
007FF800000000
007FF800000000
007FF800000000
007FF800000000
00FFF000000000
00FFF000000000
00FFF000000000
00FFF000000000
01FFFFFFFFF800
01FFFFFFFFF000
01FFFFFFFFF000
01FFFFFFFFF000
01FFFFFFFFF000
03FFFFFFFFF000
03FFFFFFFFE000
03FFFFFFFFE000
03FFFFFFFFE000
03FFFFFFFFE000
07FFC000000000
07FFC000000000
07FF8000000000
07FF8000000000
07FF8000000000
0FFF8000000000
0FFF8000000000
0FFF0000000000
0FFF0000000000
0FFF0000000000
1FFF0000000000
1FFF0000000000
1FFE0000000000
1FFE0000000000
1FFE0000000000
3FFE0000000000
3FFE0000000000
3FFC0000000000
3FFFFFFFFF0000
3FFFFFFFFF0000
7FFFFFFFFF0000
7FFFFFFFFF0000
7FFFFFFFFE0000
7FFFFFFFFE0000
7FFFFFFFFE0000
FFFFFFFFFE0000
FFFFFFFFFE0000
FFFFFFFFFE0000
ENDCHAR
STARTCHAR 00CA
ENCODING 202
SWIDTH 550 0
DWIDTH 55 0
BBX 51 82 4 0
BITMAP
00000003FF0000
0000000FFF8000
0000001FFFC000
0000003FFFE000
0000007FFFE000
000001FFFFF000
000003FFFFF800
000007FF9FFC00
00000FFE0FFE00
00003FFC07FF00
00007FF003FF80
00000000000000
00000000000000
00000000000000
00000000000000
00000000000000
00000000000000
00000000000000
0007FFFFFFFFE0
0007FFFFFFFFE0
000FFFFFFFFFE0
000FFFFFFFFFE0
000FFFFFFFFFC0
000FFFFFFFFFC0
000FFFFFFFFFC0
001FFFFFFFFFC0
001FFFFFFFFF80
001FFFFFFFFF80
001FFE00000000
001FFE00000000
003FFC00000000
003FFC00000000
003FFC00000000
003FFC00000000
003FFC00000000
007FF800000000
007FF800000000
007FF800000000
007FF800000000
007FF800000000
00FFF000000000
00FFF000000000
00FFF000000000
00FFF000000000
01FFFFFFFFF800
01FFFFFFFFF000
01FFFFFFFFF000
01FFFFFFFFF000
01FFFFFFFFF000
03FFFFFFFFF000
03FFFFFFFFE000
03FFFFFFFFE000
03FFFFFFFFE000
03FFFFFFFFE000
07FFC000000000
07FFC000000000
07FF8000000000
07FF8000000000
07FF8000000000
0FFF8000000000
0FFF8000000000
0FFF0000000000
0FFF0000000000
0FFF0000000000
1FFF0000000000
1FFF0000000000
1FFE0000000000
1FFE0000000000
1FFE0000000000
3FFE0000000000
3FFE0000000000
3FFC0000000000
3FFFFFFFFF0000
3FFFFFFFFF0000
7FFFFFFFFF0000
7FFFFFFFFF0000
7FFFFFFFFE0000
7FFFFFFFFE0000
7FFFFFFFFE0000
FFFFFFFFFE0000
FFFFFFFFFE0000
FFFFFFFFFE0000
ENDCHAR
STARTCHAR 00CB
ENCODING 203
SWIDTH 550 0
DWIDTH 55 0
BBX 51 82 4 1
BITMAP
00000FE0007F00
00003FF000FF80
00007FF801FFC0
00007FF803FFE0
00007FF803FFE0
0000FFFC03FFE0
0000FFFC03FFE0
0000FFF803FFE0
0000FFF803FFE0
00007FF803FFC0
00003FF001FF80
00003FE000FF00
00000F80003C00
00000000000000
00000000000000
00000000000000
00000000000000
00000000000000
0007FFFFFFFFE0
0007FFFFFFFFE0
000FFFFFFFFFE0
000FFFFFFFFFE0
000FFFFFFFFFC0
000FFFFFFFFFC0
000FFFFFFFFFC0
001FFFFFFFFFC0
001FFFFFFFFF80
001FFFFFFFFF80
001FFE00000000
001FFE00000000
003FFC00000000
003FFC00000000
003FFC00000000
003FFC00000000
003FFC00000000
007FF800000000
007FF800000000
007FF800000000
007FF800000000
007FF800000000
00FFF000000000
00FFF000000000
00FFF000000000
00FFF000000000
01FFFFFFFFF800
01FFFFFFFFF000
01FFFFFFFFF000
01FFFFFFFFF000
01FFFFFFFFF000
03FFFFFFFFF000
03FFFFFFFFE000
03FFFFFFFFE000
03FFFFFFFFE000
03FFFFFFFFE000
07FFC000000000
07FFC000000000
07FF8000000000
07FF8000000000
07FF8000000000
0FFF8000000000
0FFF8000000000
0FFF0000000000
0FFF0000000000
0FFF0000000000
1FFF0000000000
1FFF0000000000
1FFE0000000000
1FFE0000000000
1FFE0000000000
3FFE0000000000
3FFE0000000000
3FFC0000000000
3FFFFFFFFF0000
3FFFFFFFFF0000
7FFFFFFFFF0000
7FFFFFFFFF0000
7FFFFFFFFE0000
7FFFFFFFFE0000
7FFFFFFFFE0000
FFFFFFFFFE0000
FFFFFFFFFE0000
FFFFFFFFFE0000
ENDCHAR
STARTCHAR 00CC
ENCODING 204
SWIDTH 550 0
DWIDTH 55 0
BBX 53 82 2 0
BITMAP
0003FFFC000000
0000FFFE000000
00007FFF000000
00003FFF800000
00000FFFC00000
000007FFE00000
000003FFF00000
000000FFF80000
0000007FFC0000
0000003FFE0000
0000000FFF0000
00000000000000
00000000000000
00000000000000
00000000000000
00000000000000
00000000000000
00000000000000
0007FFFFFFFFF8
0007FFFFFFFFF8
0007FFFFFFFFF8
000FFFFFFFFFF8
000FFFFFFFFFF8
000FFFFFFFFFF0
000FFFFFFFFFF0
000FFFFFFFFFF0
001FFFFFFFFFF0
001FFFFFFFFFF0
0000007FF80000
0000007FF80000
0000007FF80000
0000007FF80000
000000FFF80000
000000FFF00000
000000FFF00000
000000FFF00000
000000FFF00000
000001FFF00000
000001FFE00000
000001FFE00000
000001FFE00000
000001FFE00000
000003FFE00000
000003FFC00000
000003FFC00000
000003FFC00000
000003FFC00000
000007FFC00000
000007FF800000
000007FF800000
000007FF800000
000007FF800000
00000FFF800000
00000FFF000000
00000FFF000000
00000FFF000000
00001FFF000000
00001FFF000000
00001FFE000000
00001FFE000000
00001FFE000000
00003FFE000000
00003FFE000000
00003FFC000000
00003FFC000000
00003FFC000000
00007FFC000000
00007FFC000000
00007FF8000000
00007FF8000000
00007FF8000000
0000FFF8000000
3FFFFFFFFFE000
3FFFFFFFFFC000
3FFFFFFFFFC000
3FFFFFFFFFC000
7FFFFFFFFFC000
7FFFFFFFFFC000
7FFFFFFFFF8000
7FFFFFFFFF8000
7FFFFFFFFF8000
FFFFFFFFFF8000
ENDCHAR
STARTCHAR 00CD
ENCODING 205
SWIDTH 550 0
DWIDTH 55 0
BBX 56 82 2 0
BITMAP
0000000000FFFF
0000000001FFFE
0000000003FFF8
0000000007FFF0
000000000FFFC0
000000001FFF80
000000003FFE00
000000007FFC00
00000000FFF800
00000001FFE000
00000007FFC000
00000000000000
00000000000000
00000000000000
00000000000000
00000000000000
00000000000000
00000000000000
0007FFFFFFFFF8
0007FFFFFFFFF8
0007FFFFFFFFF8
000FFFFFFFFFF8
000FFFFFFFFFF8
000FFFFFFFFFF0
000FFFFFFFFFF0
000FFFFFFFFFF0
001FFFFFFFFFF0
001FFFFFFFFFF0
0000007FF80000
0000007FF80000
0000007FF80000
0000007FF80000
000000FFF80000
000000FFF00000
000000FFF00000
000000FFF00000
000000FFF00000
000001FFF00000
000001FFE00000
000001FFE00000
000001FFE00000
000001FFE00000
000003FFE00000
000003FFC00000
000003FFC00000
000003FFC00000
000003FFC00000
000007FFC00000
000007FF800000
000007FF800000
000007FF800000
000007FF800000
00000FFF800000
00000FFF000000
00000FFF000000
00000FFF000000
00001FFF000000
00001FFF000000
00001FFE000000
00001FFE000000
00001FFE000000
00003FFE000000
00003FFE000000
00003FFC000000
00003FFC000000
00003FFC000000
00007FFC000000
00007FFC000000
00007FF8000000
00007FF8000000
00007FF8000000
0000FFF8000000
3FFFFFFFFFE000
3FFFFFFFFFC000
3FFFFFFFFFC000
3FFFFFFFFFC000
7FFFFFFFFFC000
7FFFFFFFFFC000
7FFFFFFFFF8000
7FFFFFFFFF8000
7FFFFFFFFF8000
FFFFFFFFFF8000
ENDCHAR
STARTCHAR 00CE
ENCODING 206
SWIDTH 550 0
DWIDTH 55 0
BBX 53 82 2 0
BITMAP
00000000FFC000
00000003FFE000
00000007FFF000
0000000FFFF800
0000001FFFF800
0000007FFFFC00
000000FFFFFE00
000001FFE7FF00
000003FF83FF80
00000FFF01FFC0
00001FFC00FFE0
00000000000000
00000000000000
00000000000000
00000000000000
00000000000000
00000000000000
00000000000000
0007FFFFFFFFF8
0007FFFFFFFFF8
0007FFFFFFFFF8
000FFFFFFFFFF8
000FFFFFFFFFF8
000FFFFFFFFFF0
000FFFFFFFFFF0
000FFFFFFFFFF0
001FFFFFFFFFF0
001FFFFFFFFFF0
0000007FF80000
0000007FF80000
0000007FF80000
0000007FF80000
000000FFF80000
000000FFF00000
000000FFF00000
000000FFF00000
000000FFF00000
000001FFF00000
000001FFE00000
000001FFE00000
000001FFE00000
000001FFE00000
000003FFE00000
000003FFC00000
000003FFC00000
000003FFC00000
000003FFC00000
000007FFC00000
000007FF800000
000007FF800000
000007FF800000
000007FF800000
00000FFF800000
00000FFF000000
00000FFF000000
00000FFF000000
00001FFF000000
00001FFF000000
00001FFE000000
00001FFE000000
00001FFE000000
00003FFE000000
00003FFE000000
00003FFC000000
00003FFC000000
00003FFC000000
00007FFC000000
00007FFC000000
00007FF8000000
00007FF8000000
00007FF8000000
0000FFF8000000
3FFFFFFFFFE000
3FFFFFFFFFC000
3FFFFFFFFFC000
3FFFFFFFFFC000
7FFFFFFFFFC000
7FFFFFFFFFC000
7FFFFFFFFF8000
7FFFFFFFFF8000
7FFFFFFFFF8000
FFFFFFFFFF8000
ENDCHAR
STARTCHAR 00CF
ENCODING 207
SWIDTH 550 0
DWIDTH 55 0
BBX 53 82 2 1
BITMAP
000003F8001FC0
00000FFC003FE0
00001FFE007FF0
00001FFE00FFF8
00001FFE00FFF8
00003FFF00FFF8
00003FFF00FFF8
00003FFE00FFF8
00003FFE00FFF8
00001FFE00FFF0
00000FFC007FE0
00000FF8003FC0
000003E0000F00
00000000000000
00000000000000
00000000000000
00000000000000
00000000000000
0007FFFFFFFFF8
0007FFFFFFFFF8
0007FFFFFFFFF8
000FFFFFFFFFF8
000FFFFFFFFFF8
000FFFFFFFFFF0
000FFFFFFFFFF0
000FFFFFFFFFF0
001FFFFFFFFFF0
001FFFFFFFFFF0
0000007FF80000
0000007FF80000
0000007FF80000
0000007FF80000
000000FFF80000
000000FFF00000
000000FFF00000
000000FFF00000
000000FFF00000
000001FFF00000
000001FFE00000
000001FFE00000
000001FFE00000
000001FFE00000
000003FFE00000
000003FFC00000
000003FFC00000
000003FFC00000
000003FFC00000
000007FFC00000
000007FF800000
000007FF800000
000007FF800000
000007FF800000
00000FFF800000
00000FFF000000
00000FFF000000
00000FFF000000
00001FFF000000
00001FFF000000
00001FFE000000
00001FFE000000
00001FFE000000
00003FFE000000
00003FFE000000
00003FFC000000
00003FFC000000
00003FFC000000
00007FFC000000
00007FFC000000
00007FF8000000
00007FF8000000
00007FF8000000
0000FFF8000000
3FFFFFFFFFE000
3FFFFFFFFFC000
3FFFFFFFFFC000
3FFFFFFFFFC000
7FFFFFFFFFC000
7FFFFFFFFFC000
7FFFFFFFFF8000
7FFFFFFFFF8000
7FFFFFFFFF8000
FFFFFFFFFF8000
ENDCHAR
STARTCHAR 00D0
ENCODING 208
SWIDTH 550 0
DWIDTH 55 0
BBX 55 64 0 0
BITMAP
0007FFFFE00000
0007FFFFFF8000
0007FFFFFFF000
000FFFFFFFFC00
000FFFFFFFFE00
000FFFFFFFFF00
000FFFFFFFFF80
000FFFFFFFFFC0
001FFFFFFFFFE0
001FFFFFFFFFF0
001FFE00FFFFF0
001FFE000FFFF8
001FFC0007FFF8
003FFC0001FFFC
003FFC0000FFFC
003FFC0000FFFC
003FFC00007FFC
003FF800007FFC
007FF800007FFE
007FF800003FFE
007FF800003FFE
007FF800003FFE
007FF000003FFE
00FFF000003FFE
00FFF000003FFE
00FFF000003FFE
3FFFFFFE003FFE
3FFFFFFE003FFE
3FFFFFFE003FFC
3FFFFFFC007FFC
3FFFFFFC007FFC
7FFFFFFC007FFC
7FFFFFFC007FFC
7FFFFFFC007FFC
7FFFFFF800FFF8
7FFFFFF800FFF8
03FFC00000FFF8
03FF800000FFF8
07FF800001FFF0
07FF800001FFF0
07FF800003FFF0
07FF800003FFE0
07FF000007FFE0
0FFF000007FFC0
0FFF00000FFFC0
0FFF00000FFFC0
0FFF00001FFF80
0FFE00003FFF00
1FFE00007FFF00
1FFE0000FFFE00
1FFE0003FFFC00
1FFE0007FFFC00
3FFC001FFFF800
3FFC01FFFFF000
3FFFFFFFFFE000
3FFFFFFFFFC000
3FFFFFFFFF8000
7FFFFFFFFE0000
7FFFFFFFFC0000
7FFFFFFFF00000
7FFFFFFFC00000
7FFFFFFE000000
FFFFFFF0000000
FFFFFE00000000
ENDCHAR
STARTCHAR 00D1
ENCODING 209
SWIDTH 550 0
DWIDTH 55 0
BBX 58 83 0 0
BITMAP
00000007C0000000
0000007FF8001000
000000FFFE003800
000003FFFF807C00
000007FFFFC0FE00
000007FFFFFFFF00
00000FFFFFFFFF00
00001FFFFFFFFE00
00000FFFFFFFFE00
000007E03FFFFC00
000003C01FFFF800
0000018007FFF000
0000000001FFC000
0000000000180000
0000000000000000
0000000000000000
0000000000000000
0000000000000000
0000000000000000
0007FFE00001FFC0
000FFFE00001FFC0
000FFFE00001FFC0
000FFFF00001FFC0
000FFFF00003FF80
000FFFF00003FF80
001FFFF00003FF80
001FFFF80003FF80
001FFFF80003FF80
001FFFF80007FF00
001FFFF80007FF00
003FFFFC0007FF00
003FFFFC0007FF00
003FFFFC0007FF00
003FFFFC000FFE00
003FFFFE000FFE00
007FFFFE000FFE00
007FFFFE000FFE00
007FFFFE000FFE00
007FFFFF001FFC00
007FE7FF001FFC00
00FFE7FF001FFC00
00FFE7FF001FFC00
00FFE7FF801FFC00
00FFE3FF803FF800
00FFC3FF803FF800
01FFC3FF803FF800
01FFC3FFC03FF800
01FFC1FFC03FF800
01FFC1FFC07FF000
01FF81FFC07FF000
03FF81FFE07FF000
03FF80FFE07FF000
03FF80FFE07FF000
03FF80FFF0FFE000
03FF00FFF0FFE000
07FF007FF0FFE000
07FF007FF0FFE000
07FF007FF8FFE000
07FF007FF9FFC000
07FE003FF9FFC000
0FFE003FF9FFC000
0FFE003FF9FFC000
0FFE003FFDFFC000
0FFE001FFFFF8000
0FFC001FFFFF8000
1FFC001FFFFF8000
1FFC001FFFFF8000
1FFC000FFFFF8000
1FFC000FFFFF0000
1FF8000FFFFF0000
3FF8000FFFFF0000
3FF80007FFFF0000
3FF80007FFFF0000
3FF80007FFFE0000
3FF00007FFFE0000
7FF00003FFFE0000
7FF00003FFFE0000
7FF00003FFFE0000
7FF00003FFFC0000
7FF00001FFFC0000
FFE00001FFFC0000
FFE00001FFFC0000
FFE00001FFFC0000
ENDCHAR
STARTCHAR 00D2
ENCODING 210
SWIDTH 550 0
DWIDTH 55 0
BBX 54 83 2 -1
BITMAP
0003FFFC000000
0000FFFE000000
00007FFF000000
00003FFF800000
00000FFFC00000
000007FFE00000
000003FFF00000
000000FFF80000
0000007FFC0000
0000003FFE0000
0000000FFF0000
00000000000000
00000000000000
00000000000000
00000000000000
00000000000000
00000000000000
0000000FFC0000
000000FFFFC000
000007FFFFF000
00001FFFFFFC00
00003FFFFFFE00
0000FFFFFFFF00
0001FFFFFFFF80
0003FFFFFFFFC0
0007FFFFFFFFC0
000FFFFFFFFFE0
001FFFFFFFFFF0
003FFFE01FFFF0
007FFF8007FFF0
007FFF0003FFF8
00FFFC0001FFF8
01FFF80000FFF8
01FFF00000FFF8
03FFF00000FFF8
03FFE000007FF8
07FFC000007FFC
07FFC000007FFC
0FFF8000007FFC
0FFF8000007FFC
0FFF0000007FFC
1FFF0000007FFC
1FFF0000007FF8
1FFE0000007FF8
3FFE0000007FF8
3FFE0000007FF8
3FFC0000007FF8
3FFC000000FFF8
7FFC000000FFF8
7FFC000000FFF8
7FF8000000FFF0
7FF8000000FFF0
7FF8000000FFF0
7FF8000001FFF0
FFF8000001FFF0
FFF8000001FFE0
FFF8000003FFE0
FFF8000003FFE0
FFF8000003FFC0
FFF8000007FFC0
FFF8000007FFC0
FFF800000FFF80
FFF800000FFF80
FFF800001FFF00
FFF800001FFF00
FFF800003FFE00
FFF800007FFE00
FFFC0000FFFC00
7FFC0001FFFC00
7FFE0003FFF800
7FFF0007FFF000
3FFFC01FFFF000
3FFFFFFFFFE000
3FFFFFFFFFC000
1FFFFFFFFF8000
0FFFFFFFFF0000
0FFFFFFFFE0000
07FFFFFFFC0000
03FFFFFFF00000
01FFFFFFE00000
007FFFFF800000
001FFFFC000000
0001FFE0000000
ENDCHAR
STARTCHAR 00D3
ENCODING 211
SWIDTH 550 0
DWIDTH 55 0
BBX 56 83 2 -1
BITMAP
0000000000FFFF
0000000001FFFE
0000000003FFF8
0000000007FFF0
000000000FFFC0
000000001FFF80
000000003FFE00
000000007FFC00
00000000FFF800
00000001FFE000
00000007FFC000
00000000000000
00000000000000
00000000000000
00000000000000
00000000000000
00000000000000
0000000FFC0000
000000FFFFC000
000007FFFFF000
00001FFFFFFC00
00003FFFFFFE00
0000FFFFFFFF00
0001FFFFFFFF80
0003FFFFFFFFC0
0007FFFFFFFFC0
000FFFFFFFFFE0
001FFFFFFFFFF0
003FFFE01FFFF0
007FFF8007FFF0
007FFF0003FFF8
00FFFC0001FFF8
01FFF80000FFF8
01FFF00000FFF8
03FFF00000FFF8
03FFE000007FF8
07FFC000007FFC
07FFC000007FFC
0FFF8000007FFC
0FFF8000007FFC
0FFF0000007FFC
1FFF0000007FFC
1FFF0000007FF8
1FFE0000007FF8
3FFE0000007FF8
3FFE0000007FF8
3FFC0000007FF8
3FFC000000FFF8
7FFC000000FFF8
7FFC000000FFF8
7FF8000000FFF0
7FF8000000FFF0
7FF8000000FFF0
7FF8000001FFF0
FFF8000001FFF0
FFF8000001FFE0
FFF8000003FFE0
FFF8000003FFE0
FFF8000003FFC0
FFF8000007FFC0
FFF8000007FFC0
FFF800000FFF80
FFF800000FFF80
FFF800001FFF00
FFF800001FFF00
FFF800003FFE00
FFF800007FFE00
FFFC0000FFFC00
7FFC0001FFFC00
7FFE0003FFF800
7FFF0007FFF000
3FFFC01FFFF000
3FFFFFFFFFE000
3FFFFFFFFFC000
1FFFFFFFFF8000
0FFFFFFFFF0000
0FFFFFFFFE0000
07FFFFFFFC0000
03FFFFFFF00000
01FFFFFFE00000
007FFFFF800000
001FFFFC000000
0001FFE0000000
ENDCHAR
STARTCHAR 00D4
ENCODING 212
SWIDTH 550 0
DWIDTH 55 0
BBX 54 83 2 -1
BITMAP
00000000FFC000
00000003FFE000
00000007FFF000
0000000FFFF800
0000001FFFF800
0000007FFFFC00
000000FFFFFE00
000001FFE7FF00
000003FF83FF80
00000FFF01FFC0
00001FFC00FFE0
00000000000000
00000000000000
00000000000000
00000000000000
00000000000000
00000000000000
0000000FFC0000
000000FFFFC000
000007FFFFF000
00001FFFFFFC00
00003FFFFFFE00
0000FFFFFFFF00
0001FFFFFFFF80
0003FFFFFFFFC0
0007FFFFFFFFC0
000FFFFFFFFFE0
001FFFFFFFFFF0
003FFFE01FFFF0
007FFF8007FFF0
007FFF0003FFF8
00FFFC0001FFF8
01FFF80000FFF8
01FFF00000FFF8
03FFF00000FFF8
03FFE000007FF8
07FFC000007FFC
07FFC000007FFC
0FFF8000007FFC
0FFF8000007FFC
0FFF0000007FFC
1FFF0000007FFC
1FFF0000007FF8
1FFE0000007FF8
3FFE0000007FF8
3FFE0000007FF8
3FFC0000007FF8
3FFC000000FFF8
7FFC000000FFF8
7FFC000000FFF8
7FF8000000FFF0
7FF8000000FFF0
7FF8000000FFF0
7FF8000001FFF0
FFF8000001FFF0
FFF8000001FFE0
FFF8000003FFE0
FFF8000003FFE0
FFF8000003FFC0
FFF8000007FFC0
FFF8000007FFC0
FFF800000FFF80
FFF800000FFF80
FFF800001FFF00
FFF800001FFF00
FFF800003FFE00
FFF800007FFE00
FFFC0000FFFC00
7FFC0001FFFC00
7FFE0003FFF800
7FFF0007FFF000
3FFFC01FFFF000
3FFFFFFFFFE000
3FFFFFFFFFC000
1FFFFFFFFF8000
0FFFFFFFFF0000
0FFFFFFFFE0000
07FFFFFFFC0000
03FFFFFFF00000
01FFFFFFE00000
007FFFFF800000
001FFFFC000000
0001FFE0000000
ENDCHAR
STARTCHAR 00D5
ENCODING 213
SWIDTH 550 0
DWIDTH 55 0
BBX 54 84 2 -1
BITMAP
0000001F000000
000001FFE00040
000003FFF800E0
00000FFFFE01F0
00001FFFFF03F8
00001FFFFFFFFC
00003FFFFFFFFC
00007FFFFFFFF8
00003FFFFFFFF8
00001F80FFFFF0
00000F007FFFE0
000006001FFFC0
0000000007FF00
00000000006000
00000000000000
00000000000000
00000000000000
00000000000000
0000000FFC0000
000000FFFFC000
000007FFFFF000
00001FFFFFFC00
00003FFFFFFE00
0000FFFFFFFF00
0001FFFFFFFF80
0003FFFFFFFFC0
0007FFFFFFFFC0
000FFFFFFFFFE0
001FFFFFFFFFF0
003FFFE01FFFF0
007FFF8007FFF0
007FFF0003FFF8
00FFFC0001FFF8
01FFF80000FFF8
01FFF00000FFF8
03FFF00000FFF8
03FFE000007FF8
07FFC000007FFC
07FFC000007FFC
0FFF8000007FFC
0FFF8000007FFC
0FFF0000007FFC
1FFF0000007FFC
1FFF0000007FF8
1FFE0000007FF8
3FFE0000007FF8
3FFE0000007FF8
3FFC0000007FF8
3FFC000000FFF8
7FFC000000FFF8
7FFC000000FFF8
7FF8000000FFF0
7FF8000000FFF0
7FF8000000FFF0
7FF8000001FFF0
FFF8000001FFF0
FFF8000001FFE0
FFF8000003FFE0
FFF8000003FFE0
FFF8000003FFC0
FFF8000007FFC0
FFF8000007FFC0
FFF800000FFF80
FFF800000FFF80
FFF800001FFF00
FFF800001FFF00
FFF800003FFE00
FFF800007FFE00
FFFC0000FFFC00
7FFC0001FFFC00
7FFE0003FFF800
7FFF0007FFF000
3FFFC01FFFF000
3FFFFFFFFFE000
3FFFFFFFFFC000
1FFFFFFFFF8000
0FFFFFFFFF0000
0FFFFFFFFE0000
07FFFFFFFC0000
03FFFFFFF00000
01FFFFFFE00000
007FFFFF800000
001FFFFC000000
0001FFE0000000
ENDCHAR
STARTCHAR 00D6
ENCODING 214
SWIDTH 550 0
DWIDTH 55 0
BBX 54 83 2 0
BITMAP
000003F8001FC0
00000FFC003FE0
00001FFE007FF0
00001FFE00FFF8
00001FFE00FFF8
00003FFF00FFF8
00003FFF00FFF8
00003FFE00FFF8
00003FFE00FFF8
00001FFE00FFF0
00000FFC007FE0
00000FF8003FC0
000003E0000F00
00000000000000
00000000000000
00000000000000
00000000000000
0000000FFC0000
000000FFFFC000
000007FFFFF000
00001FFFFFFC00
00003FFFFFFE00
0000FFFFFFFF00
0001FFFFFFFF80
0003FFFFFFFFC0
0007FFFFFFFFC0
000FFFFFFFFFE0
001FFFFFFFFFF0
003FFFE01FFFF0
007FFF8007FFF0
007FFF0003FFF8
00FFFC0001FFF8
01FFF80000FFF8
01FFF00000FFF8
03FFF00000FFF8
03FFE000007FF8
07FFC000007FFC
07FFC000007FFC
0FFF8000007FFC
0FFF8000007FFC
0FFF0000007FFC
1FFF0000007FFC
1FFF0000007FF8
1FFE0000007FF8
3FFE0000007FF8
3FFE0000007FF8
3FFC0000007FF8
3FFC000000FFF8
7FFC000000FFF8
7FFC000000FFF8
7FF8000000FFF0
7FF8000000FFF0
7FF8000000FFF0
7FF8000001FFF0
FFF8000001FFF0
FFF8000001FFE0
FFF8000003FFE0
FFF8000003FFE0
FFF8000003FFC0
FFF8000007FFC0
FFF8000007FFC0
FFF800000FFF80
FFF800000FFF80
FFF800001FFF00
FFF800001FFF00
FFF800003FFE00
FFF800007FFE00
FFFC0000FFFC00
7FFC0001FFFC00
7FFE0003FFF800
7FFF0007FFF000
3FFFC01FFFF000
3FFFFFFFFFE000
3FFFFFFFFFC000
1FFFFFFFFF8000
0FFFFFFFFF0000
0FFFFFFFFE0000
07FFFFFFFC0000
03FFFFFFF00000
01FFFFFFE00000
007FFFFF800000
001FFFFC000000
0001FFE0000000
ENDCHAR
STARTCHAR 00D7
ENCODING 215
SWIDTH 550 0
DWIDTH 55 0
BBX 49 43 3 5
BITMAP
00060000003000
000F0000007800
001F800000FC00
003FC00003FC00
00FFC00007FE00
01FFE0000FFF00
03FFF0001FFF80
03FFF8003FFF80
01FFFC00FFFF00
00FFFC01FFFE00
007FFE03FFF800
003FFF07FFF000
003FFF8FFFE000
001FFFFFFFC000
000FFFFFFF8000
0007FFFFFE0000
0003FFFFFC0000
0003FFFFF80000
0001FFFFF00000
0000FFFFE00000
00007FFFC00000
00007FFF000000
0000FFFF800000
0001FFFFC00000
0007FFFFE00000
000FFFFFE00000
001FFFFFF00000
003FFFFFF80000
007FFFFFFC0000
01FFFEFFFE0000
03FFFC7FFE0000
07FFF03FFF0000
0FFFE01FFF8000
1FFFC01FFFC000
3FFF800FFFE000
FFFF0007FFE000
7FFC0003FFE000
3FF80001FFC000
1FF00001FF8000
0FE00000FF0000
0FC000007C0000
07800000380000
02000000100000
ENDCHAR
STARTCHAR 00D8
ENCODING 216
SWIDTH 550 0
DWIDTH 55 0
BBX 54 84 2 -10
BITMAP
00000000001FF8
00000000001FF8
00000000003FF0
00000000003FF0
00000000007FE0
00000000007FE0
0000000000FFC0
0000000000FFC0
0000000001FF80
0000000FF9FF80
000000FFFFFF00
000007FFFFFF00
00001FFFFFFE00
00007FFFFFFE00
0000FFFFFFFF00
0001FFFFFFFF80
0003FFFFFFFFC0
0007FFFFFFFFC0
000FFFFFFFFFE0
001FFFFFFFFFE0
003FFFC07FFFF0
007FFF00FFFFF0
00FFFE00FFFFF8
00FFFC01FFFFF8
01FFF801FFFFF8
01FFF003FF7FF8
03FFE003FF7FF8
03FFE007FE7FF8
07FFC007FE7FFC
07FF800FFC7FFC
0FFF800FFC7FFC
0FFF001FF87FFC
0FFF001FF87FFC
1FFF003FF07FFC
1FFE003FF07FF8
1FFE007FE07FF8
3FFE007FE07FF8
3FFC00FFC07FF8
3FFC00FFC07FF8
3FFC01FF807FF8
7FFC01FF807FF8
7FF803FF00FFF8
7FF803FF00FFF0
7FF807FE00FFF0
7FF807FE00FFF0
FFF80FFC00FFF0
FFF81FFC01FFF0
FFF81FF801FFE0
FFF03FF801FFE0
FFF03FF003FFE0
FFF07FF003FFC0
FFF07FE003FFC0
FFF0FFE007FFC0
FFF0FFC007FF80
FFF1FFC00FFF80
FFF1FF800FFF00
FFFBFF001FFF00
FFFBFF001FFF00
FFFFFE003FFE00
7FFFFE007FFC00
7FFFFC00FFFC00
7FFFFC01FFF800
7FFFF803FFF800
3FFFF80FFFF000
3FFFF0FFFFE000
1FFFFFFFFFC000
1FFFFFFFFF8000
0FFFFFFFFF0000
07FFFFFFFE0000
07FFFFFFFC0000
01FFFFFFF80000
01FFFFFFE00000
03FFFFFF800000
07FFFFFE000000
07FFFFE0000000
0FFE0000000000
0FFC0000000000
1FFC0000000000
1FF80000000000
3FF80000000000
3FF00000000000
7FF00000000000
7FE00000000000
FFE00000000000
ENDCHAR
STARTCHAR 00D9
ENCODING 217
SWIDTH 550 0
DWIDTH 55 0
BBX 56 83 3 -1
BITMAP
0007FFF8000000
0001FFFC000000
0000FFFE000000
00007FFF000000
00001FFF800000
00000FFFC00000
000007FFE00000
000001FFF00000
000000FFF80000
0000007FFC0000
0000001FFE0000
00000000000000
00000000000000
00000000000000
00000000000000
00000000000000
00000000000000
00000000000000
007FF800001FFF
007FF800001FFE
007FF800001FFE
00FFF000001FFE
00FFF000001FFE
00FFF000003FFE
00FFF000003FFC
00FFF000003FFC
01FFE000003FFC
01FFE000003FFC
01FFE000007FFC
01FFE000007FF8
01FFE000007FF8
03FFC000007FF8
03FFC000007FF8
03FFC00000FFF8
03FFC00000FFF0
03FFC00000FFF0
07FF800000FFF0
07FF800000FFF0
07FF800001FFF0
07FF800001FFE0
07FF800001FFE0
0FFF000001FFE0
0FFF000001FFE0
0FFF000003FFC0
0FFF000003FFC0
0FFF000003FFC0
1FFE000003FFC0
1FFE000003FFC0
1FFE000007FF80
1FFE000007FF80
1FFE000007FF80
3FFC000007FF80
3FFC000007FF80
3FFC00000FFF00
3FFC00000FFF00
3FFC00000FFF00
7FF800000FFF00
7FF800000FFF00
7FF800001FFE00
7FF800001FFE00
7FF800001FFE00
FFF000001FFE00
FFF000003FFE00
FFF000003FFC00
FFF000003FFC00
FFF000007FFC00
FFF000007FF800
FFF00000FFF800
FFF80000FFF000
FFF80001FFF000
FFFC0003FFE000
FFFC000FFFE000
7FFF003FFFC000
7FFFFFFFFFC000
7FFFFFFFFF8000
3FFFFFFFFF0000
1FFFFFFFFE0000
1FFFFFFFFC0000
0FFFFFFFF80000
03FFFFFFE00000
01FFFFFF800000
007FFFFE000000
0007FFE0000000
ENDCHAR
STARTCHAR 00DA
ENCODING 218
SWIDTH 550 0
DWIDTH 55 0
BBX 56 83 3 -1
BITMAP
0000000001FFFE
0000000003FFFC
0000000007FFF0
000000000FFFE0
000000001FFF80
000000003FFF00
000000007FFC00
00000000FFF800
00000001FFF000
00000003FFC000
0000000FFF8000
00000000000000
00000000000000
00000000000000
00000000000000
00000000000000
00000000000000
00000000000000
007FF800001FFF
007FF800001FFE
007FF800001FFE
00FFF000001FFE
00FFF000001FFE
00FFF000003FFE
00FFF000003FFC
00FFF000003FFC
01FFE000003FFC
01FFE000003FFC
01FFE000007FFC
01FFE000007FF8
01FFE000007FF8
03FFC000007FF8
03FFC000007FF8
03FFC00000FFF8
03FFC00000FFF0
03FFC00000FFF0
07FF800000FFF0
07FF800000FFF0
07FF800001FFF0
07FF800001FFE0
07FF800001FFE0
0FFF000001FFE0
0FFF000001FFE0
0FFF000003FFC0
0FFF000003FFC0
0FFF000003FFC0
1FFE000003FFC0
1FFE000003FFC0
1FFE000007FF80
1FFE000007FF80
1FFE000007FF80
3FFC000007FF80
3FFC000007FF80
3FFC00000FFF00
3FFC00000FFF00
3FFC00000FFF00
7FF800000FFF00
7FF800000FFF00
7FF800001FFE00
7FF800001FFE00
7FF800001FFE00
FFF000001FFE00
FFF000003FFE00
FFF000003FFC00
FFF000003FFC00
FFF000007FFC00
FFF000007FF800
FFF00000FFF800
FFF80000FFF000
FFF80001FFF000
FFFC0003FFE000
FFFC000FFFE000
7FFF003FFFC000
7FFFFFFFFFC000
7FFFFFFFFF8000
3FFFFFFFFF0000
1FFFFFFFFE0000
1FFFFFFFFC0000
0FFFFFFFF80000
03FFFFFFE00000
01FFFFFF800000
007FFFFE000000
0007FFE0000000
ENDCHAR
STARTCHAR 00DB
ENCODING 219
SWIDTH 550 0
DWIDTH 55 0
BBX 56 83 3 -1
BITMAP
00000001FF8000
00000007FFC000
0000000FFFE000
0000001FFFF000
0000003FFFF000
000000FFFFF800
000001FFFFFC00
000003FFCFFE00
000007FF07FF00
00001FFE03FF80
00003FF801FFC0
00000000000000
00000000000000
00000000000000
00000000000000
00000000000000
00000000000000
00000000000000
007FF800001FFF
007FF800001FFE
007FF800001FFE
00FFF000001FFE
00FFF000001FFE
00FFF000003FFE
00FFF000003FFC
00FFF000003FFC
01FFE000003FFC
01FFE000003FFC
01FFE000007FFC
01FFE000007FF8
01FFE000007FF8
03FFC000007FF8
03FFC000007FF8
03FFC00000FFF8
03FFC00000FFF0
03FFC00000FFF0
07FF800000FFF0
07FF800000FFF0
07FF800001FFF0
07FF800001FFE0
07FF800001FFE0
0FFF000001FFE0
0FFF000001FFE0
0FFF000003FFC0
0FFF000003FFC0
0FFF000003FFC0
1FFE000003FFC0
1FFE000003FFC0
1FFE000007FF80
1FFE000007FF80
1FFE000007FF80
3FFC000007FF80
3FFC000007FF80
3FFC00000FFF00
3FFC00000FFF00
3FFC00000FFF00
7FF800000FFF00
7FF800000FFF00
7FF800001FFE00
7FF800001FFE00
7FF800001FFE00
FFF000001FFE00
FFF000003FFE00
FFF000003FFC00
FFF000003FFC00
FFF000007FFC00
FFF000007FF800
FFF00000FFF800
FFF80000FFF000
FFF80001FFF000
FFFC0003FFE000
FFFC000FFFE000
7FFF003FFFC000
7FFFFFFFFFC000
7FFFFFFFFF8000
3FFFFFFFFF0000
1FFFFFFFFE0000
1FFFFFFFFC0000
0FFFFFFFF80000
03FFFFFFE00000
01FFFFFF800000
007FFFFE000000
0007FFE0000000
ENDCHAR
STARTCHAR 00DC
ENCODING 220
SWIDTH 550 0
DWIDTH 55 0
BBX 56 83 3 0
BITMAP
000007F0003F80
00001FF8007FC0
00003FFC00FFE0
00003FFC01FFF0
00003FFC01FFF0
00007FFE01FFF0
00007FFE01FFF0
00007FFC01FFF0
00007FFC01FFF0
00003FFC01FFE0
00001FF800FFC0
00001FF0007F80
000007C0001E00
00000000000000
00000000000000
00000000000000
00000000000000
00000000000000
007FF800001FFF
007FF800001FFE
007FF800001FFE
00FFF000001FFE
00FFF000001FFE
00FFF000003FFE
00FFF000003FFC
00FFF000003FFC
01FFE000003FFC
01FFE000003FFC
01FFE000007FFC
01FFE000007FF8
01FFE000007FF8
03FFC000007FF8
03FFC000007FF8
03FFC00000FFF8
03FFC00000FFF0
03FFC00000FFF0
07FF800000FFF0
07FF800000FFF0
07FF800001FFF0
07FF800001FFE0
07FF800001FFE0
0FFF000001FFE0
0FFF000001FFE0
0FFF000003FFC0
0FFF000003FFC0
0FFF000003FFC0
1FFE000003FFC0
1FFE000003FFC0
1FFE000007FF80
1FFE000007FF80
1FFE000007FF80
3FFC000007FF80
3FFC000007FF80
3FFC00000FFF00
3FFC00000FFF00
3FFC00000FFF00
7FF800000FFF00
7FF800000FFF00
7FF800001FFE00
7FF800001FFE00
7FF800001FFE00
FFF000001FFE00
FFF000003FFE00
FFF000003FFC00
FFF000003FFC00
FFF000007FFC00
FFF000007FF800
FFF00000FFF800
FFF80000FFF000
FFF80001FFF000
FFFC0003FFE000
FFFC000FFFE000
7FFF003FFFC000
7FFFFFFFFFC000
7FFFFFFFFF8000
3FFFFFFFFF0000
1FFFFFFFFE0000
1FFFFFFFFC0000
0FFFFFFFF80000
03FFFFFFE00000
01FFFFFF800000
007FFFFE000000
0007FFE0000000
ENDCHAR
STARTCHAR 00DD
ENCODING 221
SWIDTH 550 0
DWIDTH 55 0
BBX 54 82 8 0
BITMAP
000000003FFFC0
000000007FFF80
00000000FFFE00
00000001FFFC00
00000003FFF000
00000007FFE000
0000000FFF8000
0000001FFF0000
0000003FFE0000
0000007FF80000
000001FFF00000
00000000000000
00000000000000
00000000000000
00000000000000
00000000000000
00000000000000
00000000000000
FFF8000000FFFC
7FF8000000FFF8
7FFC000001FFF8
7FFC000003FFF0
3FFC000003FFE0
3FFC000007FFC0
3FFE00000FFFC0
1FFE00000FFF80
1FFE00001FFF00
1FFF00003FFF00
1FFF00003FFE00
0FFF00007FFC00
0FFF0000FFF800
0FFF8001FFF800
07FF8001FFF000
07FF8003FFE000
07FF8007FFE000
03FFC007FFC000
03FFC00FFF8000
03FFC01FFF0000
03FFE01FFF0000
01FFE03FFE0000
01FFE07FFC0000
01FFE07FFC0000
00FFF0FFF80000
00FFF1FFF00000
00FFF1FFF00000
007FF3FFE00000
007FFFFFC00000
007FFFFF800000
007FFFFF800000
003FFFFF000000
003FFFFE000000
003FFFFE000000
001FFFFC000000
001FFFF8000000
001FFFF0000000
000FFFF0000000
000FFFE0000000
000FFFC0000000
000FFFC0000000
0007FF80000000
0007FF80000000
000FFF80000000
000FFF00000000
000FFF00000000
000FFF00000000
000FFF00000000
001FFF00000000
001FFE00000000
001FFE00000000
001FFE00000000
001FFE00000000
003FFE00000000
003FFC00000000
003FFC00000000
003FFC00000000
003FFC00000000
007FFC00000000
007FF800000000
007FF800000000
007FF800000000
007FF800000000
00FFF800000000
ENDCHAR
STARTCHAR 00DE
ENCODING 222
SWIDTH 550 0
DWIDTH 55 0
BBX 51 64 2 0
BITMAP
000FFF00000000
000FFF00000000
000FFF00000000
000FFF00000000
001FFF00000000
001FFE00000000
001FFE00000000
001FFE00000000
001FFE00000000
003FFFFFE00000
003FFFFFFF0000
003FFFFFFFC000
003FFFFFFFF000
003FFFFFFFFC00
007FFFFFFFFE00
007FFFFFFFFF00
007FFFFFFFFF00
007FFFFFFFFF80
007FFFFFFFFFC0
00FFF800FFFFC0
00FFF0001FFFC0
00FFF0000FFFE0
00FFF00007FFE0
00FFF00003FFE0
01FFF00003FFE0
01FFE00003FFE0
01FFE00003FFE0
01FFE00003FFE0
01FFE00003FFE0
03FFE00003FFE0
03FFC00003FFE0
03FFC00003FFC0
03FFC00007FFC0
03FFC00007FFC0
07FFC0000FFFC0
07FF80000FFF80
07FF80001FFF80
07FF80003FFF00
07FF80007FFF00
0FFF8000FFFE00
0FFF0003FFFE00
0FFF000FFFFC00
0FFFFFFFFFF800
0FFFFFFFFFF000
1FFFFFFFFFE000
1FFFFFFFFFC000
1FFFFFFFFF8000
1FFFFFFFFE0000
1FFFFFFFF80000
3FFFFFFFE00000
3FFFFFFF800000
3FFFFFF8000000
3FFC0000000000
3FFC0000000000
7FFC0000000000
7FF80000000000
7FF80000000000
7FF80000000000
7FF80000000000
FFF80000000000
FFF00000000000
FFF00000000000
FFF00000000000
FFF00000000000
ENDCHAR
STARTCHAR 00DF
ENCODING 223
SWIDTH 550 0
DWIDTH 55 0
BBX 59 89 -5 -19
BITMAP
000000000FFC0000
00000000FFFFC000
00000007FFFFF000
0000001FFFFFFC00
0000003FFFFFFE00
0000007FFFFFFF00
000000FFFFFFFF80
000001FFFFFFFF80
000003FFFFFFFFC0
000007FFFC1FFFC0
00000FFFE007FFC0
00000FFF8003FFC0
00001FFF0003FFE0
00001FFE0001FFE0
00003FFE0001FFC0
00003FFC0003FFC0
00003FFC0003FFC0
00007FF80007FFC0
00007FF80007FFC0
00007FF8000FFF80
00007FF8001FFF80
0000FFF0007FFF00
0000FFF000FFFE00
0000FFF001FFFC00
0000FFF007FFF800
0000FFF00FFFF000
0001FFE01FFFE000
0001FFE03FFF8000
0001FFE03FFF0000
0001FFE07FFE0000
0001FFE07FFC0000
0003FFC0FFF80000
0003FFC0FFF00000
0003FFC0FFF00000
0003FFC0FFF00000
0003FFC0FFF00000
0007FF80FFF00000
0007FF80FFF80000
0007FF80FFF80000
0007FF80FFFC0000
0007FF807FFE0000
000FFF007FFF0000
000FFF007FFF8000
000FFF003FFFC000
000FFF001FFFE000
000FFF000FFFF000
001FFE0007FFF000
001FFE0003FFF800
001FFE0001FFFC00
001FFE0000FFFC00
001FFE00007FFC00
003FFC00007FFE00
003FFC00003FFE00
003FFC00003FFE00
003FFC00001FFE00
003FFC00001FFE00
007FF800001FFE00
007FF800003FFE00
007FF800003FFE00
007FF800007FFC00
007FF82001FFFC00
00FFF03FFFFFF800
00FFF03FFFFFF800
00FFF03FFFFFF000
00FFF03FFFFFE000
00FFF07FFFFFC000
01FFE07FFFFF8000
01FFE07FFFFE0000
01FFE07FFFFC0000
01FFE07FFFE00000
01FFE00FFC000000
03FFC00000000000
03FFC00000000000
03FFC00000000000
03FFC00000000000
07FF800000000000
07FF800000000000
07FF800000000000
0FFF000000000000
0FFF000000000000
0FFF000000000000
1FFE000000000000
1FFE000000000000
1FFE000000000000
3FFC000000000000
3FFC000000000000
7FF8000000000000
7FF8000000000000
FFF0000000000000
ENDCHAR
STARTCHAR 00E0
ENCODING 224
SWIDTH 550 0
DWIDTH 55 0
BBX 50 70 3 -1
BITMAP
007FFF80000000
003FFFC0000000
001FFFE0000000
0007FFF0000000
0003FFF8000000
0001FFFC000000
00007FFE000000
00003FFF000000
00001FFF000000
00000FFF800000
000003FFC00000
000001FFE00000
000000FFF00000
00000000000000
00000000000000
00000000000000
00000000000000
00000000000000
00000000000000
000003FFFE07C0
00003FFFFFFFC0
0000FFFFFFFF80
0003FFFFFFFF80
0007FFFFFFFF80
000FFFFFFFFF80
003FFFFFFFFF80
007FFFFFFFFF00
00FFFFFFFFFF00
00FFFF801FFF00
01FFFC000FFF00
03FFF8000FFF00
07FFF0000FFE00
07FFE0001FFE00
0FFFC0001FFE00
0FFF80001FFE00
1FFF00001FFE00
1FFF00001FFC00
1FFE00003FFC00
3FFE00003FFC00
3FFE00003FFC00
3FFC00003FFC00
7FFC00003FFC00
7FFC00007FF800
7FF800007FF800
7FF800007FF800
7FF80000FFF800
FFF80000FFF800
FFF80001FFF000
FFF80001FFF000
FFF00003FFF000
FFF00003FFF000
FFF00007FFF000
FFF0000FFFF000
FFF0000FFFE000
FFF8001FFFE000
FFF8003FFFE000
FFF8007FFFE000
FFF800FFFFE000
FFFC03FFFFE000
7FFE07FFFFE000
7FFFFFFFFFE000
7FFFFFFEFFE000
3FFFFFFEFFC000
3FFFFFFCFFC000
1FFFFFF8FFC000
0FFFFFE0FFC000
0FFFFFC0FFC000
03FFFF00FFC000
01FFFC00FFC000
003FF000000000
ENDCHAR
STARTCHAR 00E1
ENCODING 225
SWIDTH 550 0
DWIDTH 55 0
BBX 53 70 3 -1
BITMAP
0000000007FFF8
000000000FFFF0
000000001FFFE0
000000003FFF80
000000007FFF00
00000000FFFE00
00000001FFF800
00000003FFF000
00000007FFC000
0000000FFF8000
0000001FFF0000
0000003FFC0000
0000007FF80000
00000000000000
00000000000000
00000000000000
00000000000000
00000000000000
00000000000000
000003FFFE07C0
00003FFFFFFFC0
0000FFFFFFFF80
0003FFFFFFFF80
0007FFFFFFFF80
000FFFFFFFFF80
003FFFFFFFFF80
007FFFFFFFFF00
00FFFFFFFFFF00
00FFFF801FFF00
01FFFC000FFF00
03FFF8000FFF00
07FFF0000FFE00
07FFE0001FFE00
0FFFC0001FFE00
0FFF80001FFE00
1FFF00001FFE00
1FFF00001FFC00
1FFE00003FFC00
3FFE00003FFC00
3FFE00003FFC00
3FFC00003FFC00
7FFC00003FFC00
7FFC00007FF800
7FF800007FF800
7FF800007FF800
7FF80000FFF800
FFF80000FFF800
FFF80001FFF000
FFF80001FFF000
FFF00003FFF000
FFF00003FFF000
FFF00007FFF000
FFF0000FFFF000
FFF0000FFFE000
FFF8001FFFE000
FFF8003FFFE000
FFF8007FFFE000
FFF800FFFFE000
FFFC03FFFFE000
7FFE07FFFFE000
7FFFFFFFFFE000
7FFFFFFEFFE000
3FFFFFFEFFC000
3FFFFFFCFFC000
1FFFFFF8FFC000
0FFFFFE0FFC000
0FFFFFC0FFC000
03FFFF00FFC000
01FFFC00FFC000
003FF000000000
ENDCHAR
STARTCHAR 00E2
ENCODING 226
SWIDTH 550 0
DWIDTH 55 0
BBX 50 70 3 -1
BITMAP
0000000FFC0000
0000001FFE0000
0000003FFF0000
0000007FFF0000
000000FFFF8000
000001FFFFC000
000007FFFFE000
00000FFF7FE000
00001FFC3FF000
00003FF81FF800
00007FF01FFC00
0000FFE00FFC00
0001FFC007FE00
00000000000000
00000000000000
00000000000000
00000000000000
00000000000000
00000000000000
000003FFFE07C0
00003FFFFFFFC0
0000FFFFFFFF80
0003FFFFFFFF80
0007FFFFFFFF80
000FFFFFFFFF80
003FFFFFFFFF80
007FFFFFFFFF00
00FFFFFFFFFF00
00FFFF801FFF00
01FFFC000FFF00
03FFF8000FFF00
07FFF0000FFE00
07FFE0001FFE00
0FFFC0001FFE00
0FFF80001FFE00
1FFF00001FFE00
1FFF00001FFC00
1FFE00003FFC00
3FFE00003FFC00
3FFE00003FFC00
3FFC00003FFC00
7FFC00003FFC00
7FFC00007FF800
7FF800007FF800
7FF800007FF800
7FF80000FFF800
FFF80000FFF800
FFF80001FFF000
FFF80001FFF000
FFF00003FFF000
FFF00003FFF000
FFF00007FFF000
FFF0000FFFF000
FFF0000FFFE000
FFF8001FFFE000
FFF8003FFFE000
FFF8007FFFE000
FFF800FFFFE000
FFFC03FFFFE000
7FFE07FFFFE000
7FFFFFFFFFE000
7FFFFFFEFFE000
3FFFFFFEFFC000
3FFFFFFCFFC000
1FFFFFF8FFC000
0FFFFFE0FFC000
0FFFFFC0FFC000
03FFFF00FFC000
01FFFC00FFC000
003FF000000000
ENDCHAR
STARTCHAR 00E3
ENCODING 227
SWIDTH 550 0
DWIDTH 55 0
BBX 51 71 3 -1
BITMAP
000003F8000000
00001FFE000400
00003FFF800E00
00007FFFE00F00
0000FFFFF03F80
0001FFFFFFFFC0
0003FFFFFFFFE0
0007FFFFFFFFC0
0003FFFFFFFF80
0001FC0FFFFF80
0000F807FFFF00
00007001FFFE00
000020007FF800
000000001FE000
00000000000000
00000000000000
00000000000000
00000000000000
00000000000000
00000000000000
000003FFFE07C0
00003FFFFFFFC0
0000FFFFFFFF80
0003FFFFFFFF80
0007FFFFFFFF80
000FFFFFFFFF80
003FFFFFFFFF80
007FFFFFFFFF00
00FFFFFFFFFF00
00FFFF801FFF00
01FFFC000FFF00
03FFF8000FFF00
07FFF0000FFE00
07FFE0001FFE00
0FFFC0001FFE00
0FFF80001FFE00
1FFF00001FFE00
1FFF00001FFC00
1FFE00003FFC00
3FFE00003FFC00
3FFE00003FFC00
3FFC00003FFC00
7FFC00003FFC00
7FFC00007FF800
7FF800007FF800
7FF800007FF800
7FF80000FFF800
FFF80000FFF800
FFF80001FFF000
FFF80001FFF000
FFF00003FFF000
FFF00003FFF000
FFF00007FFF000
FFF0000FFFF000
FFF0000FFFE000
FFF8001FFFE000
FFF8003FFFE000
FFF8007FFFE000
FFF800FFFFE000
FFFC03FFFFE000
7FFE07FFFFE000
7FFFFFFFFFE000
7FFFFFFEFFE000
3FFFFFFEFFC000
3FFFFFFCFFC000
1FFFFFF8FFC000
0FFFFFE0FFC000
0FFFFFC0FFC000
03FFFF00FFC000
01FFFC00FFC000
003FF000000000
ENDCHAR
STARTCHAR 00E4
ENCODING 228
SWIDTH 550 0
DWIDTH 55 0
BBX 50 71 3 -1
BITMAP
00000F00007000
00003FC001FC00
00007FE007FF00
0000FFF007FF00
0000FFF00FFF80
0001FFF00FFF80
0001FFF80FFF80
0001FFF80FFF80
0001FFF00FFF80
0000FFF00FFF00
0000FFE00FFF00
00007FE007FE00
00003F8003FC00
00000E00006000
00000000000000
00000000000000
00000000000000
00000000000000
00000000000000
00000000000000
000003FFFE07C0
00003FFFFFFFC0
0000FFFFFFFF80
0003FFFFFFFF80
0007FFFFFFFF80
000FFFFFFFFF80
003FFFFFFFFF80
007FFFFFFFFF00
00FFFFFFFFFF00
00FFFF801FFF00
01FFFC000FFF00
03FFF8000FFF00
07FFF0000FFE00
07FFE0001FFE00
0FFFC0001FFE00
0FFF80001FFE00
1FFF00001FFE00
1FFF00001FFC00
1FFE00003FFC00
3FFE00003FFC00
3FFE00003FFC00
3FFC00003FFC00
7FFC00003FFC00
7FFC00007FF800
7FF800007FF800
7FF800007FF800
7FF80000FFF800
FFF80000FFF800
FFF80001FFF000
FFF80001FFF000
FFF00003FFF000
FFF00003FFF000
FFF00007FFF000
FFF0000FFFF000
FFF0000FFFE000
FFF8001FFFE000
FFF8003FFFE000
FFF8007FFFE000
FFF800FFFFE000
FFFC03FFFFE000
7FFE07FFFFE000
7FFFFFFFFFE000
7FFFFFFEFFE000
3FFFFFFEFFC000
3FFFFFFCFFC000
1FFFFFF8FFC000
0FFFFFE0FFC000
0FFFFFC0FFC000
03FFFF00FFC000
01FFFC00FFC000
003FF000000000
ENDCHAR
STARTCHAR 00E5
ENCODING 229
SWIDTH 550 0
DWIDTH 55 0
BBX 50 77 3 -1
BITMAP
00000003F00000
0000001FFC0000
0000007FFF0000
000000FFFF8000
000001FFFFC000
000001FFFFE000
000003FFFFE000
000007FC1FF000
000007F80FF000
000007F007F000
000007F007F000
000007F007F000
000007F007F000
000007F00FF000
000007F80FE000
000007FC3FE000
000003FFFFC000
000003FFFFC000
000001FFFF8000
000000FFFF0000
0000007FFE0000
0000001FF80000
00000000000000
00000000000000
00000000000000
00000000000000
000003FFFE07C0
00003FFFFFFFC0
0000FFFFFFFF80
0003FFFFFFFF80
0007FFFFFFFF80
000FFFFFFFFF80
003FFFFFFFFF80
007FFFFFFFFF00
00FFFFFFFFFF00
00FFFF801FFF00
01FFFC000FFF00
03FFF8000FFF00
07FFF0000FFE00
07FFE0001FFE00
0FFFC0001FFE00
0FFF80001FFE00
1FFF00001FFE00
1FFF00001FFC00
1FFE00003FFC00
3FFE00003FFC00
3FFE00003FFC00
3FFC00003FFC00
7FFC00003FFC00
7FFC00007FF800
7FF800007FF800
7FF800007FF800
7FF80000FFF800
FFF80000FFF800
FFF80001FFF000
FFF80001FFF000
FFF00003FFF000
FFF00003FFF000
FFF00007FFF000
FFF0000FFFF000
FFF0000FFFE000
FFF8001FFFE000
FFF8003FFFE000
FFF8007FFFE000
FFF800FFFFE000
FFFC03FFFFE000
7FFE07FFFFE000
7FFFFFFFFFE000
7FFFFFFEFFE000
3FFFFFFEFFC000
3FFFFFFCFFC000
1FFFFFF8FFC000
0FFFFFE0FFC000
0FFFFFC0FFC000
03FFFF00FFC000
01FFFC00FFC000
003FF000000000
ENDCHAR
STARTCHAR 00E6
ENCODING 230
SWIDTH 550 0
DWIDTH 55 0
BBX 58 52 -2 -1
BITMAP
00000F80000F8000
0001FFFC00FFF000
000FFFFF03FFFC00
003FFFFF87FFFE00
003FFFFFDFFFFF00
003FFFFFFFFFFF80
003FFFFFFFFFFF80
003FFFFFFFFFFFC0
003FFFFFFFFFFFC0
003F80FFFFC1FFC0
003C003FFF01FFC0
0020003FFF00FFC0
0000003FFE00FFC0
0000001FFC00FFC0
0000001FF800FFC0
0000001FF800FFC0
0000003FF801FFC0
0000003FF001FF80
0000003FF003FF80
0000003FE007FF80
0000003FE01FFF00
00007FFFFFFFFE00
000FFFFFFFFFFC00
003FFFFFFFFFF800
00FFFFFFFFFFF000
01FFFFFFFFFFC000
07FFFFFFFFFF0000
0FFFFFFFFFFC0000
0FFFFFFFFF800000
1FFF00FF80000000
1FFC00FF80000000
3FF800FF80000000
3FF001FF80000000
7FF001FF80000000
7FE001FF80000000
7FE003FF80000000
7FE003FF80000000
7FE007FF80000000
FFE007FF80000000
FFE00FFFC0000000
FFE01FFFC0000000
FFE03FFFE0004000
7FF07FFFF003C000
7FFFFFFFFFFFC000
7FFFFFFFFFFFC000
7FFFFF7FFFFFC000
3FFFFF3FFFFFC000
3FFFFE3FFFFFC000
1FFFFC1FFFFFC000
0FFFF00FFFFFC000
07FFE007FFFE0000
00FF0000FFE00000
ENDCHAR
STARTCHAR 00E7
ENCODING 231
SWIDTH 550 0
DWIDTH 55 0
BBX 45 64 6 -14
BITMAP
000001FFFF00
00001FFFFFF8
00007FFFFFF8
0001FFFFFFF8
0007FFFFFFF8
000FFFFFFFF8
001FFFFFFFF0
003FFFFFFFF0
007FFFFFFFF0
00FFFFFFFFF0
01FFFF800FF0
03FFFE0000E0
07FFF8000020
07FFF0000000
0FFFE0000000
0FFFC0000000
1FFF80000000
1FFF00000000
3FFF00000000
3FFE00000000
3FFE00000000
7FFC00000000
7FFC00000000
7FFC00000000
7FF800000000
FFF800000000
FFF800000000
FFF800000000
FFF800000000
FFF800000000
FFF800000000
FFF800000000
FFF800000000
FFF800000000
FFF800000000
FFFC00000000
FFFC00000000
FFFE00000000
7FFF00001800
7FFFC001F800
7FFFFFFFF800
3FFFFFFFF800
3FFFFFFFF800
1FFFFFFFF800
0FFFFFFFF800
07FFFFFFF800
03FFFFFFF800
01FFFFFFF800
007FFFFFE000
000FFFFF0000
0007FFC00000
0007FF000000
0007FE000000
000FFE000000
000FFC000000
001FFC000000
001FF8000000
001FF8000000
003FF0000000
003FF0000000
003FE0000000
007FE0000000
007FC0000000
00FFC0000000
ENDCHAR
STARTCHAR 00E8
ENCODING 232
SWIDTH 550 0
DWIDTH 55 0
BBX 47 70 4 -1
BITMAP
00FFFF000000
007FFF800000
003FFFC00000
000FFFE00000
0007FFF00000
0003FFF80000
0000FFFC0000
00007FFE0000
00003FFE0000
00001FFF0000
000007FF8000
000003FFC000
000001FFE000
000000000000
000000000000
000000000000
000000000000
000000000000
0000003F0000
000007FFF800
00003FFFFF00
0000FFFFFFC0
0001FFFFFFE0
0007FFFFFFF0
000FFFFFFFF8
001FFFFFFFF8
003FFFFFFFFC
007FFF83FFFC
00FFFC007FFE
01FFF8003FFE
03FFF0001FFE
03FFE0001FFE
07FFC0001FFE
07FF80001FFE
0FFF00001FFE
0FFF00001FFE
1FFE00003FFC
1FFE00007FFC
3FFE0003FFF8
3FFC007FFFF8
3FFFFFFFFFF0
3FFFFFFFFFE0
7FFFFFFFFFC0
7FFFFFFFFF80
7FFFFFFFFE00
7FFFFFFFF800
7FFFFFFFC000
FFFFFFFC0000
FFF000000000
FFF000000000
FFF000000000
FFF000000000
FFF000000000
FFF000000000
FFF000000000
7FF800000000
7FF800000000
7FFC00000000
7FFE00000000
3FFF80003E00
3FFFF83FFE00
1FFFFFFFFE00
1FFFFFFFFE00
0FFFFFFFFE00
07FFFFFFFE00
03FFFFFFFE00
01FFFFFFFE00
007FFFFFFE00
001FFFFFF000
0003FFFC0000
ENDCHAR
STARTCHAR 00E9
ENCODING 233
SWIDTH 550 0
DWIDTH 55 0
BBX 52 70 4 -1
BITMAP
000000000FFFF0
000000001FFFE0
000000003FFFC0
000000007FFF00
00000000FFFE00
00000001FFFC00
00000003FFF000
00000007FFE000
0000000FFF8000
0000001FFF0000
0000003FFE0000
0000007FF80000
000000FFF00000
00000000000000
00000000000000
00000000000000
00000000000000
00000000000000
0000003F000000
000007FFF80000
00003FFFFF0000
0000FFFFFFC000
0001FFFFFFE000
0007FFFFFFF000
000FFFFFFFF800
001FFFFFFFF800
003FFFFFFFFC00
007FFF83FFFC00
00FFFC007FFE00
01FFF8003FFE00
03FFF0001FFE00
03FFE0001FFE00
07FFC0001FFE00
07FF80001FFE00
0FFF00001FFE00
0FFF00001FFE00
1FFE00003FFC00
1FFE00007FFC00
3FFE0003FFF800
3FFC007FFFF800
3FFFFFFFFFF000
3FFFFFFFFFE000
7FFFFFFFFFC000
7FFFFFFFFF8000
7FFFFFFFFE0000
7FFFFFFFF80000
7FFFFFFFC00000
FFFFFFFC000000
FFF00000000000
FFF00000000000
FFF00000000000
FFF00000000000
FFF00000000000
FFF00000000000
FFF00000000000
7FF80000000000
7FF80000000000
7FFC0000000000
7FFE0000000000
3FFF80003E0000
3FFFF83FFE0000
1FFFFFFFFE0000
1FFFFFFFFE0000
0FFFFFFFFE0000
07FFFFFFFE0000
03FFFFFFFE0000
01FFFFFFFE0000
007FFFFFFE0000
001FFFFFF00000
0003FFFC000000
ENDCHAR
STARTCHAR 00EA
ENCODING 234
SWIDTH 550 0
DWIDTH 55 0
BBX 47 70 4 -1
BITMAP
0000001FF800
0000003FFC00
0000007FFE00
000000FFFE00
000001FFFF00
000003FFFF80
00000FFFFFC0
00001FFEFFC0
00003FF87FE0
00007FF03FF0
0000FFE03FF8
0001FFC01FF8
0003FF800FFC
000000000000
000000000000
000000000000
000000000000
000000000000
0000003F0000
000007FFF800
00003FFFFF00
0000FFFFFFC0
0001FFFFFFE0
0007FFFFFFF0
000FFFFFFFF8
001FFFFFFFF8
003FFFFFFFFC
007FFF83FFFC
00FFFC007FFE
01FFF8003FFE
03FFF0001FFE
03FFE0001FFE
07FFC0001FFE
07FF80001FFE
0FFF00001FFE
0FFF00001FFE
1FFE00003FFC
1FFE00007FFC
3FFE0003FFF8
3FFC007FFFF8
3FFFFFFFFFF0
3FFFFFFFFFE0
7FFFFFFFFFC0
7FFFFFFFFF80
7FFFFFFFFE00
7FFFFFFFF800
7FFFFFFFC000
FFFFFFFC0000
FFF000000000
FFF000000000
FFF000000000
FFF000000000
FFF000000000
FFF000000000
FFF000000000
7FF800000000
7FF800000000
7FFC00000000
7FFE00000000
3FFF80003E00
3FFFF83FFE00
1FFFFFFFFE00
1FFFFFFFFE00
0FFFFFFFFE00
07FFFFFFFE00
03FFFFFFFE00
01FFFFFFFE00
007FFFFFFE00
001FFFFFF000
0003FFFC0000
ENDCHAR
STARTCHAR 00EB
ENCODING 235
SWIDTH 550 0
DWIDTH 55 0
BBX 48 71 4 -1
BITMAP
00001E0000E0
00007F8003F8
0000FFC00FFE
0001FFE00FFE
0001FFE01FFF
0003FFE01FFF
0003FFF01FFF
0003FFF01FFF
0003FFE01FFF
0001FFE01FFE
0001FFC01FFE
0000FFC00FFC
00007F0007F8
00001C0000C0
000000000000
000000000000
000000000000
000000000000
000000000000
0000003F0000
000007FFF800
00003FFFFF00
0000FFFFFFC0
0001FFFFFFE0
0007FFFFFFF0
000FFFFFFFF8
001FFFFFFFF8
003FFFFFFFFC
007FFF83FFFC
00FFFC007FFE
01FFF8003FFE
03FFF0001FFE
03FFE0001FFE
07FFC0001FFE
07FF80001FFE
0FFF00001FFE
0FFF00001FFE
1FFE00003FFC
1FFE00007FFC
3FFE0003FFF8
3FFC007FFFF8
3FFFFFFFFFF0
3FFFFFFFFFE0
7FFFFFFFFFC0
7FFFFFFFFF80
7FFFFFFFFE00
7FFFFFFFF800
7FFFFFFFC000
FFFFFFFC0000
FFF000000000
FFF000000000
FFF000000000
FFF000000000
FFF000000000
FFF000000000
FFF000000000
7FF800000000
7FF800000000
7FFC00000000
7FFE00000000
3FFF80003E00
3FFFF83FFE00
1FFFFFFFFE00
1FFFFFFFFE00
0FFFFFFFFE00
07FFFFFFFE00
03FFFFFFFE00
01FFFFFFFE00
007FFFFFFE00
001FFFFFF000
0003FFFC0000
ENDCHAR
STARTCHAR 00EC
ENCODING 236
SWIDTH 550 0
DWIDTH 55 0
BBX 39 70 8 -1
BITMAP
07FFF80000
03FFFC0000
01FFFE0000
007FFF0000
003FFF8000
001FFFC000
0007FFE000
0003FFF000
0001FFF000
0000FFF800
00003FFC00
00001FFE00
00000FFF00
0000000000
0000000000
0000000000
0000000000
0000000000
000F800000
03FFF80000
0FFFFE0000
7FFFFF8000
FFFFFFC000
FFFFFFC000
FFFFFFE000
FFFFFFE000
FFFFFFE000
FFFFFFF000
FE03FFF000
F001FFF000
C001FFF000
0000FFF000
0000FFF000
0001FFF000
0001FFF000
0001FFE000
0001FFE000
0001FFE000
0001FFE000
0003FFE000
0003FFC000
0003FFC000
0003FFC000
0003FFC000
0007FFC000
0007FF8000
0007FF8000
0007FF8000
0007FF8000
000FFF8000
000FFF0000
000FFF0000
000FFF0000
000FFF0000
001FFF0000
001FFF0000
001FFF0000
001FFF0002
001FFF000E
001FFF003E
001FFFC3FE
001FFFFFFE
000FFFFFFE
000FFFFFFE
000FFFFFFE
0007FFFFFE
0003FFFFFE
0001FFFFF8
00007FFFC0
00001FFC00
ENDCHAR
STARTCHAR 00ED
ENCODING 237
SWIDTH 550 0
DWIDTH 55 0
BBX 49 70 8 -1
BITMAP
000000007FFF80
00000000FFFF00
00000001FFFE00
00000003FFF800
00000007FFF000
0000000FFFE000
0000001FFF8000
0000003FFF0000
0000007FFC0000
000000FFF80000
000001FFF00000
000003FFC00000
000007FF800000
00000000000000
00000000000000
00000000000000
00000000000000
00000000000000
000F8000000000
03FFF800000000
0FFFFE00000000
7FFFFF80000000
FFFFFFC0000000
FFFFFFC0000000
FFFFFFE0000000
FFFFFFE0000000
FFFFFFE0000000
FFFFFFF0000000
FE03FFF0000000
F001FFF0000000
C001FFF0000000
0000FFF0000000
0000FFF0000000
0001FFF0000000
0001FFF0000000
0001FFE0000000
0001FFE0000000
0001FFE0000000
0001FFE0000000
0003FFE0000000
0003FFC0000000
0003FFC0000000
0003FFC0000000
0003FFC0000000
0007FFC0000000
0007FF80000000
0007FF80000000
0007FF80000000
0007FF80000000
000FFF80000000
000FFF00000000
000FFF00000000
000FFF00000000
000FFF00000000
001FFF00000000
001FFF00000000
001FFF00000000
001FFF00020000
001FFF000E0000
001FFF003E0000
001FFFC3FE0000
001FFFFFFE0000
000FFFFFFE0000
000FFFFFFE0000
000FFFFFFE0000
0007FFFFFE0000
0003FFFFFE0000
0001FFFFF80000
00007FFFC00000
00001FFC000000
ENDCHAR
STARTCHAR 00EE
ENCODING 238
SWIDTH 550 0
DWIDTH 55 0
BBX 42 70 8 -1
BITMAP
000001FF8000
000003FFC000
000007FFE000
00000FFFE000
00001FFFF000
00003FFFF800
0000FFFFFC00
0001FFEFFC00
0003FF87FE00
0007FF03FF00
000FFE03FF80
001FFC01FF80
003FF800FFC0
000000000000
000000000000
000000000000
000000000000
000000000000
000F80000000
03FFF8000000
0FFFFE000000
7FFFFF800000
FFFFFFC00000
FFFFFFC00000
FFFFFFE00000
FFFFFFE00000
FFFFFFE00000
FFFFFFF00000
FE03FFF00000
F001FFF00000
C001FFF00000
0000FFF00000
0000FFF00000
0001FFF00000
0001FFF00000
0001FFE00000
0001FFE00000
0001FFE00000
0001FFE00000
0003FFE00000
0003FFC00000
0003FFC00000
0003FFC00000
0003FFC00000
0007FFC00000
0007FF800000
0007FF800000
0007FF800000
0007FF800000
000FFF800000
000FFF000000
000FFF000000
000FFF000000
000FFF000000
001FFF000000
001FFF000000
001FFF000000
001FFF000200
001FFF000E00
001FFF003E00
001FFFC3FE00
001FFFFFFE00
000FFFFFFE00
000FFFFFFE00
000FFFFFFE00
0007FFFFFE00
0003FFFFFE00
0001FFFFF800
00007FFFC000
00001FFC0000
ENDCHAR
STARTCHAR 00EF
ENCODING 239
SWIDTH 550 0
DWIDTH 55 0
BBX 45 71 8 -1
BITMAP
0000F0000700
0003FC001FC0
0007FE007FF0
000FFF007FF0
000FFF00FFF8
001FFF00FFF8
001FFF80FFF8
001FFF80FFF8
001FFF00FFF8
000FFF00FFF0
000FFE00FFF0
0007FE007FE0
0003F8003FC0
0000E0000600
000000000000
000000000000
000000000000
000000000000
000000000000
000F80000000
03FFF8000000
0FFFFE000000
7FFFFF800000
FFFFFFC00000
FFFFFFC00000
FFFFFFE00000
FFFFFFE00000
FFFFFFE00000
FFFFFFF00000
FE03FFF00000
F001FFF00000
C001FFF00000
0000FFF00000
0000FFF00000
0001FFF00000
0001FFF00000
0001FFE00000
0001FFE00000
0001FFE00000
0001FFE00000
0003FFE00000
0003FFC00000
0003FFC00000
0003FFC00000
0003FFC00000
0007FFC00000
0007FF800000
0007FF800000
0007FF800000
0007FF800000
000FFF800000
000FFF000000
000FFF000000
000FFF000000
000FFF000000
001FFF000000
001FFF000000
001FFF000000
001FFF000200
001FFF000E00
001FFF003E00
001FFFC3FE00
001FFFFFFE00
000FFFFFFE00
000FFFFFFE00
000FFFFFFE00
0007FFFFFE00
0003FFFFFE00
0001FFFFF800
00007FFFC000
00001FFC0000
ENDCHAR
STARTCHAR 00F0
ENCODING 240
SWIDTH 550 0
DWIDTH 55 0
BBX 51 70 3 -1
BITMAP
00000FFFC00020
00000FFFE007E0
000007FFF07FE0
000003FFFFFFE0
000003FFFFFFE0
000001FFFFFFE0
000007FFFFFFE0
0000FFFFFFFFE0
0007FFFFFFFFE0
0007FFFFFFFF80
0007FFFFFFF000
0007FFFFFF8000
0007FFFFFF8000
0007FFFFFFC000
0007FF8FFFC000
0007F007FFE000
00060003FFE000
00000003FFF000
00000003FFF000
000007FFFFF000
00003FFFFFF800
0000FFFFFFF800
0003FFFFFFFC00
0007FFFFFFFC00
001FFFFFFFFC00
003FFFFFFFFC00
007FFFFFFFFE00
00FFFFFFFFFE00
00FFFF807FFE00
01FFFC003FFE00
03FFF8003FFE00
07FFF0001FFF00
07FFE0001FFF00
0FFFC0001FFF00
0FFF80001FFF00
1FFF00001FFF00
1FFF00001FFF00
1FFE00001FFF00
3FFE00001FFF00
3FFC00001FFF00
3FFC00001FFF00
7FFC00001FFF00
7FF800001FFE00
7FF800001FFE00
7FF800003FFE00
FFF800003FFE00
FFF800003FFE00
FFF000003FFE00
FFF000007FFC00
FFF000007FFC00
FFF000007FFC00
FFF00000FFF800
FFF00000FFF800
FFF00001FFF000
FFF80003FFF000
FFF80003FFF000
FFF80007FFE000
FFFC000FFFC000
FFFE003FFFC000
7FFF80FFFF8000
7FFFFFFFFF0000
3FFFFFFFFF0000
3FFFFFFFFE0000
1FFFFFFFFC0000
1FFFFFFFF00000
0FFFFFFFE00000
03FFFFFF800000
01FFFFFF000000
007FFFF8000000
000FFFC0000000
ENDCHAR
STARTCHAR 00F1
ENCODING 241
SWIDTH 550 0
DWIDTH 55 0
BBX 52 70 2 0
BITMAP
000001FC000000
00000FFF000200
00001FFFC00700
00003FFFF00780
00007FFFF81FC0
0000FFFFFFFFE0
0001FFFFFFFFF0
0003FFFFFFFFE0
0001FFFFFFFFC0
0000FE07FFFFC0
00007C03FFFF80
00003800FFFF00
000010003FFC00
000000000FF000
00000000000000
00000000000000
00000000000000
00000000000000
00000000000000
00000000780000
00FFC007FFC000
00FFC03FFFF000
00FFC07FFFF800
00FFC1FFFFFC00
00FFC3FFFFFC00
00FFC7FFFFFE00
00FFCFFFFFFE00
01FFDFFFFFFF00
01FFFFFFFFFF00
01FFFFFE3FFF00
01FFFFF01FFF00
01FFFFE00FFF00
01FFFFC00FFF00
01FFFF800FFF00
01FFFF000FFF00
01FFFE000FFF00
03FFFC000FFF00
03FFF8000FFF00
03FFF8000FFF00
03FFF0000FFF00
03FFE0001FFE00
03FFE0001FFE00
03FFC0001FFE00
07FFC0001FFE00
07FFC0003FFE00
07FF80003FFC00
07FF80003FFC00
07FF80003FFC00
0FFF00003FFC00
0FFF00007FF800
0FFF00007FF800
0FFF00007FF800
0FFE00007FF800
1FFE00007FF800
1FFE0000FFF000
1FFE0000FFF000
1FFE0000FFF000
1FFE0000FFF000
3FFC0000FFF000
3FFC0001FFE000
3FFC0001FFE000
3FFC0001FFE000
3FFC0001FFE000
7FF80001FFE000
7FF80003FFC000
7FF80003FFC000
7FF80003FFC000
7FF80003FFC000
FFF00003FFC000
FFF00007FF8000
ENDCHAR
STARTCHAR 00F2
ENCODING 242
SWIDTH 550 0
DWIDTH 55 0
BBX 49 70 3 -1
BITMAP
007FFF80000000
003FFFC0000000
001FFFE0000000
0007FFF0000000
0003FFF8000000
0001FFFC000000
00007FFE000000
00003FFF000000
00001FFF000000
00000FFF800000
000003FFC00000
000001FFE00000
000000FFF00000
00000000000000
00000000000000
00000000000000
00000000000000
00000000000000
0000001F000000
000007FFFC0000
00003FFFFF0000
0000FFFFFFC000
0003FFFFFFE000
0007FFFFFFF000
001FFFFFFFF800
003FFFFFFFFC00
007FFFFFFFFE00
00FFFFFFFFFE00
01FFFFFFFFFF00
01FFFE00FFFF00
03FFF8003FFF00
07FFF0001FFF80
07FFE0000FFF80
0FFFC0000FFF80
0FFF80000FFF80
1FFF000007FF80
1FFF000007FF80
3FFE000007FF80
3FFE000007FF80
3FFC000007FF80
7FFC000007FF80
7FFC000007FF80
7FF800000FFF80
FFF800000FFF80
FFF800000FFF80
FFF800000FFF00
FFF000000FFF00
FFF000001FFF00
FFF000001FFF00
FFF000003FFE00
FFF000003FFE00
FFF000007FFE00
FFF000007FFC00
FFF80000FFFC00
FFF80001FFF800
FFF80001FFF800
FFFC0003FFF000
FFFE000FFFE000
7FFF001FFFE000
7FFFE0FFFFC000
7FFFFFFFFF8000
3FFFFFFFFF0000
1FFFFFFFFE0000
1FFFFFFFFC0000
0FFFFFFFF80000
07FFFFFFE00000
03FFFFFFC00000
00FFFFFF000000
003FFFFC000000
0007FFC0000000
ENDCHAR
STARTCHAR 00F3
ENCODING 243
SWIDTH 550 0
DWIDTH 55 0
BBX 53 70 3 -1
BITMAP
0000000007FFF8
000000000FFFF0
000000001FFFE0
000000003FFF80
000000007FFF00
00000000FFFE00
00000001FFF800
00000003FFF000
00000007FFC000
0000000FFF8000
0000001FFF0000
0000003FFC0000
0000007FF80000
00000000000000
00000000000000
00000000000000
00000000000000
00000000000000
0000001F000000
000007FFFC0000
00003FFFFF0000
0000FFFFFFC000
0003FFFFFFE000
0007FFFFFFF000
001FFFFFFFF800
003FFFFFFFFC00
007FFFFFFFFE00
00FFFFFFFFFE00
01FFFFFFFFFF00
01FFFE00FFFF00
03FFF8003FFF00
07FFF0001FFF80
07FFE0000FFF80
0FFFC0000FFF80
0FFF80000FFF80
1FFF000007FF80
1FFF000007FF80
3FFE000007FF80
3FFE000007FF80
3FFC000007FF80
7FFC000007FF80
7FFC000007FF80
7FF800000FFF80
FFF800000FFF80
FFF800000FFF80
FFF800000FFF00
FFF000000FFF00
FFF000001FFF00
FFF000001FFF00
FFF000003FFE00
FFF000003FFE00
FFF000007FFE00
FFF000007FFC00
FFF80000FFFC00
FFF80001FFF800
FFF80001FFF800
FFFC0003FFF000
FFFE000FFFE000
7FFF001FFFE000
7FFFE0FFFFC000
7FFFFFFFFF8000
3FFFFFFFFF0000
1FFFFFFFFE0000
1FFFFFFFFC0000
0FFFFFFFF80000
07FFFFFFE00000
03FFFFFFC00000
00FFFFFF000000
003FFFFC000000
0007FFC0000000
ENDCHAR
STARTCHAR 00F4
ENCODING 244
SWIDTH 550 0
DWIDTH 55 0
BBX 49 70 3 -1
BITMAP
0000000FFC0000
0000001FFE0000
0000003FFF0000
0000007FFF0000
000000FFFF8000
000001FFFFC000
000007FFFFE000
00000FFF7FE000
00001FFC3FF000
00003FF81FF800
00007FF01FFC00
0000FFE00FFC00
0001FFC007FE00
00000000000000
00000000000000
00000000000000
00000000000000
00000000000000
0000001F000000
000007FFFC0000
00003FFFFF0000
0000FFFFFFC000
0003FFFFFFE000
0007FFFFFFF000
001FFFFFFFF800
003FFFFFFFFC00
007FFFFFFFFE00
00FFFFFFFFFE00
01FFFFFFFFFF00
01FFFE00FFFF00
03FFF8003FFF00
07FFF0001FFF80
07FFE0000FFF80
0FFFC0000FFF80
0FFF80000FFF80
1FFF000007FF80
1FFF000007FF80
3FFE000007FF80
3FFE000007FF80
3FFC000007FF80
7FFC000007FF80
7FFC000007FF80
7FF800000FFF80
FFF800000FFF80
FFF800000FFF80
FFF800000FFF00
FFF000000FFF00
FFF000001FFF00
FFF000001FFF00
FFF000003FFE00
FFF000003FFE00
FFF000007FFE00
FFF000007FFC00
FFF80000FFFC00
FFF80001FFF800
FFF80001FFF800
FFFC0003FFF000
FFFE000FFFE000
7FFF001FFFE000
7FFFE0FFFFC000
7FFFFFFFFF8000
3FFFFFFFFF0000
1FFFFFFFFE0000
1FFFFFFFFC0000
0FFFFFFFF80000
07FFFFFFE00000
03FFFFFFC00000
00FFFFFF000000
003FFFFC000000
0007FFC0000000
ENDCHAR
STARTCHAR 00F5
ENCODING 245
SWIDTH 550 0
DWIDTH 55 0
BBX 51 71 3 -1
BITMAP
000003F8000000
00001FFE000400
00003FFF800E00
00007FFFE00F00
0000FFFFF03F80
0001FFFFFFFFC0
0003FFFFFFFFE0
0007FFFFFFFFC0
0003FFFFFFFF80
0001FC0FFFFF80
0000F807FFFF00
00007001FFFE00
000020007FF800
000000001FE000
00000000000000
00000000000000
00000000000000
00000000000000
00000000000000
0000001F000000
000007FFFC0000
00003FFFFF0000
0000FFFFFFC000
0003FFFFFFE000
0007FFFFFFF000
001FFFFFFFF800
003FFFFFFFFC00
007FFFFFFFFE00
00FFFFFFFFFE00
01FFFFFFFFFF00
01FFFE00FFFF00
03FFF8003FFF00
07FFF0001FFF80
07FFE0000FFF80
0FFFC0000FFF80
0FFF80000FFF80
1FFF000007FF80
1FFF000007FF80
3FFE000007FF80
3FFE000007FF80
3FFC000007FF80
7FFC000007FF80
7FFC000007FF80
7FF800000FFF80
FFF800000FFF80
FFF800000FFF80
FFF800000FFF00
FFF000000FFF00
FFF000001FFF00
FFF000001FFF00
FFF000003FFE00
FFF000003FFE00
FFF000007FFE00
FFF000007FFC00
FFF80000FFFC00
FFF80001FFF800
FFF80001FFF800
FFFC0003FFF000
FFFE000FFFE000
7FFF001FFFE000
7FFFE0FFFFC000
7FFFFFFFFF8000
3FFFFFFFFF0000
1FFFFFFFFE0000
1FFFFFFFFC0000
0FFFFFFFF80000
07FFFFFFE00000
03FFFFFFC00000
00FFFFFF000000
003FFFFC000000
0007FFC0000000
ENDCHAR
STARTCHAR 00F6
ENCODING 246
SWIDTH 550 0
DWIDTH 55 0
BBX 49 71 3 -1
BITMAP
00000F00007000
00003FC001FC00
00007FE007FF00
0000FFF007FF00
0000FFF00FFF80
0001FFF00FFF80
0001FFF80FFF80
0001FFF80FFF80
0001FFF00FFF80
0000FFF00FFF00
0000FFE00FFF00
00007FE007FE00
00003F8003FC00
00000E00006000
00000000000000
00000000000000
00000000000000
00000000000000
00000000000000
0000001F000000
000007FFFC0000
00003FFFFF0000
0000FFFFFFC000
0003FFFFFFE000
0007FFFFFFF000
001FFFFFFFF800
003FFFFFFFFC00
007FFFFFFFFE00
00FFFFFFFFFE00
01FFFFFFFFFF00
01FFFE00FFFF00
03FFF8003FFF00
07FFF0001FFF80
07FFE0000FFF80
0FFFC0000FFF80
0FFF80000FFF80
1FFF000007FF80
1FFF000007FF80
3FFE000007FF80
3FFE000007FF80
3FFC000007FF80
7FFC000007FF80
7FFC000007FF80
7FF800000FFF80
FFF800000FFF80
FFF800000FFF80
FFF800000FFF00
FFF000000FFF00
FFF000001FFF00
FFF000001FFF00
FFF000003FFE00
FFF000003FFE00
FFF000007FFE00
FFF000007FFC00
FFF80000FFFC00
FFF80001FFF800
FFF80001FFF800
FFFC0003FFF000
FFFE000FFFE000
7FFF001FFFE000
7FFFE0FFFFC000
7FFFFFFFFF8000
3FFFFFFFFF0000
1FFFFFFFFE0000
1FFFFFFFFC0000
0FFFFFFFF80000
07FFFFFFE00000
03FFFFFFC00000
00FFFFFF000000
003FFFFC000000
0007FFC0000000
ENDCHAR
STARTCHAR 00F7
ENCODING 247
SWIDTH 550 0
DWIDTH 55 0
BBX 49 53 3 0
BITMAP
0000003E000000
000000FF800000
000001FFC00000
000003FFE00000
000003FFE00000
000007FFF00000
000007FFF00000
000007FFF00000
000007FFF00000
000007FFF00000
000007FFE00000
000003FFE00000
000001FFC00000
000000FF000000
0000003C000000
00000000000000
00000000000000
00000000000000
00000000000000
00000000000000
00000000000000
3FFFFFFFFFFF80
3FFFFFFFFFFF80
3FFFFFFFFFFF80
7FFFFFFFFFFF80
7FFFFFFFFFFF80
7FFFFFFFFFFF00
7FFFFFFFFFFF00
7FFFFFFFFFFF00
FFFFFFFFFFFF00
FFFFFFFFFFFF00
00000000000000
00000000000000
00000000000000
00000000000000
00000000000000
00000000000000
00000000000000
00001E00000000
00007FC0000000
0001FFE0000000
0001FFE0000000
0003FFF0000000
0003FFF0000000
0007FFF0000000
0007FFF0000000
0007FFF0000000
0007FFF0000000
0003FFF0000000
0003FFE0000000
0001FFC0000000
0000FF80000000
00001C00000000
ENDCHAR
STARTCHAR 00F8
ENCODING 248
SWIDTH 550 0
DWIDTH 55 0
BBX 49 70 3 -10
BITMAP
0000000003FF00
0000000003FF00
0000000007FE00
0000000007FE00
000000000FFC00
000000000FFC00
000000001FF800
000000001FF800
000000003FF000
0000003F7FE000
000007FFFFE000
00003FFFFFC000
0000FFFFFFC000
0003FFFFFFE000
0007FFFFFFF000
001FFFFFFFF800
003FFFFFFFFC00
007FFFFFFFFE00
00FFFFFFFFFE00
01FFFF0FFFFF00
01FFF81FFFFF00
03FFF01FFFFF00
07FFE03FFFFF80
07FFC03FFFFF80
0FFF807FE7FF80
1FFF007FE7FF80
1FFE00FFC7FF80
1FFE00FFC7FF80
3FFC01FF87FF80
3FFC03FF07FF80
7FF803FF07FF80
7FF807FE07FF80
7FF807FE07FF80
7FF00FFC07FF80
FFF00FFC07FF80
FFF01FF807FF80
FFF01FF80FFF00
FFF03FF00FFF00
FFF03FF00FFF00
FFE07FE01FFF00
FFE07FC01FFE00
FFE0FFC01FFE00
FFE1FF803FFE00
FFF1FF803FFC00
FFF3FF007FFC00
FFF3FF00FFF800
FFF7FE01FFF800
FFFFFE01FFF000
FFFFFC07FFE000
7FFFFC0FFFE000
7FFFF83FFFC000
7FFFFFFFFF8000
3FFFFFFFFF0000
1FFFFFFFFE0000
1FFFFFFFFC0000
0FFFFFFFF80000
07FFFFFFF00000
01FFFFFFC00000
01FFFFFF000000
03FFFFFC000000
03FFFFC0000000
07FE0000000000
0FFC0000000000
0FFC0000000000
1FF80000000000
1FF80000000000
3FF00000000000
3FF00000000000
7FE00000000000
7FE00000000000
ENDCHAR
STARTCHAR 00F9
ENCODING 249
SWIDTH 550 0
DWIDTH 55 0
BBX 48 70 5 -1
BITMAP
01FFFE000000
00FFFF000000
007FFF800000
001FFFC00000
000FFFE00000
0007FFF00000
0001FFF80000
0000FFFC0000
00007FFC0000
00003FFE0000
00000FFF0000
000007FF8000
000003FFC000
000000000000
000000000000
000000000000
000000000000
000000000000
000000000000
01FFE0000FFF
03FFC0000FFF
03FFC0000FFE
03FFC0001FFE
03FFC0001FFE
03FFC0001FFE
07FF80001FFE
07FF80001FFC
07FF80003FFC
07FF80003FFC
07FF80003FFC
0FFF00003FFC
0FFF00003FF8
0FFF00007FF8
0FFF00007FF8
0FFF00007FF8
1FFE00007FF8
1FFE00007FF0
1FFE0000FFF0
1FFE0000FFF0
1FFE0000FFF0
3FFC0000FFF0
3FFC0000FFF0
3FFC0001FFE0
3FFC0001FFE0
3FFC0001FFE0
7FF80003FFE0
7FF80003FFE0
7FF80007FFC0
7FF80007FFC0
7FF8000FFFC0
FFF0000FFFC0
FFF0001FFFC0
FFF0003FFFC0
FFF0003FFF80
FFF0007FFF80
FFF000FFFF80
FFF001FFFF80
FFF003FFFF80
FFF80FFFFF80
FFFC1FFFFF80
FFFFFFFFFF80
FFFFFFFBFF80
FFFFFFFBFF00
7FFFFFF3FF00
7FFFFFE3FF00
3FFFFF83FF00
1FFFFF03FF00
0FFFFC03FF00
07FFF003FF00
00FFC0000000
ENDCHAR
STARTCHAR 00FA
ENCODING 250
SWIDTH 550 0
DWIDTH 55 0
BBX 51 70 5 -1
BITMAP
000000001FFFE0
000000003FFFC0
000000007FFF80
00000000FFFE00
00000001FFFC00
00000003FFF800
00000007FFE000
0000000FFFC000
0000001FFF0000
0000003FFE0000
0000007FFC0000
000000FFF00000
000001FFE00000
00000000000000
00000000000000
00000000000000
00000000000000
00000000000000
00000000000000
01FFE0000FFF00
03FFC0000FFF00
03FFC0000FFE00
03FFC0001FFE00
03FFC0001FFE00
03FFC0001FFE00
07FF80001FFE00
07FF80001FFC00
07FF80003FFC00
07FF80003FFC00
07FF80003FFC00
0FFF00003FFC00
0FFF00003FF800
0FFF00007FF800
0FFF00007FF800
0FFF00007FF800
1FFE00007FF800
1FFE00007FF000
1FFE0000FFF000
1FFE0000FFF000
1FFE0000FFF000
3FFC0000FFF000
3FFC0000FFF000
3FFC0001FFE000
3FFC0001FFE000
3FFC0001FFE000
7FF80003FFE000
7FF80003FFE000
7FF80007FFC000
7FF80007FFC000
7FF8000FFFC000
FFF0000FFFC000
FFF0001FFFC000
FFF0003FFFC000
FFF0003FFF8000
FFF0007FFF8000
FFF000FFFF8000
FFF001FFFF8000
FFF003FFFF8000
FFF80FFFFF8000
FFFC1FFFFF8000
FFFFFFFFFF8000
FFFFFFFBFF8000
FFFFFFFBFF0000
7FFFFFF3FF0000
7FFFFFE3FF0000
3FFFFF83FF0000
1FFFFF03FF0000
0FFFFC03FF0000
07FFF003FF0000
00FFC000000000
ENDCHAR
STARTCHAR 00FB
ENCODING 251
SWIDTH 550 0
DWIDTH 55 0
BBX 48 70 5 -1
BITMAP
0000003FF000
0000007FF800
000000FFFC00
000001FFFC00
000003FFFE00
000007FFFF00
00001FFFFF80
00003FFDFF80
00007FF0FFC0
0000FFE07FE0
0001FFC07FF0
0003FF803FF0
0007FF001FF8
000000000000
000000000000
000000000000
000000000000
000000000000
000000000000
01FFE0000FFF
03FFC0000FFF
03FFC0000FFE
03FFC0001FFE
03FFC0001FFE
03FFC0001FFE
07FF80001FFE
07FF80001FFC
07FF80003FFC
07FF80003FFC
07FF80003FFC
0FFF00003FFC
0FFF00003FF8
0FFF00007FF8
0FFF00007FF8
0FFF00007FF8
1FFE00007FF8
1FFE00007FF0
1FFE0000FFF0
1FFE0000FFF0
1FFE0000FFF0
3FFC0000FFF0
3FFC0000FFF0
3FFC0001FFE0
3FFC0001FFE0
3FFC0001FFE0
7FF80003FFE0
7FF80003FFE0
7FF80007FFC0
7FF80007FFC0
7FF8000FFFC0
FFF0000FFFC0
FFF0001FFFC0
FFF0003FFFC0
FFF0003FFF80
FFF0007FFF80
FFF000FFFF80
FFF001FFFF80
FFF003FFFF80
FFF80FFFFF80
FFFC1FFFFF80
FFFFFFFFFF80
FFFFFFFBFF80
FFFFFFFBFF00
7FFFFFF3FF00
7FFFFFE3FF00
3FFFFF83FF00
1FFFFF03FF00
0FFFFC03FF00
07FFF003FF00
00FFC0000000
ENDCHAR
STARTCHAR 00FC
ENCODING 252
SWIDTH 550 0
DWIDTH 55 0
BBX 48 71 5 -1
BITMAP
00003C0001C0
0000FF0007F0
0001FF801FFC
0003FFC01FFC
0003FFC03FFE
0007FFC03FFE
0007FFE03FFE
0007FFE03FFE
0007FFC03FFE
0003FFC03FFC
0003FF803FFC
0001FF801FF8
0000FE000FF0
000038000180
000000000000
000000000000
000000000000
000000000000
000000000000
000000000000
01FFE0000FFF
03FFC0000FFF
03FFC0000FFE
03FFC0001FFE
03FFC0001FFE
03FFC0001FFE
07FF80001FFE
07FF80001FFC
07FF80003FFC
07FF80003FFC
07FF80003FFC
0FFF00003FFC
0FFF00003FF8
0FFF00007FF8
0FFF00007FF8
0FFF00007FF8
1FFE00007FF8
1FFE00007FF0
1FFE0000FFF0
1FFE0000FFF0
1FFE0000FFF0
3FFC0000FFF0
3FFC0000FFF0
3FFC0001FFE0
3FFC0001FFE0
3FFC0001FFE0
7FF80003FFE0
7FF80003FFE0
7FF80007FFC0
7FF80007FFC0
7FF8000FFFC0
FFF0000FFFC0
FFF0001FFFC0
FFF0003FFFC0
FFF0003FFF80
FFF0007FFF80
FFF000FFFF80
FFF001FFFF80
FFF003FFFF80
FFF80FFFFF80
FFFC1FFFFF80
FFFFFFFFFF80
FFFFFFFBFF80
FFFFFFFBFF00
7FFFFFF3FF00
7FFFFFE3FF00
3FFFFF83FF00
1FFFFF03FF00
0FFFFC03FF00
07FFF003FF00
00FFC0000000
ENDCHAR
STARTCHAR 00FD
ENCODING 253
SWIDTH 550 0
DWIDTH 55 0
BBX 62 89 -6 -21
BITMAP
000000000003FFFC
000000000007FFF8
00000000000FFFF0
00000000001FFFC0
00000000003FFF80
00000000007FFF00
0000000000FFFC00
0000000001FFF800
0000000003FFE000
0000000007FFC000
000000000FFF8000
000000001FFE0000
000000003FFC0000
0000000000000000
0000000000000000
0000000000000000
0000000000000000
0000000000000000
0000000000000000
000FFF000001FFF0
000FFF800001FFF0
000FFF800001FFF0
0007FF800001FFE0
0007FF800001FFE0
0007FF800001FFE0
0007FFC00003FFE0
0007FFC00003FFE0
0003FFC00003FFE0
0003FFC00003FFC0
0003FFC00003FFC0
0003FFC00007FFC0
0003FFE00007FF80
0001FFE00007FF80
0001FFE00007FF80
0001FFE0000FFF00
0001FFE0000FFF00
0001FFF0001FFF00
0000FFF0001FFE00
0000FFF0001FFE00
0000FFF0003FFC00
0000FFF0003FFC00
0000FFF0007FFC00
00007FF8007FF800
00007FF800FFF800
00007FF800FFF000
00007FF801FFF000
00007FF803FFE000
00003FFC03FFC000
00003FFC07FFC000
00003FFC07FF8000
00003FFC0FFF8000
00003FFC1FFF0000
00001FFC1FFE0000
00001FFE3FFE0000
00001FFE3FFC0000
00001FFE7FFC0000
00001FFEFFF80000
00000FFEFFF00000
00000FFFFFF00000
00000FFFFFE00000
00000FFFFFC00000
00000FFFFF800000
000007FFFF800000
000007FFFF000000
000007FFFE000000
000007FFFE000000
000007FFFC000000
000003FFF8000000
000003FFF0000000
000007FFF0000000
000007FFE0000000
00000FFFC0000000
00001FFF80000000
00003FFF00000000
00007FFF00000000
0000FFFE00000000
0001FFFC00000000
0007FFF800000000
000FFFF000000000
FFFFFFE000000000
FFFFFFC000000000
FFFFFF8000000000
FFFFFF0000000000
FFFFFE0000000000
FFFFF80000000000
FFFFF00000000000
FFFFC00000000000
FFFF000000000000
FFF8000000000000
ENDCHAR
STARTCHAR 00FE
ENCODING 254
SWIDTH 550 0
DWIDTH 55 0
BBX 54 88 -2 -19
BITMAP
00007FF8000000
00007FF8000000
00007FF8000000
00007FF8000000
00007FF8000000
0000FFF0000000
0000FFF0000000
0000FFF0000000
0000FFF0000000
0000FFF0000000
0001FFE0000000
0001FFE0000000
0001FFE0000000
0001FFE0000000
0001FFE0000000
0003FFC0000000
0003FFC0000000
0003FFC0000000
0003FFC00F8000
0003FF80FFF800
0007FF83FFFE00
0007FF8FFFFF80
0007FF1FFFFFC0
0007FF3FFFFFC0
0007FF7FFFFFE0
000FFEFFFFFFF0
000FFFFFFFFFF0
000FFFFFFFFFF8
000FFFFFC7FFF8
000FFFFF01FFF8
001FFFFE00FFF8
001FFFF8007FF8
001FFFF0007FFC
001FFFE0007FFC
001FFFC0007FFC
003FFFC0007FFC
003FFF80007FFC
003FFF00007FFC
003FFF00007FFC
003FFE00007FFC
007FFE00007FF8
007FFC00007FF8
007FFC00007FF8
007FF800007FF8
007FF80000FFF8
00FFF00000FFF8
00FFF00000FFF0
00FFF00000FFF0
00FFF00001FFF0
00FFF00001FFF0
01FFE00003FFE0
01FFE00003FFE0
01FFE00007FFE0
01FFE00007FFC0
01FFE0000FFFC0
03FFC0001FFF80
03FFC0003FFF80
03FFC0007FFF00
03FFC000FFFE00
03FFC003FFFC00
07FFFE7FFFFC00
07FFFFFFFFF800
07FFFFFFFFF000
07FFFFFFFFE000
07FFFFFFFF8000
0FFFFFFFFF0000
0FFFFFFFFC0000
0FFFFFFFF00000
0FFFFFFF800000
0FFF7FF8000000
1FFE0000000000
1FFE0000000000
1FFE0000000000
1FFE0000000000
1FFE0000000000
3FFC0000000000
3FFC0000000000
3FFC0000000000
3FFC0000000000
3FFC0000000000
7FF80000000000
7FF80000000000
7FF80000000000
7FF80000000000
7FF80000000000
FFF00000000000
FFF00000000000
FFF00000000000
ENDCHAR
STARTCHAR 00FF
ENCODING 255
SWIDTH 550 0
DWIDTH 55 0
BBX 60 90 -6 -21
BITMAP
0000000780003800
0000001FE000FE00
0000003FF003FF80
0000007FF803FF80
0000007FF807FFC0
000000FFF807FFC0
000000FFFC07FFC0
000000FFFC07FFC0
000000FFF807FFC0
0000007FF807FF80
0000007FF007FF80
0000003FF003FF00
0000001FC001FE00
0000000700003000
0000000000000000
0000000000000000
0000000000000000
0000000000000000
0000000000000000
0000000000000000
000FFF000001FFF0
000FFF800001FFF0
000FFF800001FFF0
0007FF800001FFE0
0007FF800001FFE0
0007FF800001FFE0
0007FFC00003FFE0
0007FFC00003FFE0
0003FFC00003FFE0
0003FFC00003FFC0
0003FFC00003FFC0
0003FFC00007FFC0
0003FFE00007FF80
0001FFE00007FF80
0001FFE00007FF80
0001FFE0000FFF00
0001FFE0000FFF00
0001FFF0001FFF00
0000FFF0001FFE00
0000FFF0001FFE00
0000FFF0003FFC00
0000FFF0003FFC00
0000FFF0007FFC00
00007FF8007FF800
00007FF800FFF800
00007FF800FFF000
00007FF801FFF000
00007FF803FFE000
00003FFC03FFC000
00003FFC07FFC000
00003FFC07FF8000
00003FFC0FFF8000
00003FFC1FFF0000
00001FFC1FFE0000
00001FFE3FFE0000
00001FFE3FFC0000
00001FFE7FFC0000
00001FFEFFF80000
00000FFEFFF00000
00000FFFFFF00000
00000FFFFFE00000
00000FFFFFC00000
00000FFFFF800000
000007FFFF800000
000007FFFF000000
000007FFFE000000
000007FFFE000000
000007FFFC000000
000003FFF8000000
000003FFF0000000
000007FFF0000000
000007FFE0000000
00000FFFC0000000
00001FFF80000000
00003FFF00000000
00007FFF00000000
0000FFFE00000000
0001FFFC00000000
0007FFF800000000
000FFFF000000000
FFFFFFE000000000
FFFFFFC000000000
FFFFFF8000000000
FFFFFF0000000000
FFFFFE0000000000
FFFFF80000000000
FFFFF00000000000
FFFFC00000000000
FFFF000000000000
FFF8000000000000
ENDCHAR
STARTCHAR 0100
ENCODING 256
SWIDTH 550 0
DWIDTH 55 0
BBX 58 80 -5 0
BITMAP
00000007FFFFFFC0
00000007FFFFFF80
00000007FFFFFF80
00000007FFFFFF80
0000000FFFFFFF80
0000000FFFFFFF80
0000000FFFFFFF00
0000000FFFFFFF00
0000000FFFFFFF00
0000000000000000
0000000000000000
0000000000000000
0000000000000000
0000000000000000
0000000000000000
0000000000000000
00000000FFFF8000
00000001FFFF8000
00000001FFFF8000
00000003FFFF8000
00000003FFFF8000
00000007FFFF8000
00000007FFFF8000
0000000FFFFF8000
0000000FFFFFC000
0000001FFFFFC000
0000001FFFFFC000
0000003FFFFFC000
0000003FFFFFC000
0000007FFBFFC000
0000007FFBFFC000
000000FFF3FFC000
000000FFF3FFC000
000001FFE3FFC000
000001FFE1FFC000
000003FFC1FFE000
000003FFC1FFE000
000007FF81FFE000
000007FF81FFE000
00000FFF01FFE000
00000FFF01FFE000
00001FFE01FFE000
00001FFE01FFE000
00003FFC01FFE000
00003FFC01FFE000
00007FFC01FFF000
00007FF801FFF000
0000FFF800FFF000
0000FFF000FFF000
0001FFF000FFF000
0001FFE000FFF000
0003FFE000FFF000
0003FFC000FFF000
0007FFC000FFF000
0007FF8000FFF000
000FFF8000FFF000
000FFF0000FFF800
001FFF0000FFF800
001FFFFFFFFFF800
003FFFFFFFFFF800
003FFFFFFFFFF800
007FFFFFFFFFF800
007FFFFFFFFFF800
00FFFFFFFFFFF800
00FFFFFFFFFFF800
01FFFFFFFFFFF800
01FFFFFFFFFFFC00
03FFE000007FFC00
03FFC000007FFC00
07FFC000007FFC00
07FF8000007FFC00
0FFF8000007FFC00
0FFF0000007FFC00
1FFF0000003FFC00
1FFE0000003FFC00
3FFE0000003FFC00
3FFC0000003FFC00
7FFC0000003FFE00
7FF80000003FFE00
FFF80000003FFE00
ENDCHAR
STARTCHAR 0101
ENCODING 257
SWIDTH 550 0
DWIDTH 55 0
BBX 50 68 3 -1
BITMAP
00001FFFFFFC00
00001FFFFFFC00
00001FFFFFFC00
00001FFFFFFC00
00003FFFFFFC00
00003FFFFFF800
00003FFFFFF800
00003FFFFFF800
00000000000000
00000000000000
00000000000000
00000000000000
00000000000000
00000000000000
00000000000000
00000000000000
00000000000000
000003FFFE07C0
00003FFFFFFFC0
0000FFFFFFFF80
0003FFFFFFFF80
0007FFFFFFFF80
000FFFFFFFFF80
003FFFFFFFFF80
007FFFFFFFFF00
00FFFFFFFFFF00
00FFFF801FFF00
01FFFC000FFF00
03FFF8000FFF00
07FFF0000FFE00
07FFE0001FFE00
0FFFC0001FFE00
0FFF80001FFE00
1FFF00001FFE00
1FFF00001FFC00
1FFE00003FFC00
3FFE00003FFC00
3FFE00003FFC00
3FFC00003FFC00
7FFC00003FFC00
7FFC00007FF800
7FF800007FF800
7FF800007FF800
7FF80000FFF800
FFF80000FFF800
FFF80001FFF000
FFF80001FFF000
FFF00003FFF000
FFF00003FFF000
FFF00007FFF000
FFF0000FFFF000
FFF0000FFFE000
FFF8001FFFE000
FFF8003FFFE000
FFF8007FFFE000
FFF800FFFFE000
FFFC03FFFFE000
7FFE07FFFFE000
7FFFFFFFFFE000
7FFFFFFEFFE000
3FFFFFFEFFC000
3FFFFFFCFFC000
1FFFFFF8FFC000
0FFFFFE0FFC000
0FFFFFC0FFC000
03FFFF00FFC000
01FFFC00FFC000
003FF000000000
ENDCHAR
STARTCHAR 0102
ENCODING 258
SWIDTH 550 0
DWIDTH 55 0
BBX 58 82 -5 0
BITMAP
00000003FC003FC0
00000007FC007FC0
00000007FC00FFC0
00000003FE01FF80
00000003FFCFFF80
00000003FFFFFF00
00000003FFFFFF00
00000001FFFFFE00
00000000FFFFFC00
000000007FFFF000
000000003FFFE000
000000000FFF0000
0000000000000000
0000000000000000
0000000000000000
0000000000000000
0000000000000000
0000000000000000
00000000FFFF8000
00000001FFFF8000
00000001FFFF8000
00000003FFFF8000
00000003FFFF8000
00000007FFFF8000
00000007FFFF8000
0000000FFFFF8000
0000000FFFFFC000
0000001FFFFFC000
0000001FFFFFC000
0000003FFFFFC000
0000003FFFFFC000
0000007FFBFFC000
0000007FFBFFC000
000000FFF3FFC000
000000FFF3FFC000
000001FFE3FFC000
000001FFE1FFC000
000003FFC1FFE000
000003FFC1FFE000
000007FF81FFE000
000007FF81FFE000
00000FFF01FFE000
00000FFF01FFE000
00001FFE01FFE000
00001FFE01FFE000
00003FFC01FFE000
00003FFC01FFE000
00007FFC01FFF000
00007FF801FFF000
0000FFF800FFF000
0000FFF000FFF000
0001FFF000FFF000
0001FFE000FFF000
0003FFE000FFF000
0003FFC000FFF000
0007FFC000FFF000
0007FF8000FFF000
000FFF8000FFF000
000FFF0000FFF800
001FFF0000FFF800
001FFFFFFFFFF800
003FFFFFFFFFF800
003FFFFFFFFFF800
007FFFFFFFFFF800
007FFFFFFFFFF800
00FFFFFFFFFFF800
00FFFFFFFFFFF800
01FFFFFFFFFFF800
01FFFFFFFFFFFC00
03FFE000007FFC00
03FFC000007FFC00
07FFC000007FFC00
07FF8000007FFC00
0FFF8000007FFC00
0FFF0000007FFC00
1FFF0000003FFC00
1FFE0000003FFC00
3FFE0000003FFC00
3FFC0000003FFC00
7FFC0000003FFE00
7FF80000003FFE00
FFF80000003FFE00
ENDCHAR
STARTCHAR 0103
ENCODING 259
SWIDTH 550 0
DWIDTH 55 0
BBX 50 70 3 -1
BITMAP
00001FF003FE00
00001FF003FE00
00001FF007FE00
00001FF807FC00
00001FFC1FFC00
00001FFFFFF800
00000FFFFFF800
00000FFFFFF000
000007FFFFE000
000007FFFFC000
000003FFFF8000
000000FFFE0000
0000003FF80000
00000000000000
00000000000000
00000000000000
00000000000000
00000000000000
00000000000000
000003FFFE07C0
00003FFFFFFFC0
0000FFFFFFFF80
0003FFFFFFFF80
0007FFFFFFFF80
000FFFFFFFFF80
003FFFFFFFFF80
007FFFFFFFFF00
00FFFFFFFFFF00
00FFFF801FFF00
01FFFC000FFF00
03FFF8000FFF00
07FFF0000FFE00
07FFE0001FFE00
0FFFC0001FFE00
0FFF80001FFE00
1FFF00001FFE00
1FFF00001FFC00
1FFE00003FFC00
3FFE00003FFC00
3FFE00003FFC00
3FFC00003FFC00
7FFC00003FFC00
7FFC00007FF800
7FF800007FF800
7FF800007FF800
7FF80000FFF800
FFF80000FFF800
FFF80001FFF000
FFF80001FFF000
FFF00003FFF000
FFF00003FFF000
FFF00007FFF000
FFF0000FFFF000
FFF0000FFFE000
FFF8001FFFE000
FFF8003FFFE000
FFF8007FFFE000
FFF800FFFFE000
FFFC03FFFFE000
7FFE07FFFFE000
7FFFFFFFFFE000
7FFFFFFEFFE000
3FFFFFFEFFC000
3FFFFFFCFFC000
1FFFFFF8FFC000
0FFFFFE0FFC000
0FFFFFC0FFC000
03FFFF00FFC000
01FFFC00FFC000
003FF000000000
ENDCHAR
STARTCHAR 0104
ENCODING 260
SWIDTH 550 0
DWIDTH 55 0
BBX 55 84 -5 -20
BITMAP
00000000FFFF80
00000001FFFF80
00000001FFFF80
00000003FFFF80
00000003FFFF80
00000007FFFF80
00000007FFFF80
0000000FFFFF80
0000000FFFFFC0
0000001FFFFFC0
0000001FFFFFC0
0000003FFFFFC0
0000003FFFFFC0
0000007FFBFFC0
0000007FFBFFC0
000000FFF3FFC0
000000FFF3FFC0
000001FFE3FFC0
000001FFE1FFC0
000003FFC1FFE0
000003FFC1FFE0
000007FF81FFE0
000007FF81FFE0
00000FFF01FFE0
00000FFF01FFE0
00001FFE01FFE0
00001FFE01FFE0
00003FFC01FFE0
00003FFC01FFE0
00007FFC01FFF0
00007FF801FFF0
0000FFF800FFF0
0000FFF000FFF0
0001FFF000FFF0
0001FFE000FFF0
0003FFE000FFF0
0003FFC000FFF0
0007FFC000FFF0
0007FF8000FFF0
000FFF8000FFF0
000FFF0000FFF8
001FFF0000FFF8
001FFFFFFFFFF8
003FFFFFFFFFF8
003FFFFFFFFFF8
007FFFFFFFFFF8
007FFFFFFFFFF8
00FFFFFFFFFFF8
00FFFFFFFFFFF8
01FFFFFFFFFFF8
01FFFFFFFFFFFC
03FFE000007FFC
03FFC000007FFC
07FFC000007FFC
07FF8000007FFC
0FFF8000007FFC
0FFF0000007FFC
1FFF0000003FFC
1FFE0000003FFC
3FFE0000003FFC
3FFC0000003FFC
7FFC0000003FFE
7FF80000003FFE
FFF80000003FFE
00000000007FE0
0000000000FFC0
0000000001FFC0
0000000003FF80
0000000007FF00
000000000FFE00
000000000FFC00
000000001FFC00
000000001FF800
000000003FF800
000000003FF800
000000003FFC00
000000003FFFE0
000000003FFFE0
000000003FFFE0
000000003FFFE0
000000001FFFE0
000000000FFFE0
0000000007FFE0
00000000007F00
ENDCHAR
ENDFONT
